<svg version="1.1" xmlns="http://www.w3.org/2000/svg" viewBox="0 0 1509.4446105957031 568.6666870117188" width="1509.4446105957031" height="568.6666870117188">
  <!-- svg-source:excalidraw -->
  
  <defs>
    <style class="style-fonts">
      @font-face {
        font-family: "Virgil";
        src: url("https://file%2B.vscode-resource.vscode-cdn.net/c%3A/Users/bauz/.vscode/extensions/pomdtr.excalidraw-editor-3.7.1/public//dist/excalidraw-assets/Virgil.woff2");
      }
      @font-face {
        font-family: "Cascadia";
        src: url("https://file%2B.vscode-resource.vscode-cdn.net/c%3A/Users/bauz/.vscode/extensions/pomdtr.excalidraw-editor-3.7.1/public//dist/excalidraw-assets/Cascadia.woff2");
      }
      @font-face {
        font-family: "Assistant";
        src: url("https://file%2B.vscode-resource.vscode-cdn.net/c%3A/Users/bauz/.vscode/extensions/pomdtr.excalidraw-editor-3.7.1/public//dist/excalidraw-assets/Assistant-Regular.woff2");
      }
    </style>
    
  </defs>
  <rect x="0" y="0" width="1509.4446105957031" height="568.6666870117188" fill="#ffffff"></rect><g stroke-linecap="round" transform="translate(422.83348083496094 70.44444274902344) rotate(0 27.111114501953125 13.77777099609375)"><path d="M1.83 1.59 C1.83 1.59, 1.83 1.59, 1.83 1.59 M1.83 1.59 C1.83 1.59, 1.83 1.59, 1.83 1.59 M0.92 8.75 C3.51 6.59, 5.85 2.17, 8.13 0.44 M0.92 8.75 C4.02 5.24, 7.01 2.4, 8.13 0.44 M0.65 15.14 C2.25 11.84, 5.99 9.54, 13.78 0.05 M0.65 15.14 C5.53 11.19, 8.72 5.66, 13.78 0.05 M1.05 20.79 C6.38 14.38, 13.35 4.67, 18.76 0.41 M1.05 20.79 C7.57 13.57, 14.25 5.69, 18.76 0.41 M2.1 25.68 C9.41 14.45, 17.89 8.4, 24.41 0.02 M2.1 25.68 C9.15 18.12, 16.97 8.45, 24.41 0.02 M5.77 27.55 C15.37 15.94, 25.03 6.14, 29.39 0.38 M5.77 27.55 C11.89 20.11, 19.85 13.16, 29.39 0.38 M10.76 27.91 C17.19 19.61, 26.12 12.37, 34.38 0.74 M10.76 27.91 C17.86 18.79, 27.69 8.62, 34.38 0.74 M16.4 27.51 C24.14 21.1, 27.64 13.75, 40.02 0.34 M16.4 27.51 C24.67 17.97, 32.84 8.75, 40.02 0.34 M21.39 27.87 C27.54 18.05, 36.42 10.37, 45.01 0.7 M21.39 27.87 C29.9 17.68, 38.44 7.4, 45.01 0.7 M27.04 27.48 C34.22 19.04, 41.07 12.32, 50.65 0.31 M27.04 27.48 C36.88 16.35, 45.39 7.02, 50.65 0.31 M32.02 27.84 C38.09 18.69, 45.33 11.92, 53.02 3.69 M32.02 27.84 C36.77 21.75, 41.25 16.32, 53.02 3.69 M37.01 28.2 C42.79 22.71, 50.13 14.93, 54.07 8.57 M37.01 28.2 C42.03 23.65, 45.36 17.23, 54.07 8.57 M42.65 27.8 C47.64 23.73, 49.66 21.07, 53.81 14.97 M42.65 27.8 C46.29 24.02, 47.53 20.47, 53.81 14.97 M47.64 28.16 C48.98 25.38, 50.61 22.74, 54.2 20.61 M47.64 28.16 C49.3 26.01, 52.07 23.76, 54.2 20.61" stroke="#ffec99" stroke-width="0.5" fill="none"></path><path d="M6.89 0 C15.64 1.2, 23.36 1.81, 47.33 0 M6.89 0 C16.29 -0.61, 23.93 -0.58, 47.33 0 M47.33 0 C50.65 -1.3, 54.95 0.6, 54.22 6.89 M47.33 0 C53.58 0.22, 52.27 3.77, 54.22 6.89 M54.22 6.89 C55.61 10.12, 54.98 15.27, 54.22 20.67 M54.22 6.89 C54.62 10.93, 54.22 15.81, 54.22 20.67 M54.22 20.67 C55.18 25.73, 50.74 25.97, 47.33 27.56 M54.22 20.67 C55.83 27.39, 53.83 25.3, 47.33 27.56 M47.33 27.56 C33.01 25.67, 18.93 28.07, 6.89 27.56 M47.33 27.56 C32.54 26.87, 17.51 27.07, 6.89 27.56 M6.89 27.56 C1.82 26.53, 1.2 23.34, 0 20.67 M6.89 27.56 C3.88 26.13, 0.91 24.4, 0 20.67 M0 20.67 C0.39 18.43, 1.35 13.75, 0 6.89 M0 20.67 C0.59 16.68, 0.4 14.47, 0 6.89 M0 6.89 C-0.6 3.93, 3.49 1.93, 6.89 0 M0 6.89 C0.52 0.31, 2.28 -1.59, 6.89 0" stroke="#ffec99" stroke-width="1" fill="none"></path></g><g stroke-linecap="round" transform="translate(570.3889312744141 380.1111297607422) rotate(0 44.888885498046875 13.999984741210938)"><path d="M1.86 1.62 C1.86 1.62, 1.86 1.62, 1.86 1.62 M1.86 1.62 C1.86 1.62, 1.86 1.62, 1.86 1.62 M0.95 8.77 C4.46 6.99, 6.53 4.3, 8.16 0.47 M0.95 8.77 C2.77 7.16, 5.02 4.8, 8.16 0.47 M0.68 15.17 C5.08 12.59, 9.82 8.06, 13.81 0.08 M0.68 15.17 C4.75 10.97, 8.46 7.85, 13.81 0.08 M1.08 20.81 C4.28 14.56, 7.58 12.75, 18.79 0.44 M1.08 20.81 C5.49 16.76, 9.34 12.61, 18.79 0.44 M2.13 25.7 C6.26 19.74, 12.68 13.75, 24.44 0.04 M2.13 25.7 C9.92 16.99, 17.93 5.4, 24.44 0.04 M5.8 27.57 C12.93 17.54, 23.2 10.41, 29.42 0.4 M5.8 27.57 C12.47 18.99, 21.11 8.71, 29.42 0.4 M10.79 27.93 C18.57 21.72, 23 13.39, 35.07 0.01 M10.79 27.93 C18.93 19.9, 25.63 9.88, 35.07 0.01 M16.43 27.54 C25.05 18.94, 32.04 7.74, 40.05 0.37 M16.43 27.54 C21.33 22.22, 28.01 15.34, 40.05 0.37 M21.42 27.9 C28.39 16.37, 39.47 6.6, 45.7 -0.03 M21.42 27.9 C30.23 19.43, 36.64 9.81, 45.7 -0.03 M26.41 28.26 C30.71 23.68, 38.93 14.14, 50.68 0.33 M26.41 28.26 C33.58 18.33, 43.28 9.44, 50.68 0.33 M32.05 27.86 C41.31 18.7, 50.19 10.07, 55.67 0.69 M32.05 27.86 C40.05 18.87, 48.01 10.52, 55.67 0.69 M37.04 28.22 C45.24 19.88, 51.82 14.85, 61.31 0.3 M37.04 28.22 C43.13 20.02, 49.9 12.52, 61.31 0.3 M42.68 27.83 C48.58 18.57, 57.13 9.35, 66.3 0.66 M42.68 27.83 C51.03 18.17, 60.11 8.39, 66.3 0.66 M47.67 28.19 C54.58 19.86, 65.77 8.61, 71.94 0.26 M47.67 28.19 C54.81 19.42, 62.88 12.12, 71.94 0.26 M53.31 27.79 C61.17 18.86, 70.58 10.82, 76.93 0.62 M53.31 27.79 C62.91 17.94, 71.13 8.47, 76.93 0.62 M58.3 28.15 C66.35 15.98, 75.52 7.85, 82.57 0.23 M58.3 28.15 C63.95 21.09, 70.02 15.43, 82.57 0.23 M63.29 28.51 C72.3 20.4, 76.86 13.4, 86.9 1.34 M63.29 28.51 C71.98 18.09, 82.92 7.28, 86.9 1.34 M68.93 28.12 C75.22 24.13, 79.52 16.36, 89.92 3.97 M68.93 28.12 C74.51 20.09, 82.57 11.96, 89.92 3.97 M73.92 28.48 C77.49 22.41, 84.26 14.84, 89.66 10.37 M73.92 28.48 C79.77 22.05, 85.16 15.39, 89.66 10.37 M79.56 28.08 C81.92 26.82, 82.53 23.4, 89.4 16.76 M79.56 28.08 C81.99 25.48, 83.86 22.86, 89.4 16.76 M85.2 27.69 C86.98 26.42, 87.5 24.77, 89.79 22.41 M85.2 27.69 C87.08 25.47, 88.45 23.38, 89.79 22.41" stroke="#ffec99" stroke-width="0.5" fill="none"></path><path d="M7 0 C34.23 0.88, 59.8 1.32, 82.78 0 M7 0 C28.57 0.04, 50.32 -0.9, 82.78 0 M82.78 0 C86.13 0.18, 90.53 1.9, 89.78 7 M82.78 0 C85.79 2.03, 88.38 1.54, 89.78 7 M89.78 7 C91.18 10.93, 89.89 15, 89.78 21 M89.78 7 C90.45 11.95, 90.3 16.03, 89.78 21 M89.78 21 C88.09 24.1, 85.99 26.13, 82.78 28 M89.78 21 C88.34 27.55, 89.11 25.73, 82.78 28 M82.78 28 C62.89 27.01, 44.56 28.33, 7 28 M82.78 28 C57.68 27.23, 31.38 28.61, 7 28 M7 28 C2.64 27.46, -1.44 27.51, 0 21 M7 28 C2.31 25.96, 0.76 26.19, 0 21 M0 21 C0.6 16.3, -1.27 11.77, 0 7 M0 21 C-0.47 16.17, -0.55 11.92, 0 7 M0 7 C1.9 3.95, 1.02 1.81, 7 0 M0 7 C0.01 2.45, 3.85 1.6, 7 0" stroke="#ffec99" stroke-width="1" fill="none"></path></g><g stroke-linecap="round" transform="translate(555.8333282470703 342.6666717529297) rotate(0 44.4444580078125 12.444442749023438)"><path d="M1.66 1.44 C1.66 1.44, 1.66 1.44, 1.66 1.44 M1.66 1.44 C1.66 1.44, 1.66 1.44, 1.66 1.44 M0.08 9.35 C3.71 6.18, 5.64 1.79, 7.96 0.29 M0.08 9.35 C3.37 6, 6.18 1.86, 7.96 0.29 M0.48 14.99 C1.7 9.78, 7 9.18, 12.94 0.65 M0.48 14.99 C3.96 10.09, 9.49 6.59, 12.94 0.65 M0.22 21.39 C4.43 17.75, 10.02 9.8, 18.59 0.26 M0.22 21.39 C6.32 14.88, 9.86 10.79, 18.59 0.26 M3.23 24.01 C8.58 15.39, 14.56 7.73, 23.57 0.62 M3.23 24.01 C11.05 17.31, 17.42 9.7, 23.57 0.62 M7.57 25.13 C13.04 20.59, 20.11 13.29, 29.22 0.22 M7.57 25.13 C14.37 18.62, 21.3 11.11, 29.22 0.22 M13.21 24.73 C19.93 17.94, 25.94 13.33, 34.2 0.58 M13.21 24.73 C17.67 18.28, 22.17 14.09, 34.2 0.58 M18.2 25.09 C24.07 20.33, 28.94 15.28, 39.85 0.19 M18.2 25.09 C23.03 18.83, 29.02 12.64, 39.85 0.19 M23.84 24.7 C30.68 17.43, 37.73 4.55, 44.83 0.55 M23.84 24.7 C30.49 16.17, 38.62 9.17, 44.83 0.55 M28.83 25.06 C33.75 17.86, 42.43 7.19, 49.82 0.91 M28.83 25.06 C34.85 19.51, 39.12 12.98, 49.82 0.91 M34.47 24.66 C42.16 18.24, 46.99 8.06, 55.46 0.51 M34.47 24.66 C42.16 16.52, 49.04 7.03, 55.46 0.51 M39.46 25.02 C43.3 21.28, 50.6 14.5, 60.45 0.87 M39.46 25.02 C46.2 15.48, 55.05 6.79, 60.45 0.87 M44.44 25.38 C53.13 18.65, 56.94 9.78, 66.09 0.48 M44.44 25.38 C48.7 20.56, 55 13.27, 66.09 0.48 M50.09 24.99 C55.17 15.76, 65.24 8.72, 71.08 0.84 M50.09 24.99 C57.84 16.69, 65.5 8.67, 71.08 0.84 M55.07 25.35 C62.48 17.03, 70.02 9.99, 76.72 0.44 M55.07 25.35 C61.66 18.25, 67.49 12.81, 76.72 0.44 M60.72 24.95 C65.41 17.61, 71.19 11.52, 81.71 0.8 M60.72 24.95 C66.64 16.94, 73.83 8.98, 81.71 0.8 M65.7 25.31 C72.58 17.07, 80.93 8.78, 86.7 1.16 M65.7 25.31 C72.19 17.7, 80.73 8.68, 86.7 1.16 M71.35 24.92 C76.26 18.37, 83.06 14.51, 88.4 5.3 M71.35 24.92 C77 18.45, 83.41 12.47, 88.4 5.3 M76.33 25.28 C82.71 20.34, 86.58 15.86, 88.8 10.94 M76.33 25.28 C80.5 19.11, 85.2 14.85, 88.8 10.94 M81.98 24.89 C83.62 22.31, 85.68 21.26, 88.54 17.34 M81.98 24.89 C84.43 22.62, 85.78 20.64, 88.54 17.34" stroke="#ffec99" stroke-width="0.5" fill="none"></path><path d="M6.22 0 C30.67 1.16, 54.31 -1.8, 82.67 0 M6.22 0 C32.28 -0.73, 57.33 -1.29, 82.67 0 M82.67 0 C85.86 0.37, 89.91 1.27, 88.89 6.22 M82.67 0 C89.07 -0.46, 89.13 3.33, 88.89 6.22 M88.89 6.22 C89.99 9.81, 88.48 15.12, 88.89 18.67 M88.89 6.22 C88.45 9.35, 89.54 11.53, 88.89 18.67 M88.89 18.67 C88.58 22.87, 87.27 24.96, 82.67 24.89 M88.89 18.67 C90.56 23.79, 87.75 24.57, 82.67 24.89 M82.67 24.89 C52.48 26.03, 24.16 26.34, 6.22 24.89 M82.67 24.89 C54.64 26.28, 27.83 25.83, 6.22 24.89 M6.22 24.89 C3.71 23.92, 1.32 21.23, 0 18.67 M6.22 24.89 C1.44 23.37, 0.21 23.68, 0 18.67 M0 18.67 C-0.67 14.77, 0.48 12.57, 0 6.22 M0 18.67 C-0.11 14.65, -0.02 11.72, 0 6.22 M0 6.22 C0.82 4.03, 3.63 1.53, 6.22 0 M0 6.22 C0.69 0.13, 0.27 -1.68, 6.22 0" stroke="#ffec99" stroke-width="1" fill="none"></path></g><g stroke-linecap="round" transform="translate(430.3333969116211 264.7778625488281) rotate(0 24.888870239257812 13.77777099609375)"><path d="M1.83 1.59 C1.83 1.59, 1.83 1.59, 1.83 1.59 M1.83 1.59 C1.83 1.59, 1.83 1.59, 1.83 1.59 M0.92 8.75 C4.51 4.88, 5.87 2.29, 8.13 0.44 M0.92 8.75 C2.69 6.62, 4.45 4.95, 8.13 0.44 M0.65 15.14 C2.85 10.73, 6.66 9.87, 13.78 0.05 M0.65 15.14 C5.39 10.12, 9.14 6.48, 13.78 0.05 M1.05 20.79 C4.9 14.69, 9.54 12.65, 18.76 0.41 M1.05 20.79 C5.98 15.43, 11.49 8.25, 18.76 0.41 M2.1 25.68 C6.13 18.32, 10.57 12.82, 24.41 0.02 M2.1 25.68 C10.58 16.1, 19.38 6.11, 24.41 0.02 M5.77 27.55 C11.44 17.4, 20.17 9.87, 29.39 0.38 M5.77 27.55 C14.74 18.72, 22.55 9.44, 29.39 0.38 M10.76 27.91 C20.01 18.06, 27.21 10.52, 34.38 0.74 M10.76 27.91 C16.26 21.48, 20.62 16.75, 34.38 0.74 M16.4 27.51 C22.75 20.15, 30.17 12.35, 40.02 0.34 M16.4 27.51 C24.18 19.54, 30.76 10.05, 40.02 0.34 M21.39 27.87 C30.87 20.35, 37.68 8.06, 45.01 0.7 M21.39 27.87 C31.41 17.79, 39.21 7.83, 45.01 0.7 M27.04 27.48 C31.69 22.13, 37.01 15.42, 48.69 2.57 M27.04 27.48 C32.58 21.02, 37.87 14.65, 48.69 2.57 M32.02 27.84 C40.46 18.7, 45.53 10.05, 49.74 7.46 M32.02 27.84 C36.19 23.05, 40.22 18.37, 49.74 7.46 M37.01 28.2 C41.01 25.13, 44.05 21.09, 50.13 13.1 M37.01 28.2 C40.91 23.23, 45.73 17.82, 50.13 13.1 M42.65 27.8 C44.43 25.51, 45.73 23.39, 49.87 19.5 M42.65 27.8 C45.46 25.33, 47.74 22.78, 49.87 19.5" stroke="#ffc9c9" stroke-width="0.5" fill="none"></path><path d="M6.89 0 C15.18 -0.73, 22.04 -1.77, 42.89 0 M6.89 0 C20.19 -0.5, 31.84 1.03, 42.89 0 M42.89 0 C47.34 -0.25, 50.98 2.37, 49.78 6.89 M42.89 0 C45.88 2.11, 48.03 3.6, 49.78 6.89 M49.78 6.89 C50.75 11.3, 50.89 17.73, 49.78 20.67 M49.78 6.89 C49.22 9.99, 49.12 14.16, 49.78 20.67 M49.78 20.67 C50.69 25.83, 49 29.05, 42.89 27.56 M49.78 20.67 C48.26 26.05, 48.72 28.85, 42.89 27.56 M42.89 27.56 C33.52 28.39, 24.77 25.86, 6.89 27.56 M42.89 27.56 C34.88 27.22, 26.01 28.17, 6.89 27.56 M6.89 27.56 C2.03 28.92, 0.11 24.25, 0 20.67 M6.89 27.56 C3.02 28.72, 1.72 25.27, 0 20.67 M0 20.67 C-0.97 15.53, 0.49 12.94, 0 6.89 M0 20.67 C-0.48 18.21, -0.07 14.06, 0 6.89 M0 6.89 C1.93 2.19, 3.58 -0.25, 6.89 0 M0 6.89 C1.39 4.21, 0.76 -1.63, 6.89 0" stroke="#ffc9c9" stroke-width="1" fill="none"></path></g><g stroke-linecap="round" transform="translate(429.66674041748047 222.666748046875) rotate(0 24.888870239257812 13.77777099609375)"><path d="M1.83 1.59 C1.83 1.59, 1.83 1.59, 1.83 1.59 M1.83 1.59 C1.83 1.59, 1.83 1.59, 1.83 1.59 M0.92 8.75 C2.88 4.89, 5.48 1.81, 8.13 0.44 M0.92 8.75 C3.51 5.73, 5.29 3.84, 8.13 0.44 M0.65 15.14 C4.57 11.78, 8.36 7.19, 13.78 0.05 M0.65 15.14 C5.6 10.34, 10 4.5, 13.78 0.05 M1.05 20.79 C7.96 14.07, 12.41 6.79, 18.76 0.41 M1.05 20.79 C4.44 16.92, 8.22 11.17, 18.76 0.41 M2.1 25.68 C10.1 15.16, 19.65 7.4, 24.41 0.02 M2.1 25.68 C9.43 17.55, 15.7 11.57, 24.41 0.02 M5.77 27.55 C13.81 20.42, 17.36 11.08, 29.39 0.38 M5.77 27.55 C14.92 17.17, 22.36 8.44, 29.39 0.38 M10.76 27.91 C19.16 20.44, 23.16 14.22, 34.38 0.74 M10.76 27.91 C16.34 20.12, 22.69 14.47, 34.38 0.74 M16.4 27.51 C21.14 22.12, 28.66 11.87, 40.02 0.34 M16.4 27.51 C23.19 19.28, 30.65 11.73, 40.02 0.34 M21.39 27.87 C26.03 23.06, 32 14.19, 45.01 0.7 M21.39 27.87 C30.7 18.08, 38.68 7.71, 45.01 0.7 M27.04 27.48 C35.27 15.78, 44.65 7.26, 48.69 2.57 M27.04 27.48 C35.13 19.49, 41.63 12.09, 48.69 2.57 M32.02 27.84 C38.17 22.69, 41.47 18.11, 49.74 7.46 M32.02 27.84 C37.56 20.74, 45.85 13.08, 49.74 7.46 M37.01 28.2 C40.38 23.91, 46.57 14.96, 50.13 13.1 M37.01 28.2 C42.74 21.98, 47.62 16.35, 50.13 13.1 M42.65 27.8 C44.73 25.05, 46.03 22.55, 49.87 19.5 M42.65 27.8 C44.59 25.84, 46.87 23.34, 49.87 19.5" stroke="#ffc9c9" stroke-width="0.5" fill="none"></path><path d="M6.89 0 C14.35 1.13, 24.79 -1.48, 42.89 0 M6.89 0 C17.78 0.78, 29.95 0.35, 42.89 0 M42.89 0 C47.94 -1.38, 51.58 1.9, 49.78 6.89 M42.89 0 C47.61 1.08, 50.85 3.29, 49.78 6.89 M49.78 6.89 C50.42 12.45, 48.75 15.35, 49.78 20.67 M49.78 6.89 C50.01 11.22, 49.72 15.48, 49.78 20.67 M49.78 20.67 C48.09 23.89, 48.2 26.26, 42.89 27.56 M49.78 20.67 C49.87 26.7, 47.27 26.97, 42.89 27.56 M42.89 27.56 C33.5 26.56, 28.73 26.33, 6.89 27.56 M42.89 27.56 C34.38 28.13, 26.16 26.83, 6.89 27.56 M6.89 27.56 C4.13 26.03, 1.13 26.29, 0 20.67 M6.89 27.56 C1.9 26.98, 1.66 24.53, 0 20.67 M0 20.67 C-1.36 16.7, -0.97 9.07, 0 6.89 M0 20.67 C0.19 18.12, 0.51 14.07, 0 6.89 M0 6.89 C0.69 3.38, 3.42 -1.06, 6.89 0 M0 6.89 C-0.47 1.41, 1.74 1.12, 6.89 0" stroke="#ffc9c9" stroke-width="1" fill="none"></path></g><g stroke-linecap="round" transform="translate(435.22228240966797 380.5556945800781) rotate(0 24.888870239257812 13.77777099609375)"><path d="M1.83 1.59 C1.83 1.59, 1.83 1.59, 1.83 1.59 M1.83 1.59 C1.83 1.59, 1.83 1.59, 1.83 1.59 M1.57 7.99 C3.32 7.04, 5.24 3.94, 8.13 0.44 M1.57 7.99 C3.46 5.33, 5.73 2.78, 8.13 0.44 M1.31 14.39 C4.44 10.14, 10.37 6.39, 13.12 0.8 M1.31 14.39 C4.06 11.55, 7.18 7.08, 13.12 0.8 M1.71 20.03 C7.05 13.83, 11.12 6.06, 18.11 1.16 M1.71 20.03 C6.05 15.02, 9.62 10.95, 18.11 1.16 M2.1 25.68 C5.81 21.65, 12.13 15.03, 23.75 0.77 M2.1 25.68 C7.51 17.62, 14.22 12.06, 23.75 0.77 M5.12 28.3 C10.54 21.25, 16.29 16.31, 28.74 1.13 M5.12 28.3 C12.78 20.17, 18.17 13.68, 28.74 1.13 M10.11 28.66 C14.18 21.38, 20.52 15, 34.38 0.74 M10.11 28.66 C17.85 19.41, 26.51 9.91, 34.38 0.74 M15.75 28.27 C23.39 18.49, 34.68 8.35, 39.37 1.1 M15.75 28.27 C21.17 21.9, 27.85 14.56, 39.37 1.1 M20.74 28.63 C25.53 21.61, 34.42 14.82, 44.35 1.46 M20.74 28.63 C27.65 21.33, 32.81 13.49, 44.35 1.46 M26.38 28.23 C31.22 19.47, 37.95 14.51, 48.69 2.57 M26.38 28.23 C32.89 21.3, 38.97 13.63, 48.69 2.57 M31.37 28.59 C35.4 21.89, 42.04 16.53, 51.05 5.95 M31.37 28.59 C38.15 21.64, 44.5 14.72, 51.05 5.95 M36.35 28.95 C39.87 24.97, 45.7 15.89, 51.44 11.59 M36.35 28.95 C40.6 22.96, 46.55 18.28, 51.44 11.59 M42 28.56 C45.73 24.7, 49.09 21.73, 51.18 17.99 M42 28.56 C45.15 25.16, 47.21 22.01, 51.18 17.99" stroke="#ffc9c9" stroke-width="0.5" fill="none"></path><path d="M6.89 0 C17.88 0.15, 27.26 0.63, 42.89 0 M6.89 0 C18.34 -0.92, 30.01 -0.79, 42.89 0 M42.89 0 C46.19 0, 48.51 3.09, 49.78 6.89 M42.89 0 C45.78 1.44, 48.16 3.74, 49.78 6.89 M49.78 6.89 C49.1 10.71, 51.1 14.65, 49.78 20.67 M49.78 6.89 C49.68 11.45, 50.08 17.05, 49.78 20.67 M49.78 20.67 C48.3 25.62, 49.33 27.1, 42.89 27.56 M49.78 20.67 C48.52 26.86, 47.9 28.16, 42.89 27.56 M42.89 27.56 C30.87 27.99, 20.59 28.82, 6.89 27.56 M42.89 27.56 C29.6 28.24, 18.99 27.02, 6.89 27.56 M6.89 27.56 C1.7 27.72, 1.51 26.35, 0 20.67 M6.89 27.56 C2.73 27.85, -0.55 25.59, 0 20.67 M0 20.67 C-0.8 17.75, 0.96 14.6, 0 6.89 M0 20.67 C0.51 16.25, -0.29 13.43, 0 6.89 M0 6.89 C-1.43 0.95, 3.92 -0.14, 6.89 0 M0 6.89 C-0.29 3.68, 2.38 -1.61, 6.89 0" stroke="#ffc9c9" stroke-width="1" fill="none"></path></g><g stroke-linecap="round" transform="translate(422.4445571899414 109.33346557617188) rotate(0 24.888870239257812 13.77777099609375)"><path d="M1.83 1.59 C1.83 1.59, 1.83 1.59, 1.83 1.59 M1.83 1.59 C1.83 1.59, 1.83 1.59, 1.83 1.59 M0.92 8.75 C3.34 7.54, 4.28 5.28, 8.13 0.44 M0.92 8.75 C2.52 6.72, 4.53 4.25, 8.13 0.44 M0.65 15.14 C3.63 8.16, 11.3 2.41, 13.78 0.05 M0.65 15.14 C3.06 12.43, 6.81 7.87, 13.78 0.05 M1.05 20.79 C9.26 12.05, 14.94 7.26, 18.76 0.41 M1.05 20.79 C5.79 15.72, 11.95 8.77, 18.76 0.41 M2.1 25.68 C5 18.9, 11.26 15.99, 24.41 0.02 M2.1 25.68 C8.57 17.43, 17.1 9.21, 24.41 0.02 M5.77 27.55 C11.18 21.9, 17.15 12.66, 29.39 0.38 M5.77 27.55 C12.24 20.32, 17.9 14.65, 29.39 0.38 M10.76 27.91 C16.34 20.73, 25.14 13.8, 34.38 0.74 M10.76 27.91 C17.16 19.13, 24.28 12.03, 34.38 0.74 M16.4 27.51 C23.78 16.51, 35.27 8.04, 40.02 0.34 M16.4 27.51 C22.4 20.94, 27.97 15.44, 40.02 0.34 M21.39 27.87 C28.88 19.93, 34.28 15.85, 45.01 0.7 M21.39 27.87 C29.17 18.76, 36.58 9.37, 45.01 0.7 M27.04 27.48 C36.91 16.48, 43.06 9.95, 48.69 2.57 M27.04 27.48 C31.55 22.19, 37.39 16.27, 48.69 2.57 M32.02 27.84 C35.98 22.86, 44.29 14.56, 49.74 7.46 M32.02 27.84 C36.57 21.94, 40.02 17.98, 49.74 7.46 M37.01 28.2 C39.11 23.4, 44.42 19.98, 50.13 13.1 M37.01 28.2 C40.21 24.04, 44.04 20.27, 50.13 13.1 M42.65 27.8 C44.5 24.64, 48.75 21.04, 49.87 19.5 M42.65 27.8 C44.68 26, 45.36 24.3, 49.87 19.5" stroke="#ffc9c9" stroke-width="0.5" fill="none"></path><path d="M6.89 0 C16.68 0.35, 31.65 0.18, 42.89 0 M6.89 0 C15.78 0.03, 25.1 -0.02, 42.89 0 M42.89 0 C48.14 0.58, 47.88 1.53, 49.78 6.89 M42.89 0 C46.34 0.84, 51.87 0.76, 49.78 6.89 M49.78 6.89 C49.76 9.21, 48.57 12.9, 49.78 20.67 M49.78 6.89 C49.53 11.82, 49.47 16.42, 49.78 20.67 M49.78 20.67 C48.99 24.39, 47.22 27.08, 42.89 27.56 M49.78 20.67 C47.5 26.77, 48.47 25.97, 42.89 27.56 M42.89 27.56 C30.25 28.29, 16.26 27.84, 6.89 27.56 M42.89 27.56 C33.6 28.42, 26 26.98, 6.89 27.56 M6.89 27.56 C2.8 26.56, -1.29 25.26, 0 20.67 M6.89 27.56 C0.84 28.47, -1.7 26.7, 0 20.67 M0 20.67 C-0.12 17, -0.76 14.82, 0 6.89 M0 20.67 C-0.55 15.69, -0.12 9.4, 0 6.89 M0 6.89 C1.13 3.25, 0.82 0.36, 6.89 0 M0 6.89 C2.12 1.78, 1.04 1.6, 6.89 0" stroke="#ffc9c9" stroke-width="1" fill="none"></path></g><g stroke-linecap="round" transform="translate(431.6667251586914 342.8890075683594) rotate(0 27.111114501953125 13.77777099609375)"><path d="M1.83 1.59 C1.83 1.59, 1.83 1.59, 1.83 1.59 M1.83 1.59 C1.83 1.59, 1.83 1.59, 1.83 1.59 M0.92 8.75 C1.89 5.7, 3.88 5.11, 8.13 0.44 M0.92 8.75 C2.84 6.29, 4.54 4.03, 8.13 0.44 M0.65 15.14 C2.06 12.62, 8.27 6.05, 13.78 0.05 M0.65 15.14 C5.78 9.89, 10.36 4.05, 13.78 0.05 M1.05 20.79 C3.47 17.58, 9.34 9.92, 18.76 0.41 M1.05 20.79 C6.92 13.64, 13.08 6.9, 18.76 0.41 M2.1 25.68 C9.22 16.18, 17.73 5.95, 24.41 0.02 M2.1 25.68 C9.89 16.26, 17.49 8.3, 24.41 0.02 M5.77 27.55 C10.03 21.01, 19.24 13.43, 29.39 0.38 M5.77 27.55 C11.65 21.06, 16.49 15.07, 29.39 0.38 M10.76 27.91 C18.3 21.04, 24.42 14.2, 34.38 0.74 M10.76 27.91 C14.71 21.8, 20.5 17.24, 34.38 0.74 M16.4 27.51 C24.25 18.13, 31.42 6.83, 40.02 0.34 M16.4 27.51 C25.14 18.28, 32.21 8.34, 40.02 0.34 M21.39 27.87 C25.3 23, 30.34 14.63, 45.01 0.7 M21.39 27.87 C31.02 17.57, 38.73 8.1, 45.01 0.7 M27.04 27.48 C31.82 20.77, 38.9 14.55, 50.65 0.31 M27.04 27.48 C34.94 18.12, 44.25 6.02, 50.65 0.31 M32.02 27.84 C37.26 23.88, 42.87 15.65, 53.02 3.69 M32.02 27.84 C38.39 19.44, 45.56 11.32, 53.02 3.69 M37.01 28.2 C41.87 21.92, 49.83 16.18, 54.07 8.57 M37.01 28.2 C41.02 23.89, 45.48 17.78, 54.07 8.57 M42.65 27.8 C46.29 23.61, 48.83 18.07, 53.81 14.97 M42.65 27.8 C45.7 24.26, 48.12 21.52, 53.81 14.97 M47.64 28.16 C48.52 27.32, 50.66 25.19, 54.2 20.61 M47.64 28.16 C49.15 25.58, 51.28 24.21, 54.2 20.61" stroke="#ffec99" stroke-width="0.5" fill="none"></path><path d="M6.89 0 C15.72 0.13, 27.19 -0.35, 47.33 0 M6.89 0 C22.29 -0.18, 38.51 -0.6, 47.33 0 M47.33 0 C52.05 -0.1, 53.83 2.91, 54.22 6.89 M47.33 0 C54.04 -0.39, 54.45 0.81, 54.22 6.89 M54.22 6.89 C53.86 11.14, 55.55 14.06, 54.22 20.67 M54.22 6.89 C53.57 11.75, 53.97 15.84, 54.22 20.67 M54.22 20.67 C52.62 25.06, 52.58 25.72, 47.33 27.56 M54.22 20.67 C52.21 25.4, 50.71 29.66, 47.33 27.56 M47.33 27.56 C37.33 26.3, 28.48 27.21, 6.89 27.56 M47.33 27.56 C33.23 27.85, 18.29 28.36, 6.89 27.56 M6.89 27.56 C3.36 29.47, 0.11 25.62, 0 20.67 M6.89 27.56 C1 29.26, -2.02 26.64, 0 20.67 M0 20.67 C0.92 15.51, 0.58 12.82, 0 6.89 M0 20.67 C-0.52 16.19, -0.17 13.47, 0 6.89 M0 6.89 C0.51 2.47, 1.59 -1.93, 6.89 0 M0 6.89 C0.26 3.81, 2.36 -1.33, 6.89 0" stroke="#ffec99" stroke-width="1" fill="none"></path></g><g stroke-linecap="round" transform="translate(428.22229766845703 182.77784729003906) rotate(0 27.111114501953125 13.77777099609375)"><path d="M1.83 1.59 C1.83 1.59, 1.83 1.59, 1.83 1.59 M1.83 1.59 C1.83 1.59, 1.83 1.59, 1.83 1.59 M0.92 8.75 C2.29 7.71, 3.25 4.46, 8.13 0.44 M0.92 8.75 C2.66 5.96, 4.91 3.8, 8.13 0.44 M0.65 15.14 C5.04 10.35, 8.2 4.74, 13.78 0.05 M0.65 15.14 C5.16 10.15, 10.13 3.11, 13.78 0.05 M1.05 20.79 C5.02 16.61, 7.84 13.63, 18.76 0.41 M1.05 20.79 C6.27 12.94, 12.61 7, 18.76 0.41 M2.1 25.68 C8.13 18.86, 15.41 11.22, 24.41 0.02 M2.1 25.68 C11.14 15.01, 18.74 6.94, 24.41 0.02 M5.77 27.55 C10.97 20.36, 19.8 10.89, 29.39 0.38 M5.77 27.55 C13.91 18.05, 22.48 7.57, 29.39 0.38 M10.76 27.91 C15.73 19.93, 20.6 15.63, 34.38 0.74 M10.76 27.91 C17.34 20.94, 23.32 13.16, 34.38 0.74 M16.4 27.51 C20.9 20.94, 28.28 13.85, 40.02 0.34 M16.4 27.51 C25.63 17.01, 35.42 6.19, 40.02 0.34 M21.39 27.87 C29.25 21.44, 35.53 11.49, 45.01 0.7 M21.39 27.87 C27 20.88, 32.49 15.71, 45.01 0.7 M27.04 27.48 C30.19 20.19, 37.55 15.88, 50.65 0.31 M27.04 27.48 C34.52 18.59, 40.27 11.58, 50.65 0.31 M32.02 27.84 C38.71 21.14, 41.94 14.95, 53.02 3.69 M32.02 27.84 C38.52 20.37, 46.71 11.51, 53.02 3.69 M37.01 28.2 C44.57 21.6, 48.77 13.76, 54.07 8.57 M37.01 28.2 C43.41 21.48, 48.96 14.15, 54.07 8.57 M42.65 27.8 C44.53 24.04, 46.95 20.89, 53.81 14.97 M42.65 27.8 C45.18 25.2, 46.93 21.7, 53.81 14.97 M47.64 28.16 C49.05 26, 52.34 23.64, 54.2 20.61 M47.64 28.16 C49.89 25.82, 51.4 23.02, 54.2 20.61" stroke="#ffec99" stroke-width="0.5" fill="none"></path><path d="M6.89 0 C16.18 0.09, 24.15 -0.09, 47.33 0 M6.89 0 C20.44 -0.42, 31.92 0.13, 47.33 0 M47.33 0 C53.01 -0.25, 53.25 3, 54.22 6.89 M47.33 0 C50.6 0.06, 54.49 2.28, 54.22 6.89 M54.22 6.89 C53.52 12.14, 54.97 14.78, 54.22 20.67 M54.22 6.89 C54.13 11.13, 53.97 14.01, 54.22 20.67 M54.22 20.67 C53.65 23.31, 50.86 28.95, 47.33 27.56 M54.22 20.67 C56.04 25.64, 53.15 27.74, 47.33 27.56 M47.33 27.56 C36.97 28.46, 25.24 28.64, 6.89 27.56 M47.33 27.56 C31.38 28.17, 16.08 28.08, 6.89 27.56 M6.89 27.56 C3.62 28.97, 1.49 26.29, 0 20.67 M6.89 27.56 C0.44 29.26, 1.14 27.49, 0 20.67 M0 20.67 C-1.01 17.41, -1.14 12.95, 0 6.89 M0 20.67 C-0.67 17.45, 0.4 13.89, 0 6.89 M0 6.89 C1.57 0.81, 4.23 -0.02, 6.89 0 M0 6.89 C-1.47 4.37, 3.92 -0.26, 6.89 0" stroke="#ffec99" stroke-width="1" fill="none"></path></g><g stroke-linecap="round" transform="translate(557.4445266723633 264.0000762939453) rotate(0 50.4444580078125 14.222213745117188)"><path d="M1.89 1.65 C1.89 1.65, 1.89 1.65, 1.89 1.65 M1.89 1.65 C1.89 1.65, 1.89 1.65, 1.89 1.65 M0.98 8.8 C1.8 6.13, 4.64 5.37, 8.85 -0.26 M0.98 8.8 C2.54 7.38, 3.71 5.65, 8.85 -0.26 M0.71 15.2 C6.15 10.34, 8.41 6.85, 13.84 0.1 M0.71 15.2 C3.81 10.71, 8 7.75, 13.84 0.1 M1.11 20.84 C8.05 15.71, 11.51 7.24, 18.82 0.46 M1.11 20.84 C7.07 14.13, 10.99 8.77, 18.82 0.46 M2.16 25.73 C5.59 19.22, 11.32 15.57, 24.47 0.07 M2.16 25.73 C10.93 15.51, 19.14 6.51, 24.47 0.07 M5.18 28.35 C12.01 20.88, 14.73 15.37, 29.45 0.43 M5.18 28.35 C10.93 21.42, 17.26 15.68, 29.45 0.43 M10.82 27.96 C16.09 18.85, 25.23 11.64, 35.1 0.03 M10.82 27.96 C18.7 19.54, 26.16 11.22, 35.1 0.03 M15.81 28.32 C22.68 17.82, 34.68 8.01, 40.08 0.39 M15.81 28.32 C22.06 21.93, 27.14 15.2, 40.08 0.39 M21.45 27.92 C27.63 20.95, 31.71 13.06, 45.73 0 M21.45 27.92 C27.88 19.06, 36.24 10.08, 45.73 0 M26.44 28.28 C31.53 22.56, 35.08 15.59, 50.71 0.36 M26.44 28.28 C35.98 17.86, 45.17 7.53, 50.71 0.36 M32.08 27.89 C36.84 23.62, 40.89 16.77, 56.36 -0.04 M32.08 27.89 C40.22 19.41, 46.56 10.69, 56.36 -0.04 M37.07 28.25 C43.59 19.58, 53.55 8.99, 61.34 0.32 M37.07 28.25 C44.12 19.84, 52.63 10.15, 61.34 0.32 M42.06 28.61 C45.59 20.63, 52.89 15.18, 66.33 0.68 M42.06 28.61 C51.29 17.36, 60.68 6.89, 66.33 0.68 M47.7 28.21 C56.11 21.41, 61.66 12.8, 71.97 0.29 M47.7 28.21 C56.09 18.4, 63.96 9.19, 71.97 0.29 M52.69 28.57 C59.13 20.72, 64.3 14.97, 76.96 0.65 M52.69 28.57 C60.55 18.67, 68.78 8.13, 76.96 0.65 M58.33 28.18 C64.71 20.07, 68.98 13.67, 82.6 0.25 M58.33 28.18 C67.39 18.77, 76.27 8.16, 82.6 0.25 M63.32 28.54 C73.03 15.98, 80.87 6.32, 87.59 0.61 M63.32 28.54 C70.78 18.87, 78.53 9.93, 87.59 0.61 M68.96 28.14 C75.53 21.81, 80.78 15.77, 93.23 0.22 M68.96 28.14 C75.98 19.42, 83.56 11.2, 93.23 0.22 M73.95 28.5 C77.13 24.38, 85.06 17.5, 97.56 1.33 M73.95 28.5 C81.96 18.66, 90.17 10.32, 97.56 1.33 M79.59 28.11 C82.68 23.38, 87.51 16.34, 100.58 3.96 M79.59 28.11 C85.3 21.41, 91.64 14.16, 100.58 3.96 M84.58 28.47 C87.42 24.84, 94.14 21.33, 100.32 10.36 M84.58 28.47 C90.3 21.39, 96.49 15.91, 100.32 10.36 M89.56 28.83 C91.68 24.9, 95.76 23.23, 100.72 16 M89.56 28.83 C93.94 24.55, 96.86 20.93, 100.72 16 M95.86 27.68 C98 25.19, 99.29 24.58, 100.45 22.4 M95.86 27.68 C97.14 26.72, 97.94 25.43, 100.45 22.4" stroke="#ffec99" stroke-width="0.5" fill="none"></path><path d="M7.11 0 C34.39 -1.26, 60.19 1.33, 93.78 0 M7.11 0 C24.09 0.66, 43.19 0.01, 93.78 0 M93.78 0 C97.17 0.84, 102.72 1.99, 100.89 7.11 M93.78 0 C97.68 0.64, 99.2 3.09, 100.89 7.11 M100.89 7.11 C99.91 12.65, 102.06 16.37, 100.89 21.33 M100.89 7.11 C101.02 11.32, 100.3 14.42, 100.89 21.33 M100.89 21.33 C100.16 26.85, 98.46 28.67, 93.78 28.44 M100.89 21.33 C100.61 26.42, 99.13 29.4, 93.78 28.44 M93.78 28.44 C61.42 29.13, 27.62 27.07, 7.11 28.44 M93.78 28.44 C64.84 28.46, 35.62 28.99, 7.11 28.44 M7.11 28.44 C1.27 27.33, 1.7 27.06, 0 21.33 M7.11 28.44 C1.93 27.82, 2.27 25.78, 0 21.33 M0 21.33 C-0.93 17.13, -1.49 12.97, 0 7.11 M0 21.33 C0.27 16.13, -0.16 11.11, 0 7.11 M0 7.11 C0.53 3.9, 3.17 1.69, 7.11 0 M0 7.11 C1.13 4.1, 1.41 -1.39, 7.11 0" stroke="#ffec99" stroke-width="1" fill="none"></path></g><g stroke-linecap="round" transform="translate(558.6667556762695 222.2223358154297) rotate(0 50.4444580078125 14.222213745117188)"><path d="M1.89 1.65 C1.89 1.65, 1.89 1.65, 1.89 1.65 M1.89 1.65 C1.89 1.65, 1.89 1.65, 1.89 1.65 M0.98 8.8 C3.13 6.88, 4.46 4.87, 8.85 -0.26 M0.98 8.8 C3.91 5.76, 5.64 3.23, 8.85 -0.26 M0.71 15.2 C6.08 8.76, 10.08 4.8, 13.84 0.1 M0.71 15.2 C4.1 10.05, 9.43 6.58, 13.84 0.1 M1.11 20.84 C5.89 14.29, 12.52 8.09, 18.82 0.46 M1.11 20.84 C4.92 16.78, 10.53 11.32, 18.82 0.46 M2.16 25.73 C10.83 17.2, 19.43 8.4, 24.47 0.07 M2.16 25.73 C10.19 15.09, 18.41 6.68, 24.47 0.07 M5.18 28.35 C11.47 23.82, 16.18 14.85, 29.45 0.43 M5.18 28.35 C13.51 17.89, 23.72 6.52, 29.45 0.43 M10.82 27.96 C17.31 19.79, 26.86 9.29, 35.1 0.03 M10.82 27.96 C19.32 18.16, 27.38 9.83, 35.1 0.03 M15.81 28.32 C21.07 21.3, 27.82 13.96, 40.08 0.39 M15.81 28.32 C21.97 21.22, 29.6 12.6, 40.08 0.39 M21.45 27.92 C29.52 19.41, 34.29 10.8, 45.73 0 M21.45 27.92 C27.58 19.29, 35.04 11.2, 45.73 0 M26.44 28.28 C30.45 22.29, 37.27 18.14, 50.71 0.36 M26.44 28.28 C31.39 21.7, 37.59 15.51, 50.71 0.36 M32.08 27.89 C36.75 19.85, 43.36 11.54, 56.36 -0.04 M32.08 27.89 C38.71 20.47, 46.54 11.63, 56.36 -0.04 M37.07 28.25 C41.65 22.22, 48.1 16, 61.34 0.32 M37.07 28.25 C44.74 19.86, 52.5 11.95, 61.34 0.32 M42.06 28.61 C49.4 21.4, 57.46 9.35, 66.33 0.68 M42.06 28.61 C49.36 20.04, 56.29 12.44, 66.33 0.68 M47.7 28.21 C56.26 16.82, 63.89 7.95, 71.97 0.29 M47.7 28.21 C56.26 18.23, 64.71 7.5, 71.97 0.29 M52.69 28.57 C58.76 20.11, 63.6 16.43, 76.96 0.65 M52.69 28.57 C59.15 21.39, 65.67 13.77, 76.96 0.65 M58.33 28.18 C68 17.77, 75.09 8.97, 82.6 0.25 M58.33 28.18 C64.88 20.23, 71.21 12.39, 82.6 0.25 M63.32 28.54 C72.91 19.28, 80.59 7.01, 87.59 0.61 M63.32 28.54 C70.95 20.5, 77.27 12.09, 87.59 0.61 M68.96 28.14 C74.15 20.39, 81.88 14, 93.23 0.22 M68.96 28.14 C74.47 20.96, 80.8 14.66, 93.23 0.22 M73.95 28.5 C83.88 18.43, 92.01 9.56, 97.56 1.33 M73.95 28.5 C82.21 18.33, 91.12 8.41, 97.56 1.33 M79.59 28.11 C85.22 20.74, 92.95 11.56, 100.58 3.96 M79.59 28.11 C85.74 20.13, 91.25 13.41, 100.58 3.96 M84.58 28.47 C89.5 20, 96.11 16.71, 100.32 10.36 M84.58 28.47 C90.12 23.14, 94.48 18.27, 100.32 10.36 M89.56 28.83 C91.5 24.01, 95.87 21.14, 100.72 16 M89.56 28.83 C93.65 23.12, 98.4 18.11, 100.72 16 M95.86 27.68 C96.7 26.94, 97.68 25.37, 100.45 22.4 M95.86 27.68 C96.93 26.28, 98.2 24.6, 100.45 22.4" stroke="#ffec99" stroke-width="0.5" fill="none"></path><path d="M7.11 0 C23.84 -1.66, 43.91 -2.13, 93.78 0 M7.11 0 C33.26 -0.04, 58.2 -0.22, 93.78 0 M93.78 0 C96.96 1.93, 99.76 1, 100.89 7.11 M93.78 0 C99.86 -1.21, 99.42 2.26, 100.89 7.11 M100.89 7.11 C100.55 11.49, 101.89 15.26, 100.89 21.33 M100.89 7.11 C101.14 12.53, 101.12 16.82, 100.89 21.33 M100.89 21.33 C99.4 26.95, 99.97 29.9, 93.78 28.44 M100.89 21.33 C103.01 27.25, 97.63 27.7, 93.78 28.44 M93.78 28.44 C66.34 28.34, 36.86 28.24, 7.11 28.44 M93.78 28.44 C59.86 29.47, 26.94 28.73, 7.11 28.44 M7.11 28.44 C2.6 28.71, -0.98 26.27, 0 21.33 M7.11 28.44 C2.28 27.38, -0.79 26.84, 0 21.33 M0 21.33 C0.19 15.13, 0.45 10.98, 0 7.11 M0 21.33 C-0.61 18.33, 0.09 13.61, 0 7.11 M0 7.11 C1.42 3.08, 2.48 -1.35, 7.11 0 M0 7.11 C0.97 4.47, 1.93 -0.84, 7.11 0" stroke="#ffec99" stroke-width="1" fill="none"></path></g><g stroke-linecap="round" transform="translate(556.8889236450195 182.3334503173828) rotate(0 50.4444580078125 14.222213745117188)"><path d="M1.89 1.65 C1.89 1.65, 1.89 1.65, 1.89 1.65 M1.89 1.65 C1.89 1.65, 1.89 1.65, 1.89 1.65 M1.63 8.04 C4.06 5.42, 5.81 3.29, 8.19 0.5 M1.63 8.04 C3.89 5.68, 5.73 3.21, 8.19 0.5 M1.37 14.44 C5.53 11.77, 7.99 5.72, 13.18 0.86 M1.37 14.44 C5.29 9.73, 8.45 6.68, 13.18 0.86 M1.76 20.08 C3.38 17.46, 9.36 12.1, 18.82 0.46 M1.76 20.08 C5.46 15, 9.9 10.06, 18.82 0.46 M2.16 25.73 C10.05 16.43, 17.25 11.2, 23.81 0.82 M2.16 25.73 C7.74 19.37, 13.97 11.94, 23.81 0.82 M4.52 29.11 C10.89 21.96, 17.04 14.75, 28.8 1.18 M4.52 29.11 C12.09 19.33, 20.56 11.21, 28.8 1.18 M10.16 28.71 C16.12 20.65, 24.49 12.56, 34.44 0.79 M10.16 28.71 C16.64 21.43, 24.88 12.13, 34.44 0.79 M15.15 29.07 C20.85 22.89, 27 12.7, 39.43 1.15 M15.15 29.07 C22.71 22.41, 28.77 14.56, 39.43 1.15 M20.8 28.68 C28.82 21.51, 36.57 13.06, 45.07 0.75 M20.8 28.68 C28.45 18.25, 38.39 8.38, 45.07 0.75 M25.78 29.04 C36.24 19.36, 42.3 9.28, 50.06 1.11 M25.78 29.04 C34.21 19.95, 41.78 9.69, 50.06 1.11 M31.43 28.64 C37.06 23.76, 40.35 17.03, 55.7 0.72 M31.43 28.64 C39.39 19.41, 48.82 7.79, 55.7 0.72 M36.41 29 C45.44 18.93, 54.17 6.85, 60.69 1.08 M36.41 29 C43.51 21.94, 49.09 14.57, 60.69 1.08 M42.06 28.61 C49.87 17.65, 57.62 9.83, 66.33 0.68 M42.06 28.61 C48.1 20.83, 54.72 12.05, 66.33 0.68 M47.04 28.97 C52.21 23.35, 59.19 15.73, 71.32 1.04 M47.04 28.97 C54.35 20.77, 62.06 10.32, 71.32 1.04 M52.03 29.33 C56.7 21.61, 61.14 17.08, 76.3 1.4 M52.03 29.33 C60.14 21.28, 66.82 11.57, 76.3 1.4 M57.67 28.93 C63.22 22.84, 68.53 17.25, 81.95 1.01 M57.67 28.93 C64.63 21.65, 72.07 13.12, 81.95 1.01 M62.66 29.29 C73.6 18.69, 79.66 8.41, 86.93 1.37 M62.66 29.29 C67.25 23.53, 72.82 17.41, 86.93 1.37 M68.3 28.9 C73.42 20.02, 81.06 15.64, 92.58 0.97 M68.3 28.9 C75.54 20.27, 82 11.91, 92.58 0.97 M73.29 29.26 C79.52 19.22, 90.54 10.41, 97.56 1.33 M73.29 29.26 C79.08 23.03, 84.44 15.66, 97.56 1.33 M78.93 28.86 C84.4 21.57, 91.48 13.78, 100.58 3.96 M78.93 28.86 C85.96 20.02, 93.11 13.4, 100.58 3.96 M83.92 29.22 C90.75 21.48, 94.58 17.33, 100.32 10.36 M83.92 29.22 C87.41 24.88, 90.6 20.64, 100.32 10.36 M89.56 28.83 C93.49 23.76, 98.65 19.4, 100.72 16 M89.56 28.83 C93.47 24.19, 98.16 19.47, 100.72 16 M94.55 29.19 C95.93 27.83, 97.83 26.32, 100.45 22.4 M94.55 29.19 C96.63 26.83, 98.82 24.07, 100.45 22.4" stroke="#ffec99" stroke-width="0.5" fill="none"></path><path d="M7.11 0 C27.79 -1.75, 51.19 0.88, 93.78 0 M7.11 0 C36.42 -0.48, 64.34 0.09, 93.78 0 M93.78 0 C98.81 0.35, 100.33 1.55, 100.89 7.11 M93.78 0 C98.57 0.2, 99.67 4.36, 100.89 7.11 M100.89 7.11 C101.33 13.32, 101.72 17.62, 100.89 21.33 M100.89 7.11 C100.82 10.12, 100.55 13.31, 100.89 21.33 M100.89 21.33 C99.36 25.02, 100.43 30.18, 93.78 28.44 M100.89 21.33 C100.25 25.62, 100.44 26.55, 93.78 28.44 M93.78 28.44 C70.26 26.08, 48.97 26.41, 7.11 28.44 M93.78 28.44 C72.63 27.67, 51.17 29.13, 7.11 28.44 M7.11 28.44 C1.32 27.24, 1.23 24.39, 0 21.33 M7.11 28.44 C2.18 29.21, 0.44 28.08, 0 21.33 M0 21.33 C-1.19 18.26, -0.87 11.46, 0 7.11 M0 21.33 C0.04 16.35, 0.7 10.71, 0 7.11 M0 7.11 C-0.65 2.23, 3.6 -1.14, 7.11 0 M0 7.11 C1.15 4.05, 2.99 0.48, 7.11 0" stroke="#ffec99" stroke-width="1" fill="none"></path></g><g stroke-linecap="round" transform="translate(558.2223281860352 108.77787780761719) rotate(0 50.4444580078125 14.222213745117188)"><path d="M1.89 1.65 C1.89 1.65, 1.89 1.65, 1.89 1.65 M1.89 1.65 C1.89 1.65, 1.89 1.65, 1.89 1.65 M1.63 8.04 C3.02 5.54, 4.26 3.44, 8.19 0.5 M1.63 8.04 C2.81 5.95, 4.66 4.76, 8.19 0.5 M1.37 14.44 C2.85 10.5, 7.33 7.29, 13.18 0.86 M1.37 14.44 C5.55 10.57, 8.68 6.44, 13.18 0.86 M1.76 20.08 C3.99 16.99, 8.09 10.19, 18.82 0.46 M1.76 20.08 C6.16 13.82, 11.73 8.96, 18.82 0.46 M2.16 25.73 C7.84 19.93, 13.81 13.83, 23.81 0.82 M2.16 25.73 C8.8 19.77, 14.73 12.96, 23.81 0.82 M4.52 29.11 C10.19 23.55, 19.01 13.53, 28.8 1.18 M4.52 29.11 C12.9 19.48, 21.66 8.54, 28.8 1.18 M10.16 28.71 C15.72 21.78, 20.81 16.74, 34.44 0.79 M10.16 28.71 C17.15 21.31, 22.17 14.58, 34.44 0.79 M15.15 29.07 C19.8 21.66, 28.14 13.94, 39.43 1.15 M15.15 29.07 C24.98 19.14, 33.45 7.6, 39.43 1.15 M20.8 28.68 C28.11 19.73, 35.67 10.26, 45.07 0.75 M20.8 28.68 C28.83 19.32, 38.75 8.79, 45.07 0.75 M25.78 29.04 C32.41 22.77, 36.86 13.37, 50.06 1.11 M25.78 29.04 C32.19 21.56, 38.62 14.59, 50.06 1.11 M31.43 28.64 C38.57 19.76, 48.87 9.37, 55.7 0.72 M31.43 28.64 C37.46 21.88, 43.53 14.7, 55.7 0.72 M36.41 29 C46.82 20.28, 53.29 8.92, 60.69 1.08 M36.41 29 C46.82 17.39, 55.21 6.54, 60.69 1.08 M42.06 28.61 C48.7 23.11, 53.1 17.3, 66.33 0.68 M42.06 28.61 C49.84 20.73, 57.06 12.61, 66.33 0.68 M47.04 28.97 C54.71 20.35, 63.57 9.71, 71.32 1.04 M47.04 28.97 C56.25 17.76, 65.36 8.84, 71.32 1.04 M52.03 29.33 C62.88 16.78, 71.52 5.5, 76.3 1.4 M52.03 29.33 C58.05 22.23, 63.06 17.67, 76.3 1.4 M57.67 28.93 C66.63 20.77, 70.66 14.26, 81.95 1.01 M57.67 28.93 C67.1 18.12, 75.51 7.88, 81.95 1.01 M62.66 29.29 C69.77 21.16, 76.41 14.13, 86.93 1.37 M62.66 29.29 C71.15 18.35, 81.28 7.33, 86.93 1.37 M68.3 28.9 C77.37 16.9, 84.59 6.82, 92.58 0.97 M68.3 28.9 C74.24 23.25, 79.06 16.05, 92.58 0.97 M73.29 29.26 C82.03 19.63, 86.31 12.09, 97.56 1.33 M73.29 29.26 C82.12 17.77, 92.39 7.6, 97.56 1.33 M78.93 28.86 C86.45 20.97, 90.73 11.86, 100.58 3.96 M78.93 28.86 C83.28 23.98, 87.81 18.68, 100.58 3.96 M83.92 29.22 C90.79 24.18, 95.06 18.35, 100.32 10.36 M83.92 29.22 C87.35 24.42, 90.92 20.04, 100.32 10.36 M89.56 28.83 C93.98 23.79, 97.71 20.09, 100.72 16 M89.56 28.83 C92.55 24.77, 97.44 20.39, 100.72 16 M94.55 29.19 C95.38 27, 96.47 26.65, 100.45 22.4 M94.55 29.19 C96.05 27.61, 97.82 24.97, 100.45 22.4" stroke="#ffec99" stroke-width="0.5" fill="none"></path><path d="M7.11 0 C31.44 -1.58, 50.81 1.32, 93.78 0 M7.11 0 C26.11 0.72, 46.16 0.62, 93.78 0 M93.78 0 C97.33 -1.39, 102.27 0.71, 100.89 7.11 M93.78 0 C96.96 -0.45, 99.71 3.17, 100.89 7.11 M100.89 7.11 C100.44 9.05, 100.74 11.77, 100.89 21.33 M100.89 7.11 C100.83 10.17, 101.44 14.33, 100.89 21.33 M100.89 21.33 C102.02 26.78, 98.29 29.75, 93.78 28.44 M100.89 21.33 C100.03 26.09, 100.2 26.96, 93.78 28.44 M93.78 28.44 C70.57 28.87, 45.24 27.04, 7.11 28.44 M93.78 28.44 C74.11 27.97, 55.99 27.23, 7.11 28.44 M7.11 28.44 C3.39 26.95, 1.11 24.4, 0 21.33 M7.11 28.44 C1.27 26.54, -0.63 24.72, 0 21.33 M0 21.33 C0.45 17.64, -0.51 16.18, 0 7.11 M0 21.33 C0.19 18.29, -0.11 14.71, 0 7.11 M0 7.11 C0.04 2.54, 1.31 1.73, 7.11 0 M0 7.11 C1.43 3.96, 1.94 0.56, 7.11 0" stroke="#ffec99" stroke-width="1" fill="none"></path></g><g stroke-linecap="round" transform="translate(558.0000686645508 70.22232055664062) rotate(0 50.4444580078125 14.222213745117188)"><path d="M1.89 1.65 C1.89 1.65, 1.89 1.65, 1.89 1.65 M1.89 1.65 C1.89 1.65, 1.89 1.65, 1.89 1.65 M0.98 8.8 C2.8 5, 5.58 2.07, 8.85 -0.26 M0.98 8.8 C3.16 6.8, 4.51 4.21, 8.85 -0.26 M0.71 15.2 C4.86 10.46, 10.06 4.51, 13.84 0.1 M0.71 15.2 C3.58 12.14, 8.14 8.05, 13.84 0.1 M1.11 20.84 C7.07 15.26, 9.35 7.97, 18.82 0.46 M1.11 20.84 C7.68 12.92, 14.2 4.39, 18.82 0.46 M2.16 25.73 C10.36 17.31, 17.94 4.72, 24.47 0.07 M2.16 25.73 C7.37 19.51, 13.24 12.14, 24.47 0.07 M5.18 28.35 C8.38 22.29, 16.47 15.41, 29.45 0.43 M5.18 28.35 C10.74 22.2, 16.83 16.05, 29.45 0.43 M10.82 27.96 C16.71 21.17, 24.74 9.13, 35.1 0.03 M10.82 27.96 C19.61 18.26, 29.24 7.49, 35.1 0.03 M15.81 28.32 C21.18 21.7, 30.27 13.77, 40.08 0.39 M15.81 28.32 C23.07 18.57, 31.65 11.08, 40.08 0.39 M21.45 27.92 C29.47 16.75, 40.02 6.21, 45.73 0 M21.45 27.92 C31.4 16.6, 41.01 5.45, 45.73 0 M26.44 28.28 C34.38 16.4, 45.79 6.79, 50.71 0.36 M26.44 28.28 C32.04 20.94, 38.94 15, 50.71 0.36 M32.08 27.89 C37.63 20.73, 45.96 11.43, 56.36 -0.04 M32.08 27.89 C38.98 20.86, 43.7 14.2, 56.36 -0.04 M37.07 28.25 C46.04 20.87, 52.96 8.94, 61.34 0.32 M37.07 28.25 C45.7 18.22, 53.61 9.25, 61.34 0.32 M42.06 28.61 C49.46 19.77, 58.3 9.81, 66.33 0.68 M42.06 28.61 C50.64 19.09, 59.66 8.81, 66.33 0.68 M47.7 28.21 C55.48 21.71, 61.14 11.14, 71.97 0.29 M47.7 28.21 C55.06 19.39, 62.97 9.86, 71.97 0.29 M52.69 28.57 C61.3 18.78, 66.7 12.88, 76.96 0.65 M52.69 28.57 C62.2 18.76, 69.37 9.84, 76.96 0.65 M58.33 28.18 C62.45 20.38, 71.71 16.22, 82.6 0.25 M58.33 28.18 C65.8 19.73, 73.8 11.26, 82.6 0.25 M63.32 28.54 C72.83 18.1, 78.36 7.89, 87.59 0.61 M63.32 28.54 C73.59 18.29, 83.03 7.33, 87.59 0.61 M68.96 28.14 C76.01 20.69, 79.83 16.82, 93.23 0.22 M68.96 28.14 C73.7 21.4, 80.12 16.1, 93.23 0.22 M73.95 28.5 C78.64 24.41, 81.99 19.26, 97.56 1.33 M73.95 28.5 C81.89 20.06, 88.12 12.44, 97.56 1.33 M79.59 28.11 C84.46 20.64, 91.52 16.23, 100.58 3.96 M79.59 28.11 C86.58 21.46, 91.83 13.17, 100.58 3.96 M84.58 28.47 C90.6 21.75, 92.6 17.74, 100.32 10.36 M84.58 28.47 C87.27 24.19, 91.06 21.3, 100.32 10.36 M89.56 28.83 C93.73 23.58, 97.2 20.34, 100.72 16 M89.56 28.83 C92.64 25.47, 93.97 22.93, 100.72 16 M95.86 27.68 C96.97 26.18, 98.49 25.5, 100.45 22.4 M95.86 27.68 C96.89 25.98, 98.59 24.6, 100.45 22.4" stroke="#ffec99" stroke-width="0.5" fill="none"></path><path d="M7.11 0 C30.34 -1.24, 51.62 2.34, 93.78 0 M7.11 0 C31.45 1.26, 53.54 0.66, 93.78 0 M93.78 0 C97.85 0.28, 100.89 1.75, 100.89 7.11 M93.78 0 C98.56 -1.87, 101.02 0.48, 100.89 7.11 M100.89 7.11 C101.72 10.31, 100.37 15.94, 100.89 21.33 M100.89 7.11 C100.32 11.64, 100.53 14.65, 100.89 21.33 M100.89 21.33 C102.39 26.45, 100.05 28.03, 93.78 28.44 M100.89 21.33 C100.08 26.55, 100.05 27.27, 93.78 28.44 M93.78 28.44 C63.15 30.1, 31.07 27.03, 7.11 28.44 M93.78 28.44 C62.22 27.68, 31.37 27.91, 7.11 28.44 M7.11 28.44 C3.64 27.26, -1.39 27.46, 0 21.33 M7.11 28.44 C0.46 26.89, -0.45 24.9, 0 21.33 M0 21.33 C-0.45 16.15, -0.98 11.69, 0 7.11 M0 21.33 C-0.5 18.39, -0.55 16.16, 0 7.11 M0 7.11 C-0.32 3.51, 3.08 -0.23, 7.11 0 M0 7.11 C1.5 1.51, 2.38 1.68, 7.11 0" stroke="#ffec99" stroke-width="1" fill="none"></path></g><g stroke-linecap="round" transform="translate(10 58.2222900390625) rotate(0 112.22218322753906 165.77779388427732)"><path d="M32 0 C73.02 -2, 114.06 0.7, 192.44 0 M32 0 C95.65 -0.57, 159.75 -0.66, 192.44 0 M192.44 0 C215.55 -0.07, 225.19 9.74, 224.44 32 M192.44 0 C213.25 -0.23, 226.49 9.19, 224.44 32 M224.44 32 C226.27 131.09, 226.17 228.55, 224.44 299.56 M224.44 32 C226.23 127, 225.35 221.76, 224.44 299.56 M224.44 299.56 C224.05 321.73, 212.81 330.52, 192.44 331.56 M224.44 299.56 C225.69 319.24, 215.55 331.27, 192.44 331.56 M192.44 331.56 C131.22 330.37, 71.9 331.47, 32 331.56 M192.44 331.56 C154.46 332.7, 117.62 333.07, 32 331.56 M32 331.56 C12.34 332.49, -1.31 319.57, 0 299.56 M32 331.56 C10.78 331.6, -1.25 321.53, 0 299.56 M0 299.56 C2.43 236.58, 1.12 174.87, 0 32 M0 299.56 C-1.26 233.07, -0.6 167, 0 32 M0 32 C-1.02 11.41, 10.45 -1.92, 32 0 M0 32 C-0.67 11.52, 9.71 1.88, 32 0" stroke="#1971c2" stroke-width="1" fill="none"></path></g><g transform="translate(28.222259521484375 68.77777099609375) rotate(0 38.863983154296875 17.5)"><text x="0" y="0" font-family="Virgil, Segoe UI Emoji" font-size="28px" fill="#1971c2" text-anchor="start" style="white-space: pre;" direction="ltr" dominant-baseline="text-before-edge">Event</text></g><g transform="translate(28.2222900390625 133.3333282470703) rotate(0 85.46991729736328 125)"><text x="0" y="0" font-family="Virgil, Segoe UI Emoji" font-size="20px" fill="#1971c2" text-anchor="start" style="white-space: pre;" direction="ltr" dominant-baseline="text-before-edge">Start</text><text x="0" y="25" font-family="Virgil, Segoe UI Emoji" font-size="20px" fill="#1971c2" text-anchor="start" style="white-space: pre;" direction="ltr" dominant-baseline="text-before-edge">End</text><text x="0" y="50" font-family="Virgil, Segoe UI Emoji" font-size="20px" fill="#1971c2" text-anchor="start" style="white-space: pre;" direction="ltr" dominant-baseline="text-before-edge"></text><text x="0" y="75" font-family="Virgil, Segoe UI Emoji" font-size="20px" fill="#1971c2" text-anchor="start" style="white-space: pre;" direction="ltr" dominant-baseline="text-before-edge">Class(es)</text><text x="0" y="100" font-family="Virgil, Segoe UI Emoji" font-size="20px" fill="#1971c2" text-anchor="start" style="white-space: pre;" direction="ltr" dominant-baseline="text-before-edge">Department(s)</text><text x="0" y="125" font-family="Virgil, Segoe UI Emoji" font-size="20px" fill="#1971c2" text-anchor="start" style="white-space: pre;" direction="ltr" dominant-baseline="text-before-edge"></text><text x="0" y="150" font-family="Virgil, Segoe UI Emoji" font-size="20px" fill="#1971c2" text-anchor="start" style="white-space: pre;" direction="ltr" dominant-baseline="text-before-edge">Teachers Only?</text><text x="0" y="175" font-family="Virgil, Segoe UI Emoji" font-size="20px" fill="#1971c2" text-anchor="start" style="white-space: pre;" direction="ltr" dominant-baseline="text-before-edge">    KLPs Only?</text><text x="0" y="200" font-family="Virgil, Segoe UI Emoji" font-size="20px" fill="#1971c2" text-anchor="start" style="white-space: pre;" direction="ltr" dominant-baseline="text-before-edge">    Subject?</text><text x="0" y="225" font-family="Virgil, Segoe UI Emoji" font-size="20px" fill="#1971c2" text-anchor="start" style="white-space: pre;" direction="ltr" dominant-baseline="text-before-edge">Affects Lessons?</text></g><g stroke-linecap="round" transform="translate(420.2223815917969 68.22224426269531) rotate(0 144.888916015625 16.666656494140625)"><path d="M8.33 0 C78.2 -0.89, 148.94 1.21, 281.44 0 M8.33 0 C78.84 1.85, 150.52 0.62, 281.44 0 M281.44 0 C287.05 -0.16, 290.61 2.01, 289.78 8.33 M281.44 0 C287.2 -0.15, 291.53 0.88, 289.78 8.33 M289.78 8.33 C290.65 12.12, 288.19 16.77, 289.78 25 M289.78 8.33 C289.89 14.48, 289.48 20.99, 289.78 25 M289.78 25 C288.29 32.4, 286.42 31.77, 281.44 33.33 M289.78 25 C289.96 30.38, 287.65 32.37, 281.44 33.33 M281.44 33.33 C216.41 34.76, 149.89 34.36, 8.33 33.33 M281.44 33.33 C208.1 33.73, 134.98 33.73, 8.33 33.33 M8.33 33.33 C2.84 31.66, 0.67 32.55, 0 25 M8.33 33.33 C3 35.49, 1.8 31.5, 0 25 M0 25 C-1.22 22.77, 0.26 17, 0 8.33 M0 25 C-0.22 18.51, 0.41 12.22, 0 8.33 M0 8.33 C0.27 1.81, 1.88 -1.41, 8.33 0 M0 8.33 C-0.05 2.01, 2.36 -1, 8.33 0" stroke="#1e1e1e" stroke-width="1" fill="none"></path></g><g transform="translate(427.7779846191406 75.16671752929688) rotate(0 137.13592529296875 10)"><text x="0" y="0" font-family="Virgil, Segoe UI Emoji" font-size="16px" fill="#1e1e1e" text-anchor="start" style="white-space: pre;" direction="ltr" dominant-baseline="text-before-edge">25Gh / Math / 08:25-09:10 / xyz</text></g><g stroke-linecap="round" transform="translate(421.4445495605469 106.55555725097656) rotate(0 144.888916015625 16.666656494140625)"><path d="M8.33 0 C68.29 -0.59, 125.78 -0.7, 281.44 0 M8.33 0 C95.74 0.49, 181.98 0.95, 281.44 0 M281.44 0 C286.24 1.75, 291.65 4.35, 289.78 8.33 M281.44 0 C285.93 -0.21, 291.44 2.58, 289.78 8.33 M289.78 8.33 C289.34 13.35, 288.77 15.87, 289.78 25 M289.78 8.33 C289.76 13.43, 289.6 19.42, 289.78 25 M289.78 25 C291.74 29.21, 288.94 33.42, 281.44 33.33 M289.78 25 C289.34 29.12, 286.16 33.33, 281.44 33.33 M281.44 33.33 C213.82 32.08, 144.35 33.16, 8.33 33.33 M281.44 33.33 C185.61 32.42, 89.84 31.36, 8.33 33.33 M8.33 33.33 C3.1 34.17, 0.88 28.72, 0 25 M8.33 33.33 C4.8 34.79, 2.21 32.25, 0 25 M0 25 C-0.62 21.68, 0.54 17.21, 0 8.33 M0 25 C-0.25 19.51, 0.51 14.98, 0 8.33 M0 8.33 C0.02 2.17, 1.77 0.72, 8.33 0 M0 8.33 C-2.26 2.15, 4.96 -1.4, 8.33 0" stroke="#1e1e1e" stroke-width="1" fill="none"></path></g><g transform="translate(424.5556945800781 115.27780151367188) rotate(0 140.70391845703125 10)"><text x="0" y="0" font-family="Virgil, Segoe UI Emoji" font-size="16px" fill="#1e1e1e" text-anchor="start" style="white-space: pre;" direction="ltr" dominant-baseline="text-before-edge">25mT / Franz / 08:25-09:10 / abc</text></g><g stroke-linecap="round" transform="translate(423.3334045410156 179.55557250976562) rotate(0 144.888916015625 16.666656494140625)"><path d="M8.33 0 C107.22 -0.94, 204.8 -0.12, 281.44 0 M8.33 0 C71.34 0.88, 135.67 0.81, 281.44 0 M281.44 0 C286.07 -0.18, 291.23 2.61, 289.78 8.33 M281.44 0 C285.07 1.42, 288.94 2.04, 289.78 8.33 M289.78 8.33 C289.85 14.02, 288.9 21.27, 289.78 25 M289.78 8.33 C290.57 12.59, 290.56 18, 289.78 25 M289.78 25 C289.39 29.31, 286.27 33.33, 281.44 33.33 M289.78 25 C288.67 32.01, 285.32 35.08, 281.44 33.33 M281.44 33.33 C195.02 35.26, 106 35.39, 8.33 33.33 M281.44 33.33 C183.87 32, 86.4 30.96, 8.33 33.33 M8.33 33.33 C4.54 34.6, 1.92 32.02, 0 25 M8.33 33.33 C2.12 33.28, 1.12 29.69, 0 25 M0 25 C-0.34 18.08, -0.55 11.94, 0 8.33 M0 25 C-0.08 21.31, -0.51 18.42, 0 8.33 M0 8.33 C-1.97 2.23, 4.68 -1.21, 8.33 0 M0 8.33 C1.85 2.32, 0.49 2.22, 8.33 0" stroke="#1e1e1e" stroke-width="1" fill="none"></path></g><g transform="translate(434.0001525878906 188.72227478027344) rotate(0 130.01593017578125 10)"><text x="0" y="0" font-family="Virgil, Segoe UI Emoji" font-size="16px" fill="#1e1e1e" text-anchor="start" style="white-space: pre;" direction="ltr" dominant-baseline="text-before-edge">26Ge / Info / 08:25-09:10 / jkl</text></g><g stroke-linecap="round" transform="translate(423.5556335449219 220.33334350585938) rotate(0 144.888916015625 16.666656494140625)"><path d="M8.33 0 C93 -1.66, 179.65 -2.01, 281.44 0 M8.33 0 C113.79 -1.75, 220.54 -1.74, 281.44 0 M281.44 0 C285.32 1.23, 289.05 2.13, 289.78 8.33 M281.44 0 C288.95 -1.53, 290.24 3.03, 289.78 8.33 M289.78 8.33 C289.52 12.4, 291.13 18.51, 289.78 25 M289.78 8.33 C289.78 11.69, 289.63 16.08, 289.78 25 M289.78 25 C288.82 31.82, 285.54 34.85, 281.44 33.33 M289.78 25 C290.22 31.33, 289.04 34.51, 281.44 33.33 M281.44 33.33 C199.83 34.03, 115.2 33.81, 8.33 33.33 M281.44 33.33 C188.8 31.87, 95.54 31.95, 8.33 33.33 M8.33 33.33 C2.21 33.29, 0.97 29.8, 0 25 M8.33 33.33 C4.44 34.08, 1.73 30.16, 0 25 M0 25 C-1.51 21.6, -1.15 16.45, 0 8.33 M0 25 C-0.74 20.28, 0.88 15.5, 0 8.33 M0 8.33 C1.61 2.38, 0.79 1.93, 8.33 0 M0 8.33 C-0.78 3.22, 3.63 1.84, 8.33 0" stroke="#1e1e1e" stroke-width="1" fill="none"></path></g><g transform="translate(432.4444885253906 227.2777862548828) rotate(0 137.15191650390625 10)"><text x="0" y="0" font-family="Virgil, Segoe UI Emoji" font-size="16px" fill="#1e1e1e" text-anchor="start" style="white-space: pre;" direction="ltr" dominant-baseline="text-before-edge">26mP / Musik / 08:25-09:10 / fgh</text></g><g stroke-linecap="round" transform="translate(424.6667785644531 261.66668701171875) rotate(0 144.888916015625 16.666656494140625)"><path d="M8.33 0 C87.41 2.27, 165 0.09, 281.44 0 M8.33 0 C87.11 0.66, 166.9 -0.07, 281.44 0 M281.44 0 C288.7 -1.33, 290.18 3, 289.78 8.33 M281.44 0 C286 -1.05, 289.93 2.52, 289.78 8.33 M289.78 8.33 C288.8 14.74, 289.99 17.6, 289.78 25 M289.78 8.33 C289.32 12.82, 289.11 16.88, 289.78 25 M289.78 25 C290.17 31.23, 288.78 34.36, 281.44 33.33 M289.78 25 C289.83 29.08, 287.25 34.66, 281.44 33.33 M281.44 33.33 C191.93 34.36, 99.69 35.04, 8.33 33.33 M281.44 33.33 C181.93 34.88, 83.24 34.6, 8.33 33.33 M8.33 33.33 C4.22 33.98, 1.51 30.21, 0 25 M8.33 33.33 C1.79 32.65, -0.9 28.4, 0 25 M0 25 C-0.38 18.27, 0.72 11.59, 0 8.33 M0 25 C0.51 20.29, -0.99 16.71, 0 8.33 M0 8.33 C-0.68 3.16, 3.52 1.6, 8.33 0 M0 8.33 C2.24 2.39, 1.32 1.78, 8.33 0" stroke="#1e1e1e" stroke-width="1" fill="none"></path></g><g transform="translate(434.0000915527344 268.61119079589844) rotate(0 134.52792358398438 10)"><text x="0" y="0" font-family="Virgil, Segoe UI Emoji" font-size="16px" fill="#1e1e1e" text-anchor="start" style="white-space: pre;" direction="ltr" dominant-baseline="text-before-edge">26Wa / EWR / 08:25-09:10 / qrs</text></g><g stroke-linecap="round" transform="translate(427.5001525878906 339.7222595214844) rotate(0 144.888916015625 16.666656494140625)"><path d="M8.33 0 C115.68 2.11, 223.19 -0.32, 281.44 0 M8.33 0 C107.74 0.17, 205.97 0.77, 281.44 0 M281.44 0 C286.13 -0.92, 289.91 2.56, 289.78 8.33 M281.44 0 C286.71 1.98, 292.03 1.23, 289.78 8.33 M289.78 8.33 C288.74 14.34, 289.78 20.76, 289.78 25 M289.78 8.33 C289.82 14.67, 290.4 20.87, 289.78 25 M289.78 25 C289.82 29.27, 287.22 34.49, 281.44 33.33 M289.78 25 C290.47 28.76, 287.37 34.29, 281.44 33.33 M281.44 33.33 C188.43 36.7, 94.59 34.76, 8.33 33.33 M281.44 33.33 C200.73 32.78, 119.47 32.4, 8.33 33.33 M8.33 33.33 C1.92 32.74, -0.78 28.68, 0 25 M8.33 33.33 C4 31.68, 0.02 29.86, 0 25 M0 25 C-0.51 22.43, -1.07 18.03, 0 8.33 M0 25 C-0.12 20.5, 0.47 16.34, 0 8.33 M0 8.33 C1.95 2.44, 1.51 1.55, 8.33 0 M0 8.33 C0.58 1.13, 4.92 -0.24, 8.33 0" stroke="#1e1e1e" stroke-width="1" fill="none"></path></g><g transform="translate(437.7223815917969 348.00010681152344) rotate(0 123.06392669677734 10)"><text x="0" y="0" font-family="Virgil, Segoe UI Emoji" font-size="16px" fill="#1e1e1e" text-anchor="start" style="white-space: pre;" direction="ltr" dominant-baseline="text-before-edge">25Gh / Info / 10:25-11:15 / xyz</text></g><g stroke-linecap="round" transform="translate(428.7223205566406 378.0555725097656) rotate(0 144.888916015625 16.666656494140625)"><path d="M8.33 0 C111 1.22, 211.26 3.1, 281.44 0 M8.33 0 C71.74 -0.59, 135.88 -0.32, 281.44 0 M281.44 0 C286.75 1.72, 291.74 1.43, 289.78 8.33 M281.44 0 C289.23 0.1, 289.34 1.34, 289.78 8.33 M289.78 8.33 C290.83 11.5, 291.04 17.43, 289.78 25 M289.78 8.33 C289.94 13.36, 290.02 19.93, 289.78 25 M289.78 25 C290.38 29, 287.32 34.17, 281.44 33.33 M289.78 25 C290.79 28.44, 289.02 34.79, 281.44 33.33 M281.44 33.33 C173.23 33.48, 64.5 33.85, 8.33 33.33 M281.44 33.33 C190.34 32.73, 99.61 32.24, 8.33 33.33 M8.33 33.33 C3.84 31.89, 0.02 29.95, 0 25 M8.33 33.33 C1.61 34.16, -2.26 29.93, 0 25 M0 25 C-0.23 16.76, 1.71 11.27, 0 8.33 M0 25 C0.75 19.54, -0.59 15, 0 8.33 M0 8.33 C0.5 1.34, 4.64 -0.21, 8.33 0 M0 8.33 C0.23 2.2, 1.86 -1.59, 8.33 0" stroke="#1e1e1e" stroke-width="1" fill="none"></path></g><g transform="translate(439.3888854980469 386.33335876464844) rotate(0 126.6639175415039 10)"><text x="0" y="0" font-family="Virgil, Segoe UI Emoji" font-size="16px" fill="#1e1e1e" text-anchor="start" style="white-space: pre;" direction="ltr" dominant-baseline="text-before-edge">25mT / Physik / 10:25-11:15 / jkl</text></g><g transform="translate(423.7778015136719 16.722213745117188) rotate(0 53.14397430419922 17.5)"><text x="0" y="0" font-family="Virgil, Segoe UI Emoji" font-size="28px" fill="#1e1e1e" text-anchor="start" style="white-space: pre;" direction="ltr" dominant-baseline="text-before-edge">Lessons</text></g><g stroke-linecap="round" transform="translate(410.4445495605469 10) rotate(0 156.66668701171875 220.88888549804688)"><path d="M32 0 C111.93 1.63, 197.4 1.19, 281.33 0 M32 0 C109.12 -5.3, 188.38 -5.29, 281.33 0 M281.33 0 C303.35 1, 310.59 11.97, 313.33 32 M281.33 0 C302.02 2.85, 310.5 8.58, 313.33 32 M313.33 32 C311.98 176.94, 308.73 318.7, 313.33 409.78 M313.33 32 C312.47 158.17, 312.61 281.59, 313.33 409.78 M313.33 409.78 C314.5 430.9, 306.02 441.03, 281.33 441.78 M313.33 409.78 C315.22 427.87, 305.64 437.93, 281.33 441.78 M281.33 441.78 C198.03 442.43, 112.52 444.61, 32 441.78 M281.33 441.78 C201.95 444.24, 124.65 443.87, 32 441.78 M32 441.78 C14.17 445.52, 3.15 429.25, 0 409.78 M32 441.78 C10.24 445.11, -0.4 427.25, 0 409.78 M0 409.78 C3.72 271.59, 2.15 136.88, 0 32 M0 409.78 C1.95 312.8, 3.12 217.3, 0 32 M0 32 C-2.7 14.54, 10.84 -0.77, 32 0 M0 32 C-2.88 8.98, 10.65 -2.21, 32 0" stroke="#1e1e1e" stroke-width="1" fill="none"></path></g><g stroke-linecap="round" transform="translate(757.5555725097656 10.88885498046875) rotate(0 81.26615535684721 224.88888549804688)"><path d="M32 0 C55.34 2.89, 75.78 -1.45, 130.53 0 M32 0 C65.34 3.27, 97.88 0.24, 130.53 0 M130.53 0 C152.14 0, 163.04 10.66, 162.53 32 M130.53 0 C147.74 0.71, 160.14 7.71, 162.53 32 M162.53 32 C158.19 158.39, 159.45 285.48, 162.53 417.78 M162.53 32 C159.32 115.52, 159.37 198.89, 162.53 417.78 M162.53 417.78 C164.61 437.46, 153.27 452.42, 130.53 449.78 M162.53 417.78 C159.58 438.09, 151.09 451.79, 130.53 449.78 M130.53 449.78 C94.03 446.47, 59.37 444.82, 32 449.78 M130.53 449.78 C92.85 446.89, 53.26 446.91, 32 449.78 M32 449.78 C6.93 453.32, -0.62 435.66, 0 417.78 M32 449.78 C10.05 448.16, -3.65 439.37, 0 417.78 M0 417.78 C-5.67 328.06, -4.18 240.4, 0 32 M0 417.78 C2.64 277.4, 2.04 137.67, 0 32 M0 32 C-3.26 9.47, 7.92 0.2, 32 0 M0 32 C-3.59 6.29, 9.45 -4.59, 32 0" stroke="#1e1e1e" stroke-width="1" fill="none"></path></g><g transform="translate(772.9846309374414 22.812394759691742) rotate(0 63.09059143066406 17.3961440132727)"><text x="0" y="0" font-family="Virgil, Segoe UI Emoji" font-size="27.83383042123632px" fill="#1e1e1e" text-anchor="start" style="white-space: pre;" direction="ltr" dominant-baseline="text-before-edge">Teachers</text></g><g stroke-linecap="round" transform="translate(781.5556945800781 222.888916015625) rotate(0 58.00006103515625 14.22222900390625)"><path d="M7.11 0 C48.39 -1.14, 87.17 -0.76, 108.89 0 M7.11 0 C29.6 1.09, 51.55 0.87, 108.89 0 M108.89 0 C112.89 -0.05, 116.53 1.43, 116 7.11 M108.89 0 C112 -1.81, 116.36 1.01, 116 7.11 M116 7.11 C114.9 9.62, 116.18 15.37, 116 21.33 M116 7.11 C115.56 12.37, 115.66 17.58, 116 21.33 M116 21.33 C117.18 27.14, 114.5 28.75, 108.89 28.44 M116 21.33 C114.57 27.11, 112.76 28.2, 108.89 28.44 M108.89 28.44 C78.95 27.16, 44.18 29.75, 7.11 28.44 M108.89 28.44 C85.35 28.07, 63.42 27.94, 7.11 28.44 M7.11 28.44 C0.46 29.16, 1.39 26.69, 0 21.33 M7.11 28.44 C0.48 28.6, 0 26.36, 0 21.33 M0 21.33 C-0.61 16.15, 0.55 11.65, 0 7.11 M0 21.33 C0.22 15.48, -0.56 9.68, 0 7.11 M0 7.11 C1.19 2.94, 3.06 0.66, 7.11 0 M0 7.11 C1.32 3.56, 1.42 0.81, 7.11 0" stroke="#2f9e44" stroke-width="4" fill="none"></path></g><g transform="translate(788.6667785644531 76.16668701171875) rotate(0 30.00798797607422 10)"><text x="0" y="0" font-family="Virgil, Segoe UI Emoji" font-size="16px" fill="#1e1e1e" text-anchor="start" style="white-space: pre;" direction="ltr" dominant-baseline="text-before-edge">abc / F</text></g><g transform="translate(791.1111755371094 116.05557250976562) rotate(0 34.519981384277344 10)"><text x="0" y="0" font-family="Virgil, Segoe UI Emoji" font-size="16px" fill="#1e1e1e" text-anchor="start" style="white-space: pre;" direction="ltr" dominant-baseline="text-before-edge">fgh / Mu</text></g><g transform="translate(791.6668395996094 155.05555725097656) rotate(0 43.95196533203125 10)"><text x="0" y="0" font-family="Virgil, Segoe UI Emoji" font-size="16px" fill="#1e1e1e" text-anchor="start" style="white-space: pre;" direction="ltr" dominant-baseline="text-before-edge">jkl / Inf, P</text></g><g transform="translate(793.4445495605469 192.61114501953125) rotate(0 40.93597412109375 10)"><text x="0" y="0" font-family="Virgil, Segoe UI Emoji" font-size="16px" fill="#1e1e1e" text-anchor="start" style="white-space: pre;" direction="ltr" dominant-baseline="text-before-edge">qrs / EWR</text></g><g transform="translate(795.3334655761719 228.8333740234375) rotate(0 48.991973876953125 10)"><text x="0" y="0" font-family="Virgil, Segoe UI Emoji" font-size="16px" fill="#1e1e1e" text-anchor="start" style="white-space: pre;" direction="ltr" dominant-baseline="text-before-edge">xyz / M, Inf</text></g><g stroke-linecap="round" transform="translate(954.2223205566406 12.22222900390625) rotate(0 129.5555419921875 226)"><path d="M32 0 C91.44 1.44, 154.66 4.85, 227.11 0 M32 0 C94.6 -3.42, 156.59 -3.34, 227.11 0 M227.11 0 C246.93 3.19, 261.18 14.59, 259.11 32 M227.11 0 C247.94 -3.61, 256.6 8.6, 259.11 32 M259.11 32 C258.83 119.04, 260.01 202.58, 259.11 420 M259.11 32 C259.3 182.47, 258.82 332.58, 259.11 420 M259.11 420 C262.18 444.52, 250.89 451.59, 227.11 452 M259.11 420 C261.65 441.31, 245.9 455.81, 227.11 452 M227.11 452 C171.64 455.88, 108.99 454.25, 32 452 M227.11 452 C168.08 454.23, 108.69 454.07, 32 452 M32 452 C7.58 455.45, -2.37 444.46, 0 420 M32 452 C12.88 447.78, 4.46 437.49, 0 420 M0 420 C0.3 310.95, 3.83 196.34, 0 32 M0 420 C-0.7 314.43, 0.95 211.13, 0 32 M0 32 C1.43 14.19, 8.13 -1.49, 32 0 M0 32 C0.34 7.13, 11.61 -1.27, 32 0" stroke="#1e1e1e" stroke-width="1" fill="none"></path></g><g transform="translate(972.8890686035156 24.72222900390625) rotate(0 52.49998474121094 17.5)"><text x="0" y="0" font-family="Virgil, Segoe UI Emoji" font-size="28px" fill="#1e1e1e" text-anchor="start" style="white-space: pre;" direction="ltr" dominant-baseline="text-before-edge">Classes</text></g><g stroke-linecap="round" transform="translate(973.3334045410156 71.77777099609375) rotate(0 110.66668701171875 12.666671752929688)"><path d="M6.33 0 C54.34 0.23, 104.57 -0.93, 215 0 M6.33 0 C69.11 -1.57, 133.7 -2.1, 215 0 M215 0 C217.43 1.54, 222.36 3.57, 221.33 6.33 M215 0 C217.15 -0.83, 219.05 4.36, 221.33 6.33 M221.33 6.33 C222.55 11.9, 220.91 16.38, 221.33 19 M221.33 6.33 C220.97 9.96, 221.41 13.06, 221.33 19 M221.33 19 C222.36 22.02, 218.6 24.94, 215 25.33 M221.33 19 C219.44 24.47, 218.33 27.48, 215 25.33 M215 25.33 C140.17 24.47, 67.2 25.44, 6.33 25.33 M215 25.33 C162.06 25.9, 109.85 25.43, 6.33 25.33 M6.33 25.33 C1.19 26.36, -1.01 22.47, 0 19 M6.33 25.33 C1.8 24.41, -1.64 24.55, 0 19 M0 19 C0.22 13.59, 0.44 9.85, 0 6.33 M0 19 C0.31 16.31, 0.26 14.02, 0 6.33 M0 6.33 C0.91 2.93, 1.93 -1.02, 6.33 0 M0 6.33 C1.53 3.91, 1.91 -1.81, 6.33 0" stroke="#2f9e44" stroke-width="4" fill="none"></path></g><g transform="translate(980.8889465332031 74.27781677246094) rotate(0 88.7999496459961 10)"><text x="0" y="0" font-family="Virgil, Segoe UI Emoji" font-size="16px" fill="#1e1e1e" text-anchor="start" style="white-space: pre;" direction="ltr" dominant-baseline="text-before-edge">25Gh / 25h / Englisch</text></g><g stroke-linecap="round" transform="translate(973.3334655761719 109.88887786865234) rotate(0 109.77783203125 12.222206115722656)"><path d="M6.11 0 C67.09 0.35, 126.17 -1.45, 213.44 0 M6.11 0 C53.04 0.52, 98.89 0.82, 213.44 0 M213.44 0 C216.27 0.41, 220.83 1.1, 219.56 6.11 M213.44 0 C216.08 0.1, 218.9 0.78, 219.56 6.11 M219.56 6.11 C220.36 7.99, 219.65 10.62, 219.56 18.33 M219.56 6.11 C219.67 9.49, 219.47 13.86, 219.56 18.33 M219.56 18.33 C218.47 21.96, 219.31 25.01, 213.44 24.44 M219.56 18.33 C220.3 23.39, 215.87 25.45, 213.44 24.44 M213.44 24.44 C161.28 22.69, 105.84 21.87, 6.11 24.44 M213.44 24.44 C144.6 25.13, 77.72 25.46, 6.11 24.44 M6.11 24.44 C0.94 24.14, -0.43 21.8, 0 18.33 M6.11 24.44 C4.26 24.31, 2.12 22.05, 0 18.33 M0 18.33 C-0.53 15.56, 1.19 12.69, 0 6.11 M0 18.33 C0.12 14.4, -0.04 10.86, 0 6.11 M0 6.11 C0.13 2.44, 2.2 -1.92, 6.11 0 M0 6.11 C-0.44 2.41, 0.92 -1.36, 6.11 0" stroke="#1e1e1e" stroke-width="1" fill="none"></path></g><g transform="translate(982.2222595214844 113.8333511352539) rotate(0 82.34396362304688 10)"><text x="0" y="0" font-family="Virgil, Segoe UI Emoji" font-size="16px" fill="#1e1e1e" text-anchor="start" style="white-space: pre;" direction="ltr" dominant-baseline="text-before-edge">25mT / 25K / PAM </text></g><g stroke-linecap="round" transform="translate(974.5555114746094 146.00000762939453) rotate(0 109.33343505859375 12.222221374511719)"><path d="M6.11 0 C84.91 1.55, 165.6 -0.3, 212.56 0 M6.11 0 C58.96 0.22, 112.42 -0.21, 212.56 0 M212.56 0 C217.89 -1.92, 219.57 2.69, 218.67 6.11 M212.56 0 C215.76 -1.04, 217.72 4.31, 218.67 6.11 M218.67 6.11 C217.63 9.09, 218.03 12.52, 218.67 18.33 M218.67 6.11 C218.33 9.97, 219.03 12.63, 218.67 18.33 M218.67 18.33 C218.81 24.27, 216.17 23.92, 212.56 24.44 M218.67 18.33 C217.37 21.16, 218.17 24.76, 212.56 24.44 M212.56 24.44 C157.51 26.81, 106.33 25.94, 6.11 24.44 M212.56 24.44 C166.11 25.39, 120.47 24.19, 6.11 24.44 M6.11 24.44 C0.97 24.7, 0.25 20.68, 0 18.33 M6.11 24.44 C1.95 24.63, -0.66 20.79, 0 18.33 M0 18.33 C0.62 13.15, 1.22 8.6, 0 6.11 M0 18.33 C0.09 15.41, -0.5 12.81, 0 6.11 M0 6.11 C-1.41 2.56, 3.68 1.73, 6.11 0 M0 6.11 C2.28 0.47, 1.19 -0.49, 6.11 0" stroke="#2f9e44" stroke-width="4" fill="none"></path></g><g transform="translate(982.1110534667969 146.83336639404297) rotate(0 106.48796081542969 10)"><text x="0" y="0" font-family="Virgil, Segoe UI Emoji" font-size="16px" fill="#1e1e1e" text-anchor="start" style="white-space: pre;" direction="ltr" dominant-baseline="text-before-edge">26Ge / 26e / PAM + BG </text></g><g stroke-linecap="round" transform="translate(974.6232147216797 179.58332061767578) rotate(0 109.33343505859375 12.222221374511719)"><path d="M6.11 0 C51.58 0.48, 92.48 -0.93, 212.56 0 M6.11 0 C53.21 -1.04, 100.24 -1.55, 212.56 0 M212.56 0 C214.78 -1.35, 217.17 1.33, 218.67 6.11 M212.56 0 C217.61 -1.39, 220.69 1.01, 218.67 6.11 M218.67 6.11 C219.3 9.1, 218.62 12.5, 218.67 18.33 M218.67 6.11 C218.34 9.45, 218.93 12.75, 218.67 18.33 M218.67 18.33 C219.67 22.16, 215.72 25.42, 212.56 24.44 M218.67 18.33 C219.58 20.46, 215.04 23.99, 212.56 24.44 M212.56 24.44 C139.51 22.79, 70.26 23.32, 6.11 24.44 M212.56 24.44 C159.97 25.94, 108.02 25.91, 6.11 24.44 M6.11 24.44 C2.97 26.18, -1.45 22.22, 0 18.33 M6.11 24.44 C0.28 26.14, -1.06 24.18, 0 18.33 M0 18.33 C0.65 14.95, 0.86 13.9, 0 6.11 M0 18.33 C0.61 14.52, -0.56 12.06, 0 6.11 M0 6.11 C-0.04 3, 1.21 1.01, 6.11 0 M0 6.11 C-0.28 2.05, 4.24 -1.35, 6.11 0" stroke="#1e1e1e" stroke-width="1" fill="none"></path></g><g transform="translate(982.6232147216797 184.41667938232422) rotate(0 76.90396881103516 10)"><text x="0" y="0" font-family="Virgil, Segoe UI Emoji" font-size="16px" fill="#1e1e1e" text-anchor="start" style="white-space: pre;" direction="ltr" dominant-baseline="text-before-edge">26mP / 26P / ED </text></g><g stroke-linecap="round" transform="translate(975.1788787841797 212.47220611572266) rotate(0 109.33343505859375 12.222221374511719)"><path d="M6.11 0 C72.17 0.01, 139.49 -0.87, 212.56 0 M6.11 0 C88.37 0.03, 170.32 1.08, 212.56 0 M212.56 0 C215.93 1.28, 218.3 3.58, 218.67 6.11 M212.56 0 C214.93 -1.5, 219.03 4.04, 218.67 6.11 M218.67 6.11 C219.15 8.55, 218.98 13.58, 218.67 18.33 M218.67 6.11 C218.49 8.8, 219.18 10.92, 218.67 18.33 M218.67 18.33 C217.57 22.37, 218.21 22.64, 212.56 24.44 M218.67 18.33 C216.51 20.59, 217.9 22.25, 212.56 24.44 M212.56 24.44 C164.1 24.25, 115.51 25.65, 6.11 24.44 M212.56 24.44 C160.11 25.87, 109.07 25.13, 6.11 24.44 M6.11 24.44 C3.4 24.89, -1.55 22.67, 0 18.33 M6.11 24.44 C0.14 26.46, 1.08 23.26, 0 18.33 M0 18.33 C1.31 14.31, 1.1 10.53, 0 6.11 M0 18.33 C-0.45 15.96, 0.32 12.86, 0 6.11 M0 6.11 C-0.43 1.39, 1.79 1.16, 6.11 0 M0 6.11 C1.21 -0.04, 1.66 0.67, 6.11 0" stroke="#1e1e1e" stroke-width="1" fill="none"></path></g><g transform="translate(982.7344207763672 217.3055648803711) rotate(0 49.80797576904297 10)"><text x="0" y="0" font-family="Virgil, Segoe UI Emoji" font-size="16px" fill="#1e1e1e" text-anchor="start" style="white-space: pre;" direction="ltr" dominant-baseline="text-before-edge">26Wa / 26w</text></g><g stroke-linecap="round" transform="translate(1240.3335266113281 12.555511474609375) rotate(0 129.5555419921875 226)"><path d="M32 0 C91.64 1.44, 145.01 4.38, 227.11 0 M32 0 C84.75 -0.53, 138.91 -0.95, 227.11 0 M227.11 0 C249.95 -2.62, 256.65 11.91, 259.11 32 M227.11 0 C244.46 0.84, 258.31 9.27, 259.11 32 M259.11 32 C260.35 161.65, 256.47 294.59, 259.11 420 M259.11 32 C262.11 113.83, 264.15 196.81, 259.11 420 M259.11 420 C258.1 444.98, 250.2 449.31, 227.11 452 M259.11 420 C260.03 438.02, 247.69 448.45, 227.11 452 M227.11 452 C181.94 445.3, 135.14 448.17, 32 452 M227.11 452 C184.81 454.84, 144.4 454.36, 32 452 M32 452 C9.13 453.22, 3.64 438.7, 0 420 M32 452 C10.32 453.52, -1.81 443.27, 0 420 M0 420 C2.33 309.6, 2.07 201.85, 0 32 M0 420 C-2.69 326.55, -3.4 234.64, 0 32 M0 32 C2.89 11.83, 12.07 -3.97, 32 0 M0 32 C2.43 8.5, 14.65 -1.55, 32 0" stroke="#1e1e1e" stroke-width="1" fill="none"></path></g><g transform="translate(1259.0002746582031 25.055511474609375) rotate(0 87.31796264648438 17.5)"><text x="0" y="0" font-family="Virgil, Segoe UI Emoji" font-size="28px" fill="#1e1e1e" text-anchor="start" style="white-space: pre;" direction="ltr" dominant-baseline="text-before-edge">Departments</text></g><g stroke-linecap="round" transform="translate(1259.4446105957031 72.11105346679688) rotate(0 110.66668701171875 12.666671752929688)"><path d="M6.33 0 C58.22 0.92, 110.63 -1.24, 215 0 M6.33 0 C55.29 1.04, 103.03 1.9, 215 0 M215 0 C217.49 0.37, 220.99 1.51, 221.33 6.33 M215 0 C220.05 -0.28, 221.58 3.86, 221.33 6.33 M221.33 6.33 C220.11 10.88, 221.45 12, 221.33 19 M221.33 6.33 C221.28 10.13, 221.72 12.34, 221.33 19 M221.33 19 C221.73 21.78, 218.89 23.79, 215 25.33 M221.33 19 C220.06 25.12, 217.38 26.81, 215 25.33 M215 25.33 C169.39 25.74, 128.62 23.46, 6.33 25.33 M215 25.33 C158.32 24.6, 103.12 23.75, 6.33 25.33 M6.33 25.33 C1.96 26, -0.78 24.06, 0 19 M6.33 25.33 C1.62 25.01, 2.2 24.87, 0 19 M0 19 C-0.84 17.25, 1.12 14.21, 0 6.33 M0 19 C0.49 15.67, 0.26 11.34, 0 6.33 M0 6.33 C1.06 1.17, 3.84 -0.67, 6.33 0 M0 6.33 C1.06 0.33, 3.61 -0.57, 6.33 0" stroke="#2f9e44" stroke-width="4" fill="none"></path></g><g transform="translate(1267.0001525878906 75.61109924316406) rotate(0 40.095985412597656 10)"><text x="0" y="0" font-family="Virgil, Segoe UI Emoji" font-size="16px" fill="#1e1e1e" text-anchor="start" style="white-space: pre;" direction="ltr" dominant-baseline="text-before-edge">G / GBSL</text></g><g stroke-linecap="round" transform="translate(1259.4446716308594 110.22216033935547) rotate(0 109.77783203125 12.222206115722656)"><path d="M6.11 0 C83.19 0.5, 161.1 1.49, 213.44 0 M6.11 0 C53.94 -0.41, 103.15 -0.84, 213.44 0 M213.44 0 C218.24 -0.24, 219.77 3.56, 219.56 6.11 M213.44 0 C216.82 -2.05, 221.39 0.02, 219.56 6.11 M219.56 6.11 C219.01 11.87, 219.65 15.33, 219.56 18.33 M219.56 6.11 C219.73 10.45, 219.51 15.2, 219.56 18.33 M219.56 18.33 C218.45 24.06, 215.91 25.73, 213.44 24.44 M219.56 18.33 C217.5 24.42, 217.11 22.32, 213.44 24.44 M213.44 24.44 C142.19 21.4, 71.03 22.15, 6.11 24.44 M213.44 24.44 C144.86 23.53, 76.07 23.61, 6.11 24.44 M6.11 24.44 C1.61 24.16, 1.92 23.84, 0 18.33 M6.11 24.44 C-0.14 25.85, -1.76 21.03, 0 18.33 M0 18.33 C-0.39 13.5, 0.94 10.23, 0 6.11 M0 18.33 C0.28 14.02, 0.49 10.09, 0 6.11 M0 6.11 C0.92 0.49, 3.34 -0.49, 6.11 0 M0 6.11 C1.92 0.29, 0.22 -0.36, 6.11 0" stroke="#1e1e1e" stroke-width="1" fill="none"></path></g><g transform="translate(1268.3334655761719 114.16663360595703) rotate(0 40.079978942871094 10)"><text x="0" y="0" font-family="Virgil, Segoe UI Emoji" font-size="16px" fill="#1e1e1e" text-anchor="start" style="white-space: pre;" direction="ltr" dominant-baseline="text-before-edge">m / GBJB</text></g><g stroke-linecap="round" transform="translate(1260.6667175292969 262.33325958251953) rotate(0 109.33343505859375 12.222221374511719)"><path d="M6.11 0 C63.15 -1.79, 123.08 -2.23, 212.56 0 M6.11 0 C72.13 0.45, 137.61 1.23, 212.56 0 M212.56 0 C216.02 -1.78, 220.26 0.28, 218.67 6.11 M212.56 0 C218.69 0.42, 216.55 0.98, 218.67 6.11 M218.67 6.11 C219.79 11.32, 217.85 15.69, 218.67 18.33 M218.67 6.11 C218.31 9.4, 218.16 12.08, 218.67 18.33 M218.67 18.33 C216.88 24.15, 216.28 22.6, 212.56 24.44 M218.67 18.33 C219.61 24.44, 214.62 23.75, 212.56 24.44 M212.56 24.44 C167.77 25.35, 120.72 23.6, 6.11 24.44 M212.56 24.44 C143.6 25.09, 75.88 25.85, 6.11 24.44 M6.11 24.44 C0.14 25.66, -1.53 21.21, 0 18.33 M6.11 24.44 C3.59 26.61, 0.75 21.89, 0 18.33 M0 18.33 C0.25 15.44, -1.32 12.34, 0 6.11 M0 18.33 C0.17 14.77, 0.29 12, 0 6.11 M0 6.11 C1.67 0.52, 0.46 -0.32, 6.11 0 M0 6.11 C1.36 3.4, 0.1 -1.99, 6.11 0" stroke="#1e1e1e" stroke-width="1" fill="none"></path></g><g transform="translate(1268.2222595214844 267.16661834716797) rotate(0 34.92798614501953 10)"><text x="0" y="0" font-family="Virgil, Segoe UI Emoji" font-size="16px" fill="#1e1e1e" text-anchor="start" style="white-space: pre;" direction="ltr" dominant-baseline="text-before-edge">W / WMS</text></g><g stroke-linecap="round" transform="translate(1259.4011688232422 168.80548858642578) rotate(0 109.33343505859375 12.222221374511719)"><path d="M6.11 0 C55.68 1.28, 104.07 2.23, 212.56 0 M6.11 0 C65.28 -2.19, 125.7 -2.18, 212.56 0 M212.56 0 C218.42 0.36, 216.83 1.12, 218.67 6.11 M212.56 0 C218.52 0.13, 218.09 4.13, 218.67 6.11 M218.67 6.11 C217.7 10.12, 217.64 13.84, 218.67 18.33 M218.67 6.11 C218.02 11.32, 218.46 14.9, 218.67 18.33 M218.67 18.33 C219.49 24.17, 214.88 23.84, 212.56 24.44 M218.67 18.33 C216.82 21.16, 215.74 25.14, 212.56 24.44 M212.56 24.44 C132.45 23.61, 51.91 23.93, 6.11 24.44 M212.56 24.44 C152.69 26.3, 93.83 25.23, 6.11 24.44 M6.11 24.44 C3.38 26.33, 0.65 21.96, 0 18.33 M6.11 24.44 C1.38 26.43, 1.66 23.07, 0 18.33 M0 18.33 C-0.45 15.3, -0.29 10.7, 0 6.11 M0 18.33 C0.43 15.15, -0.56 12.8, 0 6.11 M0 6.11 C1.18 3.22, 0.35 -1.73, 6.11 0 M0 6.11 C0.61 3.02, 0.21 1.09, 6.11 0" stroke="#1e1e1e" stroke-width="1" fill="none"></path></g><g transform="translate(1267.4011688232422 173.63884735107422) rotate(0 36.175987243652344 10)"><text x="0" y="0" font-family="Virgil, Segoe UI Emoji" font-size="16px" fill="#1e1e1e" text-anchor="start" style="white-space: pre;" direction="ltr" dominant-baseline="text-before-edge">F / FMS </text></g><g stroke-linecap="round" transform="translate(1259.9568328857422 201.69437408447266) rotate(0 109.33343505859375 12.222221374511719)"><path d="M6.11 0 C64.25 -0.47, 124.18 -1.2, 212.56 0 M6.11 0 C50.42 1.77, 92.31 1.2, 212.56 0 M212.56 0 C218.27 0.11, 218.16 3.86, 218.67 6.11 M212.56 0 C217.64 -1.55, 219.13 0.38, 218.67 6.11 M218.67 6.11 C219.58 8.6, 219.36 11.95, 218.67 18.33 M218.67 6.11 C218.9 11.38, 218.11 15.4, 218.67 18.33 M218.67 18.33 C217.06 21.32, 215.86 25.05, 212.56 24.44 M218.67 18.33 C220.76 20.89, 216.46 25.21, 212.56 24.44 M212.56 24.44 C158.47 25.76, 106.17 22.37, 6.11 24.44 M212.56 24.44 C138.64 24.18, 63.82 23.15, 6.11 24.44 M6.11 24.44 C1.47 26.17, 1.44 22.99, 0 18.33 M6.11 24.44 C2.85 22.16, 1.22 21.33, 0 18.33 M0 18.33 C-0.91 14.41, -0.26 9.9, 0 6.11 M0 18.33 C0.46 15.96, -0.42 12.32, 0 6.11 M0 6.11 C0.53 2.89, 0.45 0.94, 6.11 0 M0 6.11 C-2.28 -0.19, 0.18 -1.5, 6.11 0" stroke="#1e1e1e" stroke-width="1" fill="none"></path></g><g transform="translate(1267.5123748779297 206.5277328491211) rotate(0 33.199981689453125 10)"><text x="0" y="0" font-family="Virgil, Segoe UI Emoji" font-size="16px" fill="#1e1e1e" text-anchor="start" style="white-space: pre;" direction="ltr" dominant-baseline="text-before-edge">s / ECG</text></g><g stroke-linecap="round" transform="translate(1258.9998474121094 292.36109161376953) rotate(0 109.33343505859375 12.222221374511719)"><path d="M6.11 0 C79.05 3.37, 155.46 3.04, 212.56 0 M6.11 0 C59.34 2.08, 110.92 1.55, 212.56 0 M212.56 0 C215.49 0, 217.47 1.16, 218.67 6.11 M212.56 0 C216.16 -0.56, 219.19 4.25, 218.67 6.11 M218.67 6.11 C218.51 8.52, 217.69 13.03, 218.67 18.33 M218.67 6.11 C218.84 9.02, 218.9 12.23, 218.67 18.33 M218.67 18.33 C217.39 23.86, 215.55 22.81, 212.56 24.44 M218.67 18.33 C218.54 24.6, 218.15 25.63, 212.56 24.44 M212.56 24.44 C159.14 25.36, 106.39 23.7, 6.11 24.44 M212.56 24.44 C135.38 25.96, 58.23 27.05, 6.11 24.44 M6.11 24.44 C3.62 24.11, -1.38 21.48, 0 18.33 M6.11 24.44 C2.91 22.48, -0.9 22.87, 0 18.33 M0 18.33 C0.82 14.67, 0.3 10.31, 0 6.11 M0 18.33 C0.19 14.08, -0.2 10.6, 0 6.11 M0 6.11 C1.49 1.98, 0.89 1.09, 6.11 0 M0 6.11 C2 0.13, 4.28 1, 6.11 0" stroke="#1e1e1e" stroke-width="1" fill="none"></path></g><g transform="translate(1266.5553894042969 297.19445037841797) rotate(0 31.423988342285156 10)"><text x="0" y="0" font-family="Virgil, Segoe UI Emoji" font-size="16px" fill="#1e1e1e" text-anchor="start" style="white-space: pre;" direction="ltr" dominant-baseline="text-before-edge">c / ESC</text></g><g stroke-linecap="round" transform="translate(781.6666946411133 187.33340454101562) rotate(0 58.00006103515625 14.22222900390625)"><path d="M7.11 0 C35.1 -0.47, 67.81 0.94, 108.89 0 M7.11 0 C30.16 1.41, 52.9 -0.34, 108.89 0 M108.89 0 C112.58 0.67, 115.55 1.17, 116 7.11 M108.89 0 C114.09 0.33, 114.66 1.86, 116 7.11 M116 7.11 C114.8 10.5, 117.35 14.89, 116 21.33 M116 7.11 C116.28 11.16, 115.37 15.82, 116 21.33 M116 21.33 C114.24 26.68, 112.67 27.85, 108.89 28.44 M116 21.33 C114.52 27.78, 114.28 28.38, 108.89 28.44 M108.89 28.44 C73.27 29.25, 41.93 28.76, 7.11 28.44 M108.89 28.44 C83.17 28.04, 57.77 28.68, 7.11 28.44 M7.11 28.44 C2.47 30.09, 1.93 25.42, 0 21.33 M7.11 28.44 C0.26 27.93, 1.3 26.08, 0 21.33 M0 21.33 C1.39 18.57, -1.21 14.08, 0 7.11 M0 21.33 C0.36 16.15, -0.63 10.81, 0 7.11 M0 7.11 C0.69 0.66, 3.12 -1.86, 7.11 0 M0 7.11 C-0.75 0.48, 1.1 1.42, 7.11 0" stroke="#1e1e1e" stroke-width="1" fill="none"></path></g><g stroke-linecap="round" transform="translate(780.0000686645508 150.77786254882812) rotate(0 58.00006103515625 14.22222900390625)"><path d="M7.11 0 C45.91 0.07, 84.96 -1.37, 108.89 0 M7.11 0 C36.85 -0.08, 67.25 -0.17, 108.89 0 M108.89 0 C113.56 -1.18, 117.22 2.47, 116 7.11 M108.89 0 C115.52 2.21, 115.25 0.26, 116 7.11 M116 7.11 C115.5 9.91, 116.23 16.28, 116 21.33 M116 7.11 C116.44 12.59, 115.9 17.9, 116 21.33 M116 21.33 C116.61 24.47, 114.43 29.13, 108.89 28.44 M116 21.33 C114.03 26.93, 111.5 27.69, 108.89 28.44 M108.89 28.44 C85.72 27.91, 62.61 29.54, 7.11 28.44 M108.89 28.44 C75.29 27.73, 40.4 28, 7.11 28.44 M7.11 28.44 C1.84 27.39, -0.79 27.26, 0 21.33 M7.11 28.44 C2.89 28.03, 1.35 24.97, 0 21.33 M0 21.33 C-0.42 17.79, 0.1 12.03, 0 7.11 M0 21.33 C-0.48 18.63, -0.32 14.3, 0 7.11 M0 7.11 C0.8 1.44, 2.36 -1.97, 7.11 0 M0 7.11 C-1.96 0.7, 0.62 0.44, 7.11 0" stroke="#2f9e44" stroke-width="4" fill="none"></path></g><g stroke-linecap="round" transform="translate(780.0000686645508 111.44451904296875) rotate(0 58.00006103515625 14.22222900390625)"><path d="M7.11 0 C39.81 -0.77, 77.02 -0.66, 108.89 0 M7.11 0 C32.13 -1.22, 56.25 0.54, 108.89 0 M108.89 0 C112.52 0.55, 115.44 1.84, 116 7.11 M108.89 0 C112.42 -0.91, 117.37 2.89, 116 7.11 M116 7.11 C116.11 10.37, 117.41 14.64, 116 21.33 M116 7.11 C115.48 11.97, 116.46 16.62, 116 21.33 M116 21.33 C117.46 25.08, 111.98 29.25, 108.89 28.44 M116 21.33 C114.92 26.07, 111.36 26.48, 108.89 28.44 M108.89 28.44 C87.62 29.94, 62.32 29.31, 7.11 28.44 M108.89 28.44 C85.11 29.48, 62.63 29.29, 7.11 28.44 M7.11 28.44 C2.65 29.99, -1.32 27.15, 0 21.33 M7.11 28.44 C2.62 30, -1.09 27.24, 0 21.33 M0 21.33 C-0.82 16.87, 0.48 14.67, 0 7.11 M0 21.33 C0.35 15.7, -0.06 10.62, 0 7.11 M0 7.11 C-0.96 3.16, 2.03 1.76, 7.11 0 M0 7.11 C-1.25 1.09, 4.34 1.94, 7.11 0" stroke="#1e1e1e" stroke-width="1" fill="none"></path></g><g stroke-linecap="round" transform="translate(778.7777786254883 73.44451904296875) rotate(0 58.00006103515625 14.22222900390625)"><path d="M7.11 0 C31.66 -0.41, 56.1 -2.11, 108.89 0 M7.11 0 C31.17 0.46, 53.21 0.15, 108.89 0 M108.89 0 C112.24 0.98, 116.12 1.78, 116 7.11 M108.89 0 C115.87 1.63, 117.8 2.69, 116 7.11 M116 7.11 C116.06 13.44, 115.23 18.57, 116 21.33 M116 7.11 C115.76 10.61, 116.41 15.24, 116 21.33 M116 21.33 C117.96 26.06, 115.47 29.43, 108.89 28.44 M116 21.33 C116.07 25.89, 115.58 27.34, 108.89 28.44 M108.89 28.44 C73.28 28.23, 41.54 31.03, 7.11 28.44 M108.89 28.44 C88.14 27.53, 65.32 27.91, 7.11 28.44 M7.11 28.44 C1.47 29, 0.21 25.9, 0 21.33 M7.11 28.44 C3.85 28.32, -1.17 25.51, 0 21.33 M0 21.33 C0.69 15.45, 0.95 11.82, 0 7.11 M0 21.33 C0.05 16.76, -0.7 13.93, 0 7.11 M0 7.11 C-1.5 3.17, 0.5 -0.31, 7.11 0 M0 7.11 C0.35 0.82, 1.43 2.05, 7.11 0" stroke="#2f9e44" stroke-width="4" fill="none"></path></g><g transform="translate(122.39647309047439 131.62155853431298) rotate(0 55.16997528076172 50)"><text x="110.33995056152344" y="0" font-family="Virgil, Segoe UI Emoji" font-size="20px" fill="#2f9e44" text-anchor="end" style="white-space: pre;" direction="ltr" dominant-baseline="text-before-edge">07:30</text><text x="110.33995056152344" y="25" font-family="Virgil, Segoe UI Emoji" font-size="20px" fill="#2f9e44" text-anchor="end" style="white-space: pre;" direction="ltr" dominant-baseline="text-before-edge"> 11:30</text><text x="110.33995056152344" y="50" font-family="Virgil, Segoe UI Emoji" font-size="20px" fill="#2f9e44" text-anchor="end" style="white-space: pre;" direction="ltr" dominant-baseline="text-before-edge"></text><text x="110.33995056152344" y="75" font-family="Virgil, Segoe UI Emoji" font-size="20px" fill="#2f9e44" text-anchor="end" style="white-space: pre;" direction="ltr" dominant-baseline="text-before-edge"> 25G, 26G</text></g><g stroke-linecap="round"><g transform="translate(709.111213684082 127.11119079589844) rotate(0 37.555572509765625 -20.222213745117188)"><path d="M-0.47 -1.02 C11.93 -8.02, 61.65 -34.83, 74.4 -41.43" stroke="#2f9e44" stroke-width="2.5" fill="none" stroke-dasharray="1.5 8"></path></g></g><mask></mask><g stroke-linecap="round"><g transform="translate(454.00012969970703 76.00011444091793) rotate(0 266.6666564941406 -30.666625976562493)"><path d="M0.99 0.29 C59.4 -9.65, 261.47 -59.4, 350.09 -60.43 C438.72 -61.47, 502.26 -14.83, 532.72 -5.93" stroke="#2f9e44" stroke-width="2.5" fill="none" stroke-dasharray="1.5 8"></path></g></g><mask></mask><g stroke-linecap="round" transform="translate(425.55567169189453 502.2222900390625) rotate(0 246.44442749023438 28.222198486328125)"><path d="M14.11 0 C125.02 -0.13, 235.68 -1.01, 478.78 0 M14.11 0 C184.77 2.76, 355.1 2.03, 478.78 0 M478.78 0 C490.1 -2.51, 493.58 8.48, 492.89 14.11 M478.78 0 C487.2 -3.6, 496.36 7.59, 492.89 14.11 M492.89 14.11 C491.21 22.74, 494.16 32.14, 492.89 42.33 M492.89 14.11 C490.94 22.48, 492.5 27.87, 492.89 42.33 M492.89 42.33 C489.24 48.14, 487.53 55.04, 478.78 56.44 M492.89 42.33 C491.19 48.49, 488.71 59.44, 478.78 56.44 M478.78 56.44 C366.64 54.51, 257.6 54.23, 14.11 56.44 M478.78 56.44 C378.93 53.57, 279.8 52.35, 14.11 56.44 M14.11 56.44 C3.57 57.14, -1.99 49.4, 0 42.33 M14.11 56.44 C2.35 60.64, 3.11 55.48, 0 42.33 M0 42.33 C2.76 34.15, 2.6 17.25, 0 14.11 M0 42.33 C2.07 33.8, -0.95 24.09, 0 14.11 M0 14.11 C1.6 2.81, 5.04 2.21, 14.11 0 M0 14.11 C4.01 2.63, 1.38 2.46, 14.11 0" stroke="#2f9e44" stroke-width="4" fill="none"></path></g><g transform="translate(436.66675567626953 518.3889770507812) rotate(0 208.41986083984375 12.5)"><text x="0" y="0" font-family="Virgil, Segoe UI Emoji" font-size="20px" fill="#2f9e44" text-anchor="start" style="white-space: pre;" direction="ltr" dominant-baseline="text-before-edge">Betrifft: GBSL / 25h, 26e / abc, jkl, xyz</text></g><g stroke-linecap="round"><g transform="translate(708.757106886804 82.44634920507667) rotate(0 36.00006103515625 76.8888931274414)"><path d="M0.23 0.74 C12.18 26.32, 60.6 129.34, 72.68 154.65" stroke="#2f9e44" stroke-width="2.5" fill="none" stroke-dasharray="1.5 8"></path></g></g><mask></mask><g stroke-linecap="round"><g transform="translate(710.7133450701833 197.75014801472426) rotate(0 35.777862548828125 -16.44446563720703)"><path d="M-0.2 0.76 C11.62 -4.75, 58.87 -27.85, 70.69 -33.57" stroke="#2f9e44" stroke-width="2.5" fill="none" stroke-dasharray="1.5 8"></path></g></g><mask></mask><g stroke-linecap="round"><g transform="translate(715.6021390154958 355.08350677937267) rotate(0 33.33343505859375 -58.00001525878905)"><path d="M-0.67 0.1 C10.1 -19.44, 54.49 -97.57, 65.69 -116.84" stroke="#2f9e44" stroke-width="2.5" fill="none" stroke-dasharray="1.5 8"></path></g></g><mask></mask><g stroke-linecap="round"><g transform="translate(467.3110882654785 180.63449938872444) rotate(0 255.33334350585938 -18.222183227539055)"><path d="M-0.61 0.31 C55.58 -5.77, 252.65 -30.75, 337.84 -36 C423.02 -41.25, 481.56 -31.79, 510.5 -31.22" stroke="#2f9e44" stroke-width="2.5" fill="none" stroke-dasharray="1.5 8"></path></g></g><mask></mask></svg>