<svg version="1.1" xmlns="http://www.w3.org/2000/svg" viewBox="0 0 1509.4446105957031 568.6666870117188" width="1509.4446105957031" height="568.6666870117188">
  <!-- svg-source:excalidraw -->
  
  <defs>
    <style class="style-fonts">
      @font-face {
        font-family: "Virgil";
        src: url("https://file%2B.vscode-resource.vscode-cdn.net/c%3A/Users/bauz/.vscode/extensions/pomdtr.excalidraw-editor-3.5.1/public//dist/excalidraw-assets/Virgil.woff2");
      }
      @font-face {
        font-family: "Cascadia";
        src: url("https://file%2B.vscode-resource.vscode-cdn.net/c%3A/Users/bauz/.vscode/extensions/pomdtr.excalidraw-editor-3.5.1/public//dist/excalidraw-assets/Cascadia.woff2");
      }
    </style>
  </defs>
  <rect x="0" y="0" width="1509.4446105957031" height="568.6666870117188" fill="#ffffff"></rect><g stroke-linecap="round" transform="translate(422.83348083496094 70.44444274902344) rotate(0 27.111114501953125 13.77777099609375)"><path d="M1.83 1.59 C1.83 1.59, 1.83 1.59, 1.83 1.59 M1.83 1.59 C1.83 1.59, 1.83 1.59, 1.83 1.59 M1.57 7.99 C2.33 6.9, 4.82 3.55, 8.13 0.44 M1.57 7.99 C4.2 5.71, 6.04 2.73, 8.13 0.44 M1.31 14.39 C3.95 11.42, 7.03 6.11, 13.12 0.8 M1.31 14.39 C3.56 10.37, 7.58 8.63, 13.12 0.8 M1.71 20.03 C6.62 12.95, 13.47 3.62, 18.11 1.16 M1.71 20.03 C5.65 15.5, 9.29 11.25, 18.11 1.16 M2.1 25.68 C9.69 17.12, 17.32 7.49, 23.75 0.77 M2.1 25.68 C6.74 18.88, 11.37 14.09, 23.75 0.77 M5.12 28.3 C13.15 18.77, 25.04 8.69, 28.74 1.13 M5.12 28.3 C9.64 23.16, 15.55 17.53, 28.74 1.13 M10.11 28.66 C16.79 18.23, 27.25 10.44, 34.38 0.74 M10.11 28.66 C15.97 21.13, 22.36 13.49, 34.38 0.74 M15.75 28.27 C21.97 19.14, 29.82 12.1, 39.37 1.1 M15.75 28.27 C21.36 20.74, 28.15 14.49, 39.37 1.1 M20.74 28.63 C29.52 20.78, 33.59 12.23, 44.35 1.46 M20.74 28.63 C28.13 20.6, 36.67 10.67, 44.35 1.46 M26.38 28.23 C32.47 20.32, 41.32 13.3, 50.65 0.31 M26.38 28.23 C32.27 20.54, 38.98 13.61, 50.65 0.31 M31.37 28.59 C39.71 18.93, 47.73 12.01, 53.02 3.69 M31.37 28.59 C35.8 24.23, 40.92 19, 53.02 3.69 M37.01 28.2 C44.37 19.82, 49.58 17.03, 56.03 6.31 M37.01 28.2 C43.33 21.44, 47.83 14.56, 56.03 6.31 M42 28.56 C46.79 25.84, 48.29 21.4, 56.43 11.95 M42 28.56 C46.55 24.42, 49.55 20.61, 56.43 11.95 M47.64 28.16 C50.79 24.73, 51 24.03, 56.17 18.35 M47.64 28.16 C49.9 25.2, 53.07 21.86, 56.17 18.35" stroke="#ffec99" stroke-width="0.5" fill="none"></path><path d="M6.89 0 M6.89 0 C21.3 -1.25, 32.63 -0.36, 47.33 0 M6.89 0 C17.98 -0.45, 28.69 0.19, 47.33 0 M47.33 0 C53.81 -0.74, 54.59 0.98, 54.22 6.89 M47.33 0 C52.06 -0.67, 54.55 3.9, 54.22 6.89 M54.22 6.89 C53.98 12.69, 53.8 16.96, 54.22 20.67 M54.22 6.89 C54.34 12.39, 54.36 17.25, 54.22 20.67 M54.22 20.67 C53.25 24.27, 51.07 28, 47.33 27.56 M54.22 20.67 C52.65 25.15, 54.21 27.27, 47.33 27.56 M47.33 27.56 C37.69 28.56, 27 27.12, 6.89 27.56 M47.33 27.56 C31.08 28.24, 15.08 28.39, 6.89 27.56 M6.89 27.56 C3.49 26.29, -1.23 25.57, 0 20.67 M6.89 27.56 C0.21 26.26, 1.83 25.14, 0 20.67 M0 20.67 C0.48 15.44, 1.2 11.74, 0 6.89 M0 20.67 C0.43 17.28, -0.28 14.72, 0 6.89 M0 6.89 C-1.87 0.39, 2.5 -1.69, 6.89 0 M0 6.89 C0.44 0.28, 3.22 1.37, 6.89 0" stroke="#ffec99" stroke-width="1" fill="none"></path></g><g stroke-linecap="round" transform="translate(570.3889312744141 380.1111297607422) rotate(0 44.888885498046875 13.999984741210938)"><path d="M1.86 1.62 C1.86 1.62, 1.86 1.62, 1.86 1.62 M1.86 1.62 C1.86 1.62, 1.86 1.62, 1.86 1.62 M1.6 8.02 C2.91 5.51, 5.55 3.85, 8.16 0.47 M1.6 8.02 C3.2 6.44, 4.81 3.97, 8.16 0.47 M1.34 14.42 C4.52 13.36, 7.64 10.14, 13.15 0.83 M1.34 14.42 C4.7 9.18, 8.69 6.27, 13.15 0.83 M1.73 20.06 C7.76 14.09, 12.93 4.73, 18.14 1.19 M1.73 20.06 C6.84 15.24, 10.86 9.45, 18.14 1.19 M2.13 25.7 C8.34 16.31, 17.61 9.8, 23.78 0.8 M2.13 25.7 C6.48 19.64, 10.72 15.48, 23.78 0.8 M5.15 28.33 C11.63 23.16, 17.69 13.87, 28.77 1.16 M5.15 28.33 C11.93 22.72, 15.97 16.31, 28.77 1.16 M10.14 28.69 C18.8 18.45, 24.14 10.45, 34.41 0.76 M10.14 28.69 C18.02 19.91, 27.24 8.37, 34.41 0.76 M15.78 28.29 C20.02 20.22, 27.61 14.03, 39.4 1.12 M15.78 28.29 C21.69 22.66, 25.84 14.85, 39.4 1.12 M20.77 28.65 C31.69 18.42, 39.1 6.85, 45.04 0.73 M20.77 28.65 C28.03 21.65, 33.87 12.79, 45.04 0.73 M26.41 28.26 C34.91 21.58, 39.31 11.56, 50.03 1.09 M26.41 28.26 C33.7 19.92, 41.74 9.06, 50.03 1.09 M31.4 28.62 C41.99 18.65, 48.69 7.71, 55.67 0.69 M31.4 28.62 C40.4 18.62, 51.18 7.74, 55.67 0.69 M36.38 28.98 C40.35 20.27, 48.37 13.71, 60.66 1.05 M36.38 28.98 C46.58 18.86, 55.18 8.57, 60.66 1.05 M42.03 28.58 C50.01 17.61, 56.38 9.25, 65.64 1.41 M42.03 28.58 C51.18 17.43, 59.98 7.71, 65.64 1.41 M47.01 28.94 C51.47 21.14, 58.58 17.07, 71.29 1.02 M47.01 28.94 C51.98 22.1, 58.04 15.69, 71.29 1.02 M52.66 28.55 C60.84 21.42, 67.26 14.39, 76.27 1.38 M52.66 28.55 C59.2 21.24, 65.78 14.59, 76.27 1.38 M57.64 28.91 C61.19 23.12, 67.45 16.96, 81.92 0.98 M57.64 28.91 C66.36 19.1, 73.76 10.95, 81.92 0.98 M63.29 28.51 C70.8 21.46, 77.07 15.95, 86.9 1.34 M63.29 28.51 C71.61 20.4, 78.55 10.43, 86.9 1.34 M68.27 28.87 C75.3 22.44, 80.54 14.98, 89.92 3.97 M68.27 28.87 C75.63 22.14, 81.07 14.59, 89.92 3.97 M73.26 29.23 C77.92 22.96, 85.12 15.09, 89.66 10.37 M73.26 29.23 C78.56 22.4, 85.13 16.66, 89.66 10.37 M78.9 28.84 C80.78 27.35, 83.89 22.44, 89.4 16.76 M78.9 28.84 C83.6 23.94, 86.81 19.65, 89.4 16.76 M83.89 29.2 C86.87 27.23, 88.64 23.68, 89.79 22.41 M83.89 29.2 C86.56 26.79, 88.69 23.86, 89.79 22.41" stroke="#ffec99" stroke-width="0.5" fill="none"></path><path d="M7 0 M7 0 C37 0.99, 66.01 0.98, 82.78 0 M7 0 C21.92 0.9, 36.82 0.72, 82.78 0 M82.78 0 C86.17 0.31, 87.97 3.8, 89.78 7 M82.78 0 C86.87 0.32, 91.21 0.9, 89.78 7 M89.78 7 C91.06 13.7, 88.55 16.85, 89.78 21 M89.78 7 C89.63 9.63, 90.1 13.67, 89.78 21 M89.78 21 C91.41 27.28, 88.61 27.33, 82.78 28 M89.78 21 C90.25 27.04, 89.23 25.7, 82.78 28 M82.78 28 C61.41 27.25, 40.41 26.08, 7 28 M82.78 28 C61.11 26.96, 39.02 27.44, 7 28 M7 28 C2.72 27.76, 0.06 24.25, 0 21 M7 28 C4.07 27.97, 0.29 27.7, 0 21 M0 21 C0.29 17.95, 0.23 15.39, 0 7 M0 21 C0.44 17.47, 0.5 13.91, 0 7 M0 7 C-0.71 2.5, 3.89 -0.38, 7 0 M0 7 C-1 3.2, 0.71 -1.53, 7 0" stroke="#ffec99" stroke-width="1" fill="none"></path></g><g stroke-linecap="round" transform="translate(555.8333282470703 342.6666717529297) rotate(0 44.4444580078125 12.444442749023438)"><path d="M1.66 1.44 C1.66 1.44, 1.66 1.44, 1.66 1.44 M1.66 1.44 C1.66 1.44, 1.66 1.44, 1.66 1.44 M1.39 7.84 C2.51 6.98, 4.18 4.47, 7.3 1.05 M1.39 7.84 C3.05 5.74, 5.4 2.79, 7.3 1.05 M1.79 13.48 C6.68 7.37, 11.13 5.63, 12.94 0.65 M1.79 13.48 C5.05 10, 8.52 6.82, 12.94 0.65 M2.18 19.12 C9.36 13.84, 12.58 7.39, 17.93 1.01 M2.18 19.12 C7.8 13.23, 12.68 6.98, 17.93 1.01 M3.23 24.01 C7.89 18.58, 13.01 10.12, 22.92 1.37 M3.23 24.01 C7.6 17.92, 13.31 12.73, 22.92 1.37 M6.25 26.64 C11.63 21.54, 17 12.88, 28.56 0.98 M6.25 26.64 C11.28 22.28, 16.3 16.72, 28.56 0.98 M11.24 27 C17.36 16.83, 24.93 11.87, 33.55 1.34 M11.24 27 C19.67 18.05, 27.51 7.32, 33.55 1.34 M16.88 26.6 C24.39 20.11, 29.73 11.64, 39.19 0.94 M16.88 26.6 C23.57 17.69, 31.86 10.23, 39.19 0.94 M21.87 26.96 C26.22 19.99, 30.26 16.77, 44.18 1.3 M21.87 26.96 C27.86 21.45, 33.52 13.77, 44.18 1.3 M27.51 26.57 C34.91 22.13, 37.04 16.18, 49.82 0.91 M27.51 26.57 C34.9 17.87, 40.62 10.36, 49.82 0.91 M32.5 26.93 C39.24 19.93, 48.34 7.58, 54.81 1.27 M32.5 26.93 C37.17 20.12, 43.44 14.17, 54.81 1.27 M37.49 27.29 C43.99 22.64, 46.7 13.47, 60.45 0.87 M37.49 27.29 C47.03 17.39, 54.81 6.91, 60.45 0.87 M43.13 26.89 C50.43 21.53, 54.82 12.2, 65.44 1.23 M43.13 26.89 C50.5 19.9, 55.89 11.23, 65.44 1.23 M48.12 27.25 C54.03 20.21, 61.6 8.3, 70.42 1.59 M48.12 27.25 C57.15 17.86, 64.31 8.01, 70.42 1.59 M53.76 26.86 C61.36 18.65, 72.8 8.55, 76.07 1.2 M53.76 26.86 C58.18 19.68, 64.57 13.66, 76.07 1.2 M58.75 27.22 C69.08 18.3, 76.32 9.16, 81.05 1.56 M58.75 27.22 C66.29 17.74, 72.91 9.61, 81.05 1.56 M64.39 26.82 C73.42 15.57, 81.47 7.12, 86.7 1.16 M64.39 26.82 C68.72 20.38, 74.45 15.85, 86.7 1.16 M69.38 27.18 C72.35 21.7, 77.5 16.89, 89.06 4.54 M69.38 27.18 C75.68 21.06, 81.06 15.04, 89.06 4.54 M75.02 26.79 C79.05 21.96, 83.53 18.66, 89.45 10.19 M75.02 26.79 C77.31 23.26, 80.99 19.56, 89.45 10.19 M80.01 27.15 C84.1 22.81, 86.5 20.56, 89.19 16.58 M80.01 27.15 C82.89 24.41, 85.33 22.2, 89.19 16.58" stroke="#ffec99" stroke-width="0.5" fill="none"></path><path d="M6.22 0 M6.22 0 C32.56 1.14, 55.81 -1.37, 82.67 0 M6.22 0 C29.36 0.55, 51.58 0.54, 82.67 0 M82.67 0 C86.92 1.85, 88.02 4.03, 88.89 6.22 M82.67 0 C88.6 -0.43, 90.77 3.17, 88.89 6.22 M88.89 6.22 C89.02 9.54, 88.21 12.86, 88.89 18.67 M88.89 6.22 C88.5 9.33, 88.85 10.95, 88.89 18.67 M88.89 18.67 C87.91 23.41, 86.33 26.24, 82.67 24.89 M88.89 18.67 C89.64 20.95, 88.52 23.28, 82.67 24.89 M82.67 24.89 C55.27 24.33, 29.69 24.42, 6.22 24.89 M82.67 24.89 C62.25 25.04, 42.18 25.45, 6.22 24.89 M6.22 24.89 C2.16 26.73, 0.85 24.07, 0 18.67 M6.22 24.89 C1.42 26.72, 2.19 23.25, 0 18.67 M0 18.67 C0.63 12.95, -0.59 8.43, 0 6.22 M0 18.67 C-0.04 14.99, 0.08 11.54, 0 6.22 M0 6.22 C1.46 1.58, 2.35 1.25, 6.22 0 M0 6.22 C-1.43 4.11, 2.38 -1.25, 6.22 0" stroke="#ffec99" stroke-width="1" fill="none"></path></g><g stroke-linecap="round" transform="translate(430.3333969116211 264.7778625488281) rotate(0 24.888870239257812 13.77777099609375)"><path d="M1.83 1.59 C1.83 1.59, 1.83 1.59, 1.83 1.59 M1.83 1.59 C1.83 1.59, 1.83 1.59, 1.83 1.59 M1.57 7.99 C3.54 5.04, 6.34 2.77, 8.13 0.44 M1.57 7.99 C3.75 5.67, 6.05 3.03, 8.13 0.44 M1.31 14.39 C7.58 8.17, 9.03 2.7, 13.12 0.8 M1.31 14.39 C5.51 10.91, 7.81 6.43, 13.12 0.8 M1.71 20.03 C7 12.67, 12.73 7.73, 18.11 1.16 M1.71 20.03 C6.71 15.23, 11.9 8.96, 18.11 1.16 M2.1 25.68 C11.3 16.66, 16.88 8.04, 23.75 0.77 M2.1 25.68 C9.59 16.26, 16.43 7.43, 23.75 0.77 M5.12 28.3 C9.09 22.72, 14.92 14.16, 28.74 1.13 M5.12 28.3 C15.34 17.75, 24.27 7.03, 28.74 1.13 M10.11 28.66 C17.2 18.39, 29.15 7.05, 34.38 0.74 M10.11 28.66 C18.81 18.44, 28.61 7.02, 34.38 0.74 M15.75 28.27 C21.19 19.77, 30.06 11.92, 39.37 1.1 M15.75 28.27 C21.26 21.08, 27.33 14.59, 39.37 1.1 M20.74 28.63 C28.61 20.78, 35.98 10.78, 44.35 1.46 M20.74 28.63 C29.63 19.52, 38.3 8.13, 44.35 1.46 M26.38 28.23 C31.39 24.13, 34.31 16.78, 48.69 2.57 M26.38 28.23 C33.97 20.49, 41.65 10.5, 48.69 2.57 M31.37 28.59 C38.15 19.72, 43.95 12.12, 51.05 5.95 M31.37 28.59 C37.78 19.98, 46.05 12.72, 51.05 5.95 M36.35 28.95 C40.49 24.4, 43.13 21.24, 51.44 11.59 M36.35 28.95 C42.07 22.19, 48.38 16.07, 51.44 11.59 M42 28.56 C43.96 27.56, 45.86 24.54, 51.18 17.99 M42 28.56 C44.94 25.66, 46.15 23.15, 51.18 17.99" stroke="#ffc9c9" stroke-width="0.5" fill="none"></path><path d="M6.89 0 M6.89 0 C16.21 1.92, 28.06 0.7, 42.89 0 M6.89 0 C20.38 0.62, 34.54 -0.03, 42.89 0 M42.89 0 C48.28 1.29, 50.56 2.36, 49.78 6.89 M42.89 0 C45.56 0.77, 52.07 2.51, 49.78 6.89 M49.78 6.89 C48.73 13.49, 49.44 16.85, 49.78 20.67 M49.78 6.89 C50.33 11.81, 50.23 17.17, 49.78 20.67 M49.78 20.67 C49.19 26.04, 46.82 27.83, 42.89 27.56 M49.78 20.67 C48.67 24.22, 45.86 27.5, 42.89 27.56 M42.89 27.56 C35.1 27.03, 25.42 28.89, 6.89 27.56 M42.89 27.56 C33.24 26.33, 24.76 27.18, 6.89 27.56 M6.89 27.56 C1.93 27.4, -0.42 23.97, 0 20.67 M6.89 27.56 C0.4 29.8, 0.91 25.97, 0 20.67 M0 20.67 C0.7 16.85, -0.25 11.22, 0 6.89 M0 20.67 C0.48 15.58, 0.03 10.96, 0 6.89 M0 6.89 C-1.4 2.37, 2.89 -0.84, 6.89 0 M0 6.89 C-1.09 3.94, 3.25 1.24, 6.89 0" stroke="#ffc9c9" stroke-width="1" fill="none"></path></g><g stroke-linecap="round" transform="translate(429.66674041748047 222.666748046875) rotate(0 24.888870239257812 13.77777099609375)"><path d="M1.83 1.59 C1.83 1.59, 1.83 1.59, 1.83 1.59 M1.83 1.59 C1.83 1.59, 1.83 1.59, 1.83 1.59 M1.57 7.99 C3.55 5.55, 6.33 3.53, 8.13 0.44 M1.57 7.99 C3.34 5.54, 6.47 2.34, 8.13 0.44 M1.31 14.39 C5.47 10.97, 7.91 6.53, 13.12 0.8 M1.31 14.39 C5.47 9.62, 8.89 6.49, 13.12 0.8 M1.71 20.03 C4.98 15.81, 9.47 8, 18.11 1.16 M1.71 20.03 C8.37 13.5, 13.14 7.6, 18.11 1.16 M2.1 25.68 C7.32 19.05, 16.45 10.01, 23.75 0.77 M2.1 25.68 C8.7 19.73, 13.45 11.15, 23.75 0.77 M5.12 28.3 C13.06 17.83, 24.83 7.62, 28.74 1.13 M5.12 28.3 C14.14 18.78, 23.23 7.5, 28.74 1.13 M10.11 28.66 C17.98 20.56, 22.23 11.97, 34.38 0.74 M10.11 28.66 C17.3 20.16, 26.06 10.38, 34.38 0.74 M15.75 28.27 C25.06 19.39, 34.63 8.37, 39.37 1.1 M15.75 28.27 C22.45 19.39, 30.8 12.22, 39.37 1.1 M20.74 28.63 C24.69 24.51, 31.19 15.34, 44.35 1.46 M20.74 28.63 C30 18.3, 40.32 6.25, 44.35 1.46 M26.38 28.23 C29.89 23.83, 37.26 16.78, 48.69 2.57 M26.38 28.23 C31.6 21.59, 36.56 16.4, 48.69 2.57 M31.37 28.59 C34.79 22.11, 42.66 15.89, 51.05 5.95 M31.37 28.59 C36.79 23.33, 41.58 16.95, 51.05 5.95 M36.35 28.95 C41.75 25.68, 43.82 18.62, 51.44 11.59 M36.35 28.95 C40.31 22.6, 46.21 17.63, 51.44 11.59 M42 28.56 C44.3 25.73, 47.58 20.93, 51.18 17.99 M42 28.56 C44.34 25.89, 46.97 22.96, 51.18 17.99" stroke="#ffc9c9" stroke-width="0.5" fill="none"></path><path d="M6.89 0 M6.89 0 C16.97 1.33, 26.3 -1.39, 42.89 0 M6.89 0 C15.43 -1.09, 24.27 -0.36, 42.89 0 M42.89 0 C48.32 -0.77, 49.95 2.17, 49.78 6.89 M42.89 0 C49.23 -1.9, 47.97 2.05, 49.78 6.89 M49.78 6.89 C48.55 11.41, 50.61 14.32, 49.78 20.67 M49.78 6.89 C49.53 12.91, 49.28 18.2, 49.78 20.67 M49.78 20.67 C49.19 23.7, 47.64 27.4, 42.89 27.56 M49.78 20.67 C50.43 24.3, 46.09 29.59, 42.89 27.56 M42.89 27.56 C31.06 29.01, 20.23 29.52, 6.89 27.56 M42.89 27.56 C32.58 28.09, 21.01 26.86, 6.89 27.56 M6.89 27.56 C2.96 29.55, 0.19 27.13, 0 20.67 M6.89 27.56 C4.09 28.5, -1.93 27.23, 0 20.67 M0 20.67 C0.42 16.32, 1.12 12.59, 0 6.89 M0 20.67 C0.32 15.46, 0.15 10.38, 0 6.89 M0 6.89 C-0.9 0.88, 2.25 -0.67, 6.89 0 M0 6.89 C-0.42 1.29, 4.37 -0.43, 6.89 0" stroke="#ffc9c9" stroke-width="1" fill="none"></path></g><g stroke-linecap="round" transform="translate(435.22228240966797 380.5556945800781) rotate(0 24.888870239257812 13.77777099609375)"><path d="M1.83 1.59 C1.83 1.59, 1.83 1.59, 1.83 1.59 M1.83 1.59 C1.83 1.59, 1.83 1.59, 1.83 1.59 M1.57 7.99 C3.52 5.51, 5.29 3.77, 8.13 0.44 M1.57 7.99 C3.81 5.01, 6.55 3, 8.13 0.44 M1.31 14.39 C6.97 9.29, 9.27 5.18, 13.12 0.8 M1.31 14.39 C6.35 9.44, 9.13 5.55, 13.12 0.8 M1.71 20.03 C5.49 15.8, 11.69 8.11, 18.11 1.16 M1.71 20.03 C7.53 14.23, 12.07 7.25, 18.11 1.16 M2.1 25.68 C10.73 17.75, 19.92 7.11, 23.75 0.77 M2.1 25.68 C8.08 17.17, 16.06 9.42, 23.75 0.77 M5.12 28.3 C11.63 18.26, 17.77 12.91, 28.74 1.13 M5.12 28.3 C9.5 21.84, 15.96 16.76, 28.74 1.13 M10.11 28.66 C15.52 22.46, 22.37 13.74, 34.38 0.74 M10.11 28.66 C19.41 18.58, 28.05 9.91, 34.38 0.74 M15.75 28.27 C20.96 19.36, 26.89 13.8, 39.37 1.1 M15.75 28.27 C24.59 18.03, 32.35 9.84, 39.37 1.1 M20.74 28.63 C28.52 18.52, 38.68 8.98, 44.35 1.46 M20.74 28.63 C26.57 23.31, 30.88 17.19, 44.35 1.46 M26.38 28.23 C34.23 18.2, 42.46 11.35, 48.69 2.57 M26.38 28.23 C34.06 17.93, 42.32 8.34, 48.69 2.57 M31.37 28.59 C38.67 20.05, 42.98 15.68, 51.05 5.95 M31.37 28.59 C37.35 22.26, 43.17 15.45, 51.05 5.95 M36.35 28.95 C41.89 24.19, 46.4 17.42, 51.44 11.59 M36.35 28.95 C41.85 23.25, 46.14 17.24, 51.44 11.59 M42 28.56 C43.33 27.16, 45.06 23.21, 51.18 17.99 M42 28.56 C45.33 24.28, 49.2 20.96, 51.18 17.99" stroke="#ffc9c9" stroke-width="0.5" fill="none"></path><path d="M6.89 0 M6.89 0 C19.1 -1.43, 29.14 1.46, 42.89 0 M6.89 0 C17.34 0.05, 25.6 -0.97, 42.89 0 M42.89 0 C48.64 -0.95, 50.31 3.41, 49.78 6.89 M42.89 0 C46.14 -1.05, 50.72 1.7, 49.78 6.89 M49.78 6.89 C49.74 9.78, 50.59 13.05, 49.78 20.67 M49.78 6.89 C49.17 12.15, 50.1 17.14, 49.78 20.67 M49.78 20.67 C48.08 24.08, 45.84 29.1, 42.89 27.56 M49.78 20.67 C49.46 23.39, 47.54 27.37, 42.89 27.56 M42.89 27.56 C30.45 29.11, 16.63 26.02, 6.89 27.56 M42.89 27.56 C32.54 26.8, 22.7 28.3, 6.89 27.56 M6.89 27.56 C2.5 29.31, 0.22 25.8, 0 20.67 M6.89 27.56 C1.42 29.83, -1.71 27.38, 0 20.67 M0 20.67 C0 17.32, -0.47 12.37, 0 6.89 M0 20.67 C0.57 15.04, 0.39 9.75, 0 6.89 M0 6.89 C1.66 2.38, 2.66 0.8, 6.89 0 M0 6.89 C1.48 3.2, 2.37 -1.92, 6.89 0" stroke="#ffc9c9" stroke-width="1" fill="none"></path></g><g stroke-linecap="round" transform="translate(422.4445571899414 109.33346557617188) rotate(0 24.888870239257812 13.77777099609375)"><path d="M1.83 1.59 C1.83 1.59, 1.83 1.59, 1.83 1.59 M1.83 1.59 C1.83 1.59, 1.83 1.59, 1.83 1.59 M1.57 7.99 C3.35 5.05, 6.28 3.94, 8.13 0.44 M1.57 7.99 C2.7 6.28, 4.23 4.09, 8.13 0.44 M1.31 14.39 C5 10.79, 6.59 7.57, 13.12 0.8 M1.31 14.39 C4.24 10.79, 6.46 8.15, 13.12 0.8 M1.71 20.03 C9.26 13.46, 13.84 7.69, 18.11 1.16 M1.71 20.03 C7.1 14.51, 10.94 9.33, 18.11 1.16 M2.1 25.68 C7.81 16.81, 15.34 9.31, 23.75 0.77 M2.1 25.68 C8.94 17.7, 16.42 8.59, 23.75 0.77 M5.12 28.3 C13.4 22.64, 18.83 12.61, 28.74 1.13 M5.12 28.3 C14.42 18.85, 21.85 8.5, 28.74 1.13 M10.11 28.66 C21.08 18.2, 29.74 7.34, 34.38 0.74 M10.11 28.66 C15.52 22.73, 21.54 16.24, 34.38 0.74 M15.75 28.27 C23.9 21.37, 29.07 10.4, 39.37 1.1 M15.75 28.27 C23.01 19.89, 29.86 11.53, 39.37 1.1 M20.74 28.63 C24.72 22.77, 32.35 16.65, 44.35 1.46 M20.74 28.63 C28.03 20.43, 33.36 14.36, 44.35 1.46 M26.38 28.23 C31.51 21.93, 37.96 16.39, 48.69 2.57 M26.38 28.23 C31.84 23.01, 36.24 16.34, 48.69 2.57 M31.37 28.59 C40.43 19.26, 44.28 13.46, 51.05 5.95 M31.37 28.59 C36.25 23.82, 41.18 18.74, 51.05 5.95 M36.35 28.95 C43.2 23.52, 46.71 15.49, 51.44 11.59 M36.35 28.95 C40.17 23.55, 43.73 20.01, 51.44 11.59 M42 28.56 C46.02 25.6, 48.06 22.28, 51.18 17.99 M42 28.56 C45.21 25.82, 47.66 22.14, 51.18 17.99" stroke="#ffc9c9" stroke-width="0.5" fill="none"></path><path d="M6.89 0 M6.89 0 C13.96 0.86, 24.74 -1.24, 42.89 0 M6.89 0 C20.32 0.21, 31.29 1.19, 42.89 0 M42.89 0 C47.38 1.28, 49.53 3.5, 49.78 6.89 M42.89 0 C49.4 -1.53, 48.14 1.88, 49.78 6.89 M49.78 6.89 C50.09 12.59, 48.94 18.37, 49.78 20.67 M49.78 6.89 C49.26 11.56, 49.37 14.72, 49.78 20.67 M49.78 20.67 C51.16 23.77, 46.66 29.14, 42.89 27.56 M49.78 20.67 C48.04 24.35, 46.74 26.55, 42.89 27.56 M42.89 27.56 C31.41 26.99, 21.47 25.99, 6.89 27.56 M42.89 27.56 C29.04 27.56, 16.93 27.54, 6.89 27.56 M6.89 27.56 C1.08 25.7, 1.16 24.31, 0 20.67 M6.89 27.56 C2.91 28.84, -1.35 24.21, 0 20.67 M0 20.67 C-0.08 17.19, 0.01 10.78, 0 6.89 M0 20.67 C-0.08 15.52, -0.52 10.75, 0 6.89 M0 6.89 C1.02 1.51, 0.6 -1.18, 6.89 0 M0 6.89 C-1.89 4.07, 1.98 -1.87, 6.89 0" stroke="#ffc9c9" stroke-width="1" fill="none"></path></g><g stroke-linecap="round" transform="translate(431.6667251586914 342.8890075683594) rotate(0 27.111114501953125 13.77777099609375)"><path d="M1.83 1.59 C1.83 1.59, 1.83 1.59, 1.83 1.59 M1.83 1.59 C1.83 1.59, 1.83 1.59, 1.83 1.59 M1.57 7.99 C3.89 6.61, 5.42 3.49, 8.13 0.44 M1.57 7.99 C3.14 5.97, 4.65 4.8, 8.13 0.44 M1.31 14.39 C2.27 10.02, 6.99 8.33, 13.12 0.8 M1.31 14.39 C5.19 9.58, 7.58 6.47, 13.12 0.8 M1.71 20.03 C7.31 14.61, 9.41 9.73, 18.11 1.16 M1.71 20.03 C6.66 14.36, 13.31 7.27, 18.11 1.16 M2.1 25.68 C11.18 17.27, 16.93 7.65, 23.75 0.77 M2.1 25.68 C10.26 16.96, 17.54 7.65, 23.75 0.77 M5.12 28.3 C9.48 21.33, 14.54 15.09, 28.74 1.13 M5.12 28.3 C10.27 22.73, 14.46 16.16, 28.74 1.13 M10.11 28.66 C16.32 20.33, 26.37 11.63, 34.38 0.74 M10.11 28.66 C18.16 19.76, 24.82 9.95, 34.38 0.74 M15.75 28.27 C20.22 20.36, 26.61 12.71, 39.37 1.1 M15.75 28.27 C22.4 20.8, 30.03 12.6, 39.37 1.1 M20.74 28.63 C26.15 20.62, 32.56 13.85, 44.35 1.46 M20.74 28.63 C27.96 20.28, 34.77 14.36, 44.35 1.46 M26.38 28.23 C33.73 20.02, 39.59 12.09, 50.65 0.31 M26.38 28.23 C34.34 18.53, 42.28 9.8, 50.65 0.31 M31.37 28.59 C37.26 21.38, 42.82 15.59, 53.02 3.69 M31.37 28.59 C38.99 19.08, 47.56 11.5, 53.02 3.69 M37.01 28.2 C45.49 20, 50.29 12.86, 56.03 6.31 M37.01 28.2 C44.7 20.33, 49.85 13.65, 56.03 6.31 M42 28.56 C45.16 25.05, 50.74 18.07, 56.43 11.95 M42 28.56 C47.15 23.55, 51.01 17.35, 56.43 11.95 M47.64 28.16 C51.08 25.43, 54.94 20.94, 56.17 18.35 M47.64 28.16 C49.78 24.64, 53.23 21.59, 56.17 18.35" stroke="#ffec99" stroke-width="0.5" fill="none"></path><path d="M6.89 0 M6.89 0 C18.68 -1.76, 29.95 1.16, 47.33 0 M6.89 0 C14.62 -0.87, 24.6 -0.27, 47.33 0 M47.33 0 C51.67 1.21, 54.29 0.9, 54.22 6.89 M47.33 0 C54.04 -1.75, 55.52 3.49, 54.22 6.89 M54.22 6.89 C53.75 11.92, 55.33 14.17, 54.22 20.67 M54.22 6.89 C53.83 9.24, 54.37 12.97, 54.22 20.67 M54.22 20.67 C54.79 26.78, 53.42 26.23, 47.33 27.56 M54.22 20.67 C55.02 26.5, 53.22 26.33, 47.33 27.56 M47.33 27.56 C36.99 27.12, 23.15 26.33, 6.89 27.56 M47.33 27.56 C33.83 28.54, 21.77 27.73, 6.89 27.56 M6.89 27.56 C3.66 27.66, -1.01 25.89, 0 20.67 M6.89 27.56 C3.46 29.27, 0.01 25.46, 0 20.67 M0 20.67 C-0.8 17.87, 0.86 13.22, 0 6.89 M0 20.67 C0.72 15.87, -0.34 11.75, 0 6.89 M0 6.89 C-0.1 3.58, 2.05 1.21, 6.89 0 M0 6.89 C1.92 0.76, 0.66 -0.42, 6.89 0" stroke="#ffec99" stroke-width="1" fill="none"></path></g><g stroke-linecap="round" transform="translate(428.22229766845703 182.77784729003906) rotate(0 27.111114501953125 13.77777099609375)"><path d="M1.83 1.59 C1.83 1.59, 1.83 1.59, 1.83 1.59 M1.83 1.59 C1.83 1.59, 1.83 1.59, 1.83 1.59 M1.57 7.99 C4.26 4.77, 6.26 2.79, 8.13 0.44 M1.57 7.99 C3.26 5.42, 5.93 3.69, 8.13 0.44 M1.31 14.39 C4.44 9.87, 9.25 5.63, 13.12 0.8 M1.31 14.39 C3.73 11.84, 7.77 8.08, 13.12 0.8 M1.71 20.03 C8.29 13.91, 14.81 7.51, 18.11 1.16 M1.71 20.03 C7.5 12.05, 13.45 6.25, 18.11 1.16 M2.1 25.68 C7.86 21.79, 12.03 13.46, 23.75 0.77 M2.1 25.68 C9.47 16.37, 18.7 6.13, 23.75 0.77 M5.12 28.3 C11.41 20.35, 20.76 10.09, 28.74 1.13 M5.12 28.3 C13.41 18.75, 21.26 10.66, 28.74 1.13 M10.11 28.66 C15.37 21.64, 22.12 14.31, 34.38 0.74 M10.11 28.66 C16.27 21.56, 23.9 12.95, 34.38 0.74 M15.75 28.27 C23.62 19.99, 28.19 11.61, 39.37 1.1 M15.75 28.27 C21.7 19.85, 28.97 11.97, 39.37 1.1 M20.74 28.63 C24.59 22.79, 31.27 18.8, 44.35 1.46 M20.74 28.63 C25.55 22.2, 31.61 16.18, 44.35 1.46 M26.38 28.23 C31.05 20.19, 37.66 11.89, 50.65 0.31 M26.38 28.23 C33.01 20.82, 40.83 11.97, 50.65 0.31 M31.37 28.59 C35.32 23.23, 41.17 17.7, 53.02 3.69 M31.37 28.59 C38.24 21.11, 45.22 14.11, 53.02 3.69 M37.01 28.2 C42.66 22.94, 48.99 12.87, 56.03 6.31 M37.01 28.2 C42.81 21.32, 48.29 15.39, 56.03 6.31 M42 28.56 C46.91 21.34, 50.94 16.61, 56.43 11.95 M42 28.56 C47.03 22.53, 51.94 15.86, 56.43 11.95 M47.64 28.16 C49.8 24.74, 51.13 24.43, 56.17 18.35 M47.64 28.16 C50 25.55, 52.45 22.67, 56.17 18.35" stroke="#ffec99" stroke-width="0.5" fill="none"></path><path d="M6.89 0 M6.89 0 C22.07 -0.85, 34.69 -0.1, 47.33 0 M6.89 0 C18.06 -0.27, 28.92 -0.28, 47.33 0 M47.33 0 C53.86 0.14, 53.5 2.28, 54.22 6.89 M47.33 0 C53.91 -2.25, 54.83 1.93, 54.22 6.89 M54.22 6.89 C53.64 9.87, 52.99 12.88, 54.22 20.67 M54.22 6.89 C54.14 11.11, 54.73 15.65, 54.22 20.67 M54.22 20.67 C55.95 24.4, 51.7 26.48, 47.33 27.56 M54.22 20.67 C55.03 25.07, 53.39 26.28, 47.33 27.56 M47.33 27.56 C32.88 28.54, 18.02 29.46, 6.89 27.56 M47.33 27.56 C35.73 26.45, 23.24 27.17, 6.89 27.56 M6.89 27.56 C3.76 25.59, 1.48 23.47, 0 20.67 M6.89 27.56 C3.44 27.54, -0.55 23.82, 0 20.67 M0 20.67 C-0.39 17.64, 0.47 13.05, 0 6.89 M0 20.67 C0.59 17.04, -0.27 13.51, 0 6.89 M0 6.89 C1.34 2.66, 2.84 1.57, 6.89 0 M0 6.89 C0.52 3.05, 2.97 -2.19, 6.89 0" stroke="#ffec99" stroke-width="1" fill="none"></path></g><g stroke-linecap="round" transform="translate(557.4445266723633 264.0000762939453) rotate(0 50.4444580078125 14.222213745117188)"><path d="M1.89 1.65 C1.89 1.65, 1.89 1.65, 1.89 1.65 M1.89 1.65 C1.89 1.65, 1.89 1.65, 1.89 1.65 M1.63 8.04 C2.93 5.86, 4.93 3.74, 8.19 0.5 M1.63 8.04 C3.98 5.29, 6.16 3.54, 8.19 0.5 M1.37 14.44 C4.32 11.13, 8.54 5.8, 13.18 0.86 M1.37 14.44 C4.47 10.96, 7.47 7.45, 13.18 0.86 M1.76 20.08 C6.76 12.61, 13.42 8.21, 18.82 0.46 M1.76 20.08 C6.19 14.41, 11.78 8.74, 18.82 0.46 M2.16 25.73 C7.32 20.18, 15.83 10.72, 23.81 0.82 M2.16 25.73 C7.49 19.66, 13.16 11.58, 23.81 0.82 M4.52 29.11 C12.78 23.23, 18.31 15.13, 28.8 1.18 M4.52 29.11 C12.28 21.17, 19.9 12.64, 28.8 1.18 M10.16 28.71 C17.22 17.51, 28.61 7.52, 34.44 0.79 M10.16 28.71 C19.88 18.52, 27.49 8.21, 34.44 0.79 M15.15 29.07 C23.8 20.51, 30.44 9.75, 39.43 1.15 M15.15 29.07 C20.74 23.64, 25.05 17.21, 39.43 1.15 M20.8 28.68 C28.02 20.41, 38.18 7.19, 45.07 0.75 M20.8 28.68 C29.94 18.21, 39.04 6.72, 45.07 0.75 M25.78 29.04 C33.56 22.05, 38.36 14.62, 50.06 1.11 M25.78 29.04 C33.53 18.94, 41.37 10.47, 50.06 1.11 M31.43 28.64 C36.79 20.86, 43.11 11.25, 55.7 0.72 M31.43 28.64 C36.63 23.01, 42.66 16.29, 55.7 0.72 M36.41 29 C43.01 21.74, 50.46 10.01, 60.69 1.08 M36.41 29 C41.29 22.19, 46.18 16.86, 60.69 1.08 M42.06 28.61 C50.84 20.99, 56.75 10.13, 66.33 0.68 M42.06 28.61 C47.54 22.68, 52.77 16.92, 66.33 0.68 M47.04 28.97 C54.05 22.5, 61.97 13.45, 71.32 1.04 M47.04 28.97 C57.08 18.57, 64.56 8.31, 71.32 1.04 M52.03 29.33 C55.85 24.11, 61.56 18.11, 76.3 1.4 M52.03 29.33 C57.69 21.29, 64.66 15.48, 76.3 1.4 M57.67 28.93 C64.69 19.9, 70.43 11.43, 81.95 1.01 M57.67 28.93 C64.66 19.46, 74.04 10.6, 81.95 1.01 M62.66 29.29 C68.17 23.9, 72.83 16.11, 86.93 1.37 M62.66 29.29 C69.32 21.03, 76.79 12.62, 86.93 1.37 M68.3 28.9 C76.27 18.42, 84.28 12.41, 92.58 0.97 M68.3 28.9 C76.71 19.35, 83.56 11.61, 92.58 0.97 M73.29 29.26 C78.29 22.8, 82.75 16.5, 97.56 1.33 M73.29 29.26 C81.68 19.65, 90.61 10.31, 97.56 1.33 M78.93 28.86 C86.32 19.97, 95.6 10.92, 100.58 3.96 M78.93 28.86 C84.02 23.02, 89.82 17.1, 100.58 3.96 M83.92 29.22 C89.27 23.21, 95.13 15.46, 100.32 10.36 M83.92 29.22 C89.19 23.12, 93.61 18.64, 100.32 10.36 M89.56 28.83 C91.22 23.66, 95.17 22.79, 100.72 16 M89.56 28.83 C92.36 24.79, 97.37 20.54, 100.72 16 M94.55 29.19 C96.13 27.75, 98.1 26.07, 100.45 22.4 M94.55 29.19 C96.32 26.76, 98.62 25.14, 100.45 22.4" stroke="#ffec99" stroke-width="0.5" fill="none"></path><path d="M7.11 0 M7.11 0 C25.56 0.43, 45.78 -1.29, 93.78 0 M7.11 0 C27.3 -0.07, 46.29 -0.16, 93.78 0 M93.78 0 C97.58 -0.79, 100.02 2.11, 100.89 7.11 M93.78 0 C97.97 -2.28, 102.4 3.36, 100.89 7.11 M100.89 7.11 C101.01 10.93, 101.51 13.79, 100.89 21.33 M100.89 7.11 C100.92 10.99, 101.37 16.06, 100.89 21.33 M100.89 21.33 C99.62 26.58, 97.53 27.16, 93.78 28.44 M100.89 21.33 C100.89 24.62, 99.44 26.74, 93.78 28.44 M93.78 28.44 C61.19 28.94, 30.18 28.01, 7.11 28.44 M93.78 28.44 C65.32 28.48, 36.42 29.12, 7.11 28.44 M7.11 28.44 C1.36 29.57, 0.95 24.59, 0 21.33 M7.11 28.44 C2.78 30.57, -0.52 24.82, 0 21.33 M0 21.33 C0.3 15.1, 1.26 10.54, 0 7.11 M0 21.33 C0.24 17.14, 0.51 11.98, 0 7.11 M0 7.11 C0.77 4, 0.71 -0.6, 7.11 0 M0 7.11 C0.19 4.11, 3.63 0.43, 7.11 0" stroke="#ffec99" stroke-width="1" fill="none"></path></g><g stroke-linecap="round" transform="translate(558.6667556762695 222.2223358154297) rotate(0 50.4444580078125 14.222213745117188)"><path d="M1.89 1.65 C1.89 1.65, 1.89 1.65, 1.89 1.65 M1.89 1.65 C1.89 1.65, 1.89 1.65, 1.89 1.65 M1.63 8.04 C2.33 6.99, 3.94 4.09, 8.19 0.5 M1.63 8.04 C3.25 5.6, 5.46 3.84, 8.19 0.5 M1.37 14.44 C4.66 11.43, 8.17 8.08, 13.18 0.86 M1.37 14.44 C5.25 11.45, 8.55 7.66, 13.18 0.86 M1.76 20.08 C5.52 16.72, 12.46 8.87, 18.82 0.46 M1.76 20.08 C7.44 13.59, 13.53 5.71, 18.82 0.46 M2.16 25.73 C7.14 19.44, 11.67 15.04, 23.81 0.82 M2.16 25.73 C8.46 19.1, 12.82 13.13, 23.81 0.82 M4.52 29.11 C9.17 21.7, 17.51 13.97, 28.8 1.18 M4.52 29.11 C14.35 19.17, 22.82 7.64, 28.8 1.18 M10.16 28.71 C17.48 19.77, 25.04 10.29, 34.44 0.79 M10.16 28.71 C18.2 19.36, 28.12 8.82, 34.44 0.79 M15.15 29.07 C21.78 22.81, 26.23 13.41, 39.43 1.15 M15.15 29.07 C21.56 21.6, 27.99 14.62, 39.43 1.15 M20.8 28.68 C27.94 19.79, 38.24 9.41, 45.07 0.75 M20.8 28.68 C26.83 21.91, 32.9 14.73, 45.07 0.75 M25.78 29.04 C36.19 20.32, 42.66 8.95, 50.06 1.11 M25.78 29.04 C36.19 17.43, 44.58 6.58, 50.06 1.11 M31.43 28.64 C38.07 23.15, 42.47 17.33, 55.7 0.72 M31.43 28.64 C39.21 20.77, 46.43 12.65, 55.7 0.72 M36.41 29 C44.08 20.38, 52.94 9.74, 60.69 1.08 M36.41 29 C45.62 17.79, 54.73 8.87, 60.69 1.08 M42.06 28.61 C52.91 16.06, 61.55 4.78, 66.33 0.68 M42.06 28.61 C48.08 21.51, 53.09 16.95, 66.33 0.68 M47.04 28.97 C56 20.8, 60.03 14.29, 71.32 1.04 M47.04 28.97 C56.47 18.15, 64.88 7.91, 71.32 1.04 M52.03 29.33 C59.14 21.19, 65.78 14.16, 76.3 1.4 M52.03 29.33 C60.52 18.38, 70.65 7.37, 76.3 1.4 M57.67 28.93 C66.74 16.94, 73.96 6.85, 81.95 1.01 M57.67 28.93 C63.61 23.29, 68.43 16.08, 81.95 1.01 M62.66 29.29 C71.4 19.66, 75.68 12.12, 86.93 1.37 M62.66 29.29 C71.49 17.8, 81.76 7.64, 86.93 1.37 M68.3 28.9 C76.63 20.08, 81.7 10.05, 92.58 0.97 M68.3 28.9 C73.2 23.4, 78.26 17.5, 92.58 0.97 M73.29 29.26 C82.67 21.28, 89.49 12.52, 97.56 1.33 M73.29 29.26 C78.46 22.4, 83.76 16.04, 97.56 1.33 M78.93 28.86 C86.8 19.89, 93.9 12.42, 100.58 3.96 M78.93 28.86 C85.28 20.89, 93.85 12.51, 100.58 3.96 M83.92 29.22 C86.43 23.6, 89.51 22.06, 100.32 10.36 M83.92 29.22 C88.22 24.62, 93.15 17.62, 100.32 10.36 M89.56 28.83 C94.23 23.39, 96.84 21.14, 100.72 16 M89.56 28.83 C92.87 24.99, 95.99 21.46, 100.72 16 M94.55 29.19 C96.3 26.61, 100.06 23.92, 100.45 22.4 M94.55 29.19 C95.67 27.47, 97.6 25.21, 100.45 22.4" stroke="#ffec99" stroke-width="0.5" fill="none"></path><path d="M7.11 0 M7.11 0 C25.05 -1.31, 43.03 0.94, 93.78 0 M7.11 0 C24.63 0.86, 42.62 0.81, 93.78 0 M93.78 0 C97.66 -0.23, 99.81 3.07, 100.89 7.11 M93.78 0 C98.33 1.46, 99.61 4.11, 100.89 7.11 M100.89 7.11 C101.59 12.99, 102.25 17.43, 100.89 21.33 M100.89 7.11 C100.18 12.06, 100.7 16.68, 100.89 21.33 M100.89 21.33 C98.93 27.55, 96.73 29.44, 93.78 28.44 M100.89 21.33 C100.87 25.53, 97.08 28, 93.78 28.44 M93.78 28.44 C76.67 28.63, 57.32 27.41, 7.11 28.44 M93.78 28.44 C76.16 28.44, 58.67 29.69, 7.11 28.44 M7.11 28.44 C2.73 28.99, 1.57 26.52, 0 21.33 M7.11 28.44 C3.12 29.11, -2.19 25.2, 0 21.33 M0 21.33 C-1 17.14, -0.66 12.97, 0 7.11 M0 21.33 C-0.4 17.43, -0.07 13.14, 0 7.11 M0 7.11 C-0.62 2.39, 1.58 -0.93, 7.11 0 M0 7.11 C-0.91 1.37, 2.07 -0.55, 7.11 0" stroke="#ffec99" stroke-width="1" fill="none"></path></g><g stroke-linecap="round" transform="translate(556.8889236450195 182.3334503173828) rotate(0 50.4444580078125 14.222213745117188)"><path d="M1.89 1.65 C1.89 1.65, 1.89 1.65, 1.89 1.65 M1.89 1.65 C1.89 1.65, 1.89 1.65, 1.89 1.65 M1.63 8.04 C3.27 5.71, 5.83 2.78, 8.19 0.5 M1.63 8.04 C4.03 5.2, 7.03 2.42, 8.19 0.5 M1.37 14.44 C6.83 10.3, 8.7 5.35, 13.18 0.86 M1.37 14.44 C5.92 11.15, 8.4 6.07, 13.18 0.86 M1.76 20.08 C7.59 10.65, 14.15 3.59, 18.82 0.46 M1.76 20.08 C6.55 13.99, 13.11 6.46, 18.82 0.46 M2.16 25.73 C7.21 19.72, 13.12 10.98, 23.81 0.82 M2.16 25.73 C9.46 17.76, 16.48 8.16, 23.81 0.82 M4.52 29.11 C15.47 17.14, 22.66 7.02, 28.8 1.18 M4.52 29.11 C11.6 20.38, 20.19 11.09, 28.8 1.18 M10.16 28.71 C18.87 20.12, 27.31 8.4, 34.44 0.79 M10.16 28.71 C16.25 23.16, 21.51 15.55, 34.44 0.79 M15.15 29.07 C23.38 23.4, 27.16 15.6, 39.43 1.15 M15.15 29.07 C21.88 21.33, 27.32 14.41, 39.43 1.15 M20.8 28.68 C25.89 21.82, 32.9 13.67, 45.07 0.75 M20.8 28.68 C26.92 20.68, 33.71 13.02, 45.07 0.75 M25.78 29.04 C32.96 21.56, 39.83 12.31, 50.06 1.11 M25.78 29.04 C33.8 20.38, 40.2 12.21, 50.06 1.11 M31.43 28.64 C41.54 16.33, 51.11 7.8, 55.7 0.72 M31.43 28.64 C37.08 23.55, 41.56 16.18, 55.7 0.72 M36.41 29 C45.64 17.93, 51.74 9.73, 60.69 1.08 M36.41 29 C44.52 19.67, 53.14 10.47, 60.69 1.08 M42.06 28.61 C51.95 19.19, 60.33 6.52, 66.33 0.68 M42.06 28.61 C50.47 19.23, 58.45 10.4, 66.33 0.68 M47.04 28.97 C54.13 21.54, 58.55 17.05, 71.32 1.04 M47.04 28.97 C53.54 20.19, 60.8 11.78, 71.32 1.04 M52.03 29.33 C58.16 23.31, 63.99 15.22, 76.3 1.4 M52.03 29.33 C60.62 20.48, 68.98 10.88, 76.3 1.4 M57.67 28.93 C65.82 20.11, 71.92 16.02, 81.95 1.01 M57.67 28.93 C65.65 19.2, 75.95 9.09, 81.95 1.01 M62.66 29.29 C67 22.54, 72.62 14.16, 86.93 1.37 M62.66 29.29 C67.64 22.55, 75.15 15.43, 86.93 1.37 M68.3 28.9 C77.67 16.82, 88.68 8.95, 92.58 0.97 M68.3 28.9 C74.85 20.54, 81.98 12.46, 92.58 0.97 M73.29 29.26 C78.36 22.99, 84.56 18.48, 97.56 1.33 M73.29 29.26 C81.53 19.73, 89.69 11.06, 97.56 1.33 M78.93 28.86 C82.16 21.44, 87.3 16.04, 100.58 3.96 M78.93 28.86 C84.71 22.4, 88.93 17.52, 100.58 3.96 M83.92 29.22 C86.85 22.93, 91.91 19.98, 100.32 10.36 M83.92 29.22 C86.59 25.49, 90.6 21.84, 100.32 10.36 M89.56 28.83 C92.24 24.2, 93.84 20.37, 100.72 16 M89.56 28.83 C92.35 25.78, 94.78 22.91, 100.72 16 M94.55 29.19 C97 27.14, 99.1 23.87, 100.45 22.4 M94.55 29.19 C95.89 27.22, 97.41 25.53, 100.45 22.4" stroke="#ffec99" stroke-width="0.5" fill="none"></path><path d="M7.11 0 M7.11 0 C34.9 0.85, 64.37 0.12, 93.78 0 M7.11 0 C31.36 1.32, 55.32 -0.26, 93.78 0 M93.78 0 C98.22 -0.44, 100.08 0.49, 100.89 7.11 M93.78 0 C97.35 0.43, 100.83 2.46, 100.89 7.11 M100.89 7.11 C100.06 9.59, 100.75 13.94, 100.89 21.33 M100.89 7.11 C101.31 10.92, 101 15.32, 100.89 21.33 M100.89 21.33 C100.03 26.19, 98.42 28.05, 93.78 28.44 M100.89 21.33 C101.59 28.19, 98.13 28.68, 93.78 28.44 M93.78 28.44 C73.5 28.56, 52.94 31.01, 7.11 28.44 M93.78 28.44 C75.5 27.39, 59.3 27.98, 7.11 28.44 M7.11 28.44 C2.25 26.85, -0.2 26.73, 0 21.33 M7.11 28.44 C0.26 26.43, 0.14 24.85, 0 21.33 M0 21.33 C-0.53 15.6, -0.68 10.7, 0 7.11 M0 21.33 C0.45 17.61, -0.1 13.3, 0 7.11 M0 7.11 C0.99 3.44, 4.28 0.11, 7.11 0 M0 7.11 C0.42 1.08, 4.08 -2.02, 7.11 0" stroke="#ffec99" stroke-width="1" fill="none"></path></g><g stroke-linecap="round" transform="translate(558.2223281860352 108.77787780761719) rotate(0 50.4444580078125 14.222213745117188)"><path d="M1.89 1.65 C1.89 1.65, 1.89 1.65, 1.89 1.65 M1.89 1.65 C1.89 1.65, 1.89 1.65, 1.89 1.65 M1.63 8.04 C2.43 5.5, 4.65 3.85, 8.19 0.5 M1.63 8.04 C3.69 5.38, 5.7 2.96, 8.19 0.5 M1.37 14.44 C2.38 11.47, 4.61 10.32, 13.18 0.86 M1.37 14.44 C4.54 11.13, 7.66 6.69, 13.18 0.86 M1.76 20.08 C7.64 14.02, 15.51 5.38, 18.82 0.46 M1.76 20.08 C6.01 14.29, 11.3 8.99, 18.82 0.46 M2.16 25.73 C9.44 16.89, 17.81 4.98, 23.81 0.82 M2.16 25.73 C5.93 20.63, 11.96 15.37, 23.81 0.82 M4.52 29.11 C8.92 21.03, 15.91 15.84, 28.8 1.18 M4.52 29.11 C12.32 20.43, 19.47 12.35, 28.8 1.18 M10.16 28.71 C19.26 20.12, 28.6 8.8, 34.44 0.79 M10.16 28.71 C15.63 22.33, 20.52 16.42, 34.44 0.79 M15.15 29.07 C22.46 22.03, 25.76 18.02, 39.43 1.15 M15.15 29.07 C19.56 22.67, 25.07 17.27, 39.43 1.15 M20.8 28.68 C27.19 22.42, 30.75 15.33, 45.07 0.75 M20.8 28.68 C30.1 18.16, 37.94 9.51, 45.07 0.75 M25.78 29.04 C34.33 19.98, 39.46 13.12, 50.06 1.11 M25.78 29.04 C31.36 21.45, 37.76 15.44, 50.06 1.11 M31.43 28.64 C40.88 19.1, 49.31 8.03, 55.7 0.72 M31.43 28.64 C41.02 18.36, 49.1 7.03, 55.7 0.72 M36.41 29 C46.4 20.25, 52.12 8.99, 60.69 1.08 M36.41 29 C45.54 18.94, 53.54 9.5, 60.69 1.08 M42.06 28.61 C49.63 18.28, 58.98 6.17, 66.33 0.68 M42.06 28.61 C49.68 19.99, 56.68 10.99, 66.33 0.68 M47.04 28.97 C54.13 19.93, 61.75 11, 71.32 1.04 M47.04 28.97 C55.69 19.24, 63.38 11.36, 71.32 1.04 M52.03 29.33 C57.1 21.97, 62.97 19.22, 76.3 1.4 M52.03 29.33 C58.21 21.73, 66.23 12.78, 76.3 1.4 M57.67 28.93 C67.94 18.43, 73.77 10.37, 81.95 1.01 M57.67 28.93 C63.84 20.24, 71.46 12.86, 81.95 1.01 M62.66 29.29 C70.14 21.56, 77.88 14.33, 86.93 1.37 M62.66 29.29 C70.01 21.42, 75.65 14.22, 86.93 1.37 M68.3 28.9 C74.16 22.02, 81.11 14.24, 92.58 0.97 M68.3 28.9 C73.8 21.69, 80.9 15.02, 92.58 0.97 M73.29 29.26 C78.42 21.36, 84.13 13.4, 97.56 1.33 M73.29 29.26 C82.57 18.98, 90.95 8.98, 97.56 1.33 M78.93 28.86 C87.5 21.63, 94.38 11.68, 100.58 3.96 M78.93 28.86 C83.41 23.49, 90.15 17.46, 100.58 3.96 M83.92 29.22 C91.44 23.29, 98.04 14.02, 100.32 10.36 M83.92 29.22 C89.12 22.47, 93.55 16.67, 100.32 10.36 M89.56 28.83 C93.31 26.02, 96.26 22.45, 100.72 16 M89.56 28.83 C91.41 26.7, 95.08 22.94, 100.72 16 M94.55 29.19 C96.05 26.92, 97.72 24.64, 100.45 22.4 M94.55 29.19 C96.73 26.82, 99.3 24.38, 100.45 22.4" stroke="#ffec99" stroke-width="0.5" fill="none"></path><path d="M7.11 0 M7.11 0 C33.25 -0.28, 61.54 -1.34, 93.78 0 M7.11 0 C26.36 -0.07, 46.61 0.09, 93.78 0 M93.78 0 C98.44 0.03, 102.72 0.61, 100.89 7.11 M93.78 0 C99.17 -0.42, 100.62 0.74, 100.89 7.11 M100.89 7.11 C99.61 13.98, 99.34 18.01, 100.89 21.33 M100.89 7.11 C100.84 10.1, 100.53 13.53, 100.89 21.33 M100.89 21.33 C101.75 25.88, 97.1 26.68, 93.78 28.44 M100.89 21.33 C98.62 24.67, 98.66 28.07, 93.78 28.44 M93.78 28.44 C66.96 29.02, 39.32 29.96, 7.11 28.44 M93.78 28.44 C62.36 28.79, 33.46 28.81, 7.11 28.44 M7.11 28.44 C1.33 28, -1.54 26.42, 0 21.33 M7.11 28.44 C3.18 26.67, 1.26 24.64, 0 21.33 M0 21.33 C-0.25 15.35, -1.15 11.1, 0 7.11 M0 21.33 C-0.1 16.08, -0.28 10.47, 0 7.11 M0 7.11 C-1.02 2.74, 2.32 0.08, 7.11 0 M0 7.11 C-1.74 1.07, 4.41 -1.21, 7.11 0" stroke="#ffec99" stroke-width="1" fill="none"></path></g><g stroke-linecap="round" transform="translate(558.0000686645508 70.22232055664062) rotate(0 50.4444580078125 14.222213745117188)"><path d="M1.89 1.65 C1.89 1.65, 1.89 1.65, 1.89 1.65 M1.89 1.65 C1.89 1.65, 1.89 1.65, 1.89 1.65 M1.63 8.04 C3.06 6.05, 4.31 4.07, 8.19 0.5 M1.63 8.04 C3.3 6.66, 4.25 4.55, 8.19 0.5 M1.37 14.44 C5.45 7.7, 11.66 3.22, 13.18 0.86 M1.37 14.44 C5.03 10.7, 7.09 7.55, 13.18 0.86 M1.76 20.08 C7.3 12.25, 14.29 7.5, 18.82 0.46 M1.76 20.08 C4.9 15.73, 9.37 10.56, 18.82 0.46 M2.16 25.73 C9.21 14.89, 19.88 5.3, 23.81 0.82 M2.16 25.73 C7.59 19.18, 12.13 13.86, 23.81 0.82 M4.52 29.11 C9.31 20.74, 18.21 12.47, 28.8 1.18 M4.52 29.11 C11.58 21.46, 19.08 12.75, 28.8 1.18 M10.16 28.71 C20.6 17.22, 27.57 7.69, 34.44 0.79 M10.16 28.71 C18.63 17.68, 26.8 7.8, 34.44 0.79 M15.15 29.07 C23.5 20.02, 28.98 12.97, 39.43 1.15 M15.15 29.07 C23.19 18.99, 32.06 8.33, 39.43 1.15 M20.8 28.68 C27.25 19.03, 36.92 9.28, 45.07 0.75 M20.8 28.68 C26.79 21.73, 31.97 15.4, 45.07 0.75 M25.78 29.04 C34.67 21.59, 40.54 12.08, 50.06 1.11 M25.78 29.04 C33.89 17.91, 44.72 8.13, 50.06 1.11 M31.43 28.64 C37.01 19.51, 47.47 14.22, 55.7 0.72 M31.43 28.64 C37.26 20.46, 44.25 12.26, 55.7 0.72 M36.41 29 C41.68 20.67, 47.35 14.98, 60.69 1.08 M36.41 29 C44.8 19.74, 51.28 12.13, 60.69 1.08 M42.06 28.61 C47.7 24.24, 52.82 17.52, 66.33 0.68 M42.06 28.61 C48.85 19.48, 57.13 11.43, 66.33 0.68 M47.04 28.97 C54.55 21.12, 57.86 15.61, 71.32 1.04 M47.04 28.97 C56.7 19.03, 64.95 9.29, 71.32 1.04 M52.03 29.33 C60.72 22.08, 69.02 13.59, 76.3 1.4 M52.03 29.33 C61.03 19.21, 70.11 10.64, 76.3 1.4 M57.67 28.93 C65.29 20.47, 71.64 12.93, 81.95 1.01 M57.67 28.93 C65.94 20.09, 73.25 10.95, 81.95 1.01 M62.66 29.29 C70.64 22.57, 76.68 12.04, 86.93 1.37 M62.66 29.29 C70.56 20.04, 77.54 12.67, 86.93 1.37 M68.3 28.9 C71.34 24.56, 78.8 17.49, 92.58 0.97 M68.3 28.9 C73.64 21.82, 79.76 14.95, 92.58 0.97 M73.29 29.26 C82.04 18.98, 90.11 12.75, 97.56 1.33 M73.29 29.26 C79.55 22.12, 86.46 13.91, 97.56 1.33 M78.93 28.86 C84.61 22.52, 90.07 16.1, 100.58 3.96 M78.93 28.86 C85.65 20.09, 93.27 12.96, 100.58 3.96 M83.92 29.22 C87.57 23.8, 93.67 18.31, 100.32 10.36 M83.92 29.22 C88.11 24.58, 94.02 17.96, 100.32 10.36 M89.56 28.83 C91.93 26.54, 94.56 20.86, 100.72 16 M89.56 28.83 C93.31 26.08, 95.89 22.37, 100.72 16 M94.55 29.19 C96.61 27.76, 98.55 25.74, 100.45 22.4 M94.55 29.19 C96.29 26.49, 99.01 24.07, 100.45 22.4" stroke="#ffec99" stroke-width="0.5" fill="none"></path><path d="M7.11 0 M7.11 0 C41.29 0.42, 70.89 0.87, 93.78 0 M7.11 0 C37.63 1.05, 67.01 0.55, 93.78 0 M93.78 0 C96.9 -1.62, 99.8 2.47, 100.89 7.11 M93.78 0 C99.78 -2.23, 101.45 3.72, 100.89 7.11 M100.89 7.11 C102.38 11.34, 100.09 16.88, 100.89 21.33 M100.89 7.11 C101.16 12.03, 100.73 17.39, 100.89 21.33 M100.89 21.33 C100.45 24.57, 99.88 28.59, 93.78 28.44 M100.89 21.33 C100.66 26.11, 99.14 30.52, 93.78 28.44 M93.78 28.44 C64.13 27.28, 34.3 29.01, 7.11 28.44 M93.78 28.44 C72.74 27.62, 52.74 27.8, 7.11 28.44 M7.11 28.44 C0.85 28.36, 0.03 27.9, 0 21.33 M7.11 28.44 C0.35 29.09, -0.42 25.81, 0 21.33 M0 21.33 C-0.63 16.93, 1.15 13.39, 0 7.11 M0 21.33 C0.05 17.41, 0.15 13.12, 0 7.11 M0 7.11 C1.34 3.23, 2.17 -1.42, 7.11 0 M0 7.11 C-2.03 0.11, 0.97 0.15, 7.11 0" stroke="#ffec99" stroke-width="1" fill="none"></path></g><g stroke-linecap="round" transform="translate(10 58.2222900390625) rotate(0 112.22218322753906 165.77779388427732)"><path d="M32 0 M32 0 C73.02 -2, 114.06 0.7, 192.44 0 M32 0 C95.65 -0.57, 159.75 -0.66, 192.44 0 M192.44 0 C215.55 -0.07, 225.19 9.74, 224.44 32 M192.44 0 C213.25 -0.23, 226.49 9.19, 224.44 32 M224.44 32 C226.27 131.09, 226.17 228.55, 224.44 299.56 M224.44 32 C226.23 127, 225.35 221.76, 224.44 299.56 M224.44 299.56 C224.05 321.73, 212.81 330.52, 192.44 331.56 M224.44 299.56 C225.69 319.24, 215.55 331.27, 192.44 331.56 M192.44 331.56 C131.22 330.37, 71.9 331.47, 32 331.56 M192.44 331.56 C154.46 332.7, 117.62 333.07, 32 331.56 M32 331.56 C12.34 332.49, -1.31 319.57, 0 299.56 M32 331.56 C10.78 331.6, -1.25 321.53, 0 299.56 M0 299.56 C2.43 236.58, 1.12 174.87, 0 32 M0 299.56 C-1.26 233.07, -0.6 167, 0 32 M0 32 C-1.02 11.41, 10.45 -1.92, 32 0 M0 32 C-0.67 11.52, 9.71 1.88, 32 0" stroke="#1971c2" stroke-width="1" fill="none"></path></g><g transform="translate(28.222259521484375 68.77777099609375) rotate(0 38.863983154296875 17.5)"><text x="0" y="0" font-family="Virgil, Segoe UI Emoji" font-size="28px" fill="#1971c2" text-anchor="start" style="white-space: pre;" direction="ltr" dominant-baseline="text-before-edge">Event</text></g><g transform="translate(28.2222900390625 133.3333282470703) rotate(0 85.46991729736328 125)"><text x="0" y="0" font-family="Virgil, Segoe UI Emoji" font-size="20px" fill="#1971c2" text-anchor="start" style="white-space: pre;" direction="ltr" dominant-baseline="text-before-edge">Start</text><text x="0" y="25" font-family="Virgil, Segoe UI Emoji" font-size="20px" fill="#1971c2" text-anchor="start" style="white-space: pre;" direction="ltr" dominant-baseline="text-before-edge">End</text><text x="0" y="50" font-family="Virgil, Segoe UI Emoji" font-size="20px" fill="#1971c2" text-anchor="start" style="white-space: pre;" direction="ltr" dominant-baseline="text-before-edge"></text><text x="0" y="75" font-family="Virgil, Segoe UI Emoji" font-size="20px" fill="#1971c2" text-anchor="start" style="white-space: pre;" direction="ltr" dominant-baseline="text-before-edge">Class(es)</text><text x="0" y="100" font-family="Virgil, Segoe UI Emoji" font-size="20px" fill="#1971c2" text-anchor="start" style="white-space: pre;" direction="ltr" dominant-baseline="text-before-edge">Department(s)</text><text x="0" y="125" font-family="Virgil, Segoe UI Emoji" font-size="20px" fill="#1971c2" text-anchor="start" style="white-space: pre;" direction="ltr" dominant-baseline="text-before-edge"></text><text x="0" y="150" font-family="Virgil, Segoe UI Emoji" font-size="20px" fill="#1971c2" text-anchor="start" style="white-space: pre;" direction="ltr" dominant-baseline="text-before-edge">Teachers Only?</text><text x="0" y="175" font-family="Virgil, Segoe UI Emoji" font-size="20px" fill="#1971c2" text-anchor="start" style="white-space: pre;" direction="ltr" dominant-baseline="text-before-edge">    KLPs Only?</text><text x="0" y="200" font-family="Virgil, Segoe UI Emoji" font-size="20px" fill="#1971c2" text-anchor="start" style="white-space: pre;" direction="ltr" dominant-baseline="text-before-edge">    Subject?</text><text x="0" y="225" font-family="Virgil, Segoe UI Emoji" font-size="20px" fill="#1971c2" text-anchor="start" style="white-space: pre;" direction="ltr" dominant-baseline="text-before-edge">Affects Lessons?</text></g><g stroke-linecap="round" transform="translate(420.2223815917969 68.22224426269531) rotate(0 144.888916015625 16.666656494140625)"><path d="M8.33 0 M8.33 0 C78.2 -0.89, 148.94 1.21, 281.44 0 M8.33 0 C78.84 1.85, 150.52 0.62, 281.44 0 M281.44 0 C287.05 -0.16, 290.61 2.01, 289.78 8.33 M281.44 0 C287.2 -0.15, 291.53 0.88, 289.78 8.33 M289.78 8.33 C290.65 12.12, 288.19 16.77, 289.78 25 M289.78 8.33 C289.89 14.48, 289.48 20.99, 289.78 25 M289.78 25 C288.29 32.4, 286.42 31.77, 281.44 33.33 M289.78 25 C289.96 30.38, 287.65 32.37, 281.44 33.33 M281.44 33.33 C216.41 34.76, 149.89 34.36, 8.33 33.33 M281.44 33.33 C208.1 33.73, 134.98 33.73, 8.33 33.33 M8.33 33.33 C2.84 31.66, 0.67 32.55, 0 25 M8.33 33.33 C3 35.49, 1.8 31.5, 0 25 M0 25 C-1.22 22.77, 0.26 17, 0 8.33 M0 25 C-0.22 18.51, 0.41 12.22, 0 8.33 M0 8.33 C0.27 1.81, 1.88 -1.41, 8.33 0 M0 8.33 C-0.05 2.01, 2.36 -1, 8.33 0" stroke="#1e1e1e" stroke-width="1" fill="none"></path></g><g transform="translate(427.7779846191406 75.16671752929688) rotate(0 137.13592529296875 10)"><text x="0" y="0" font-family="Virgil, Segoe UI Emoji" font-size="16px" fill="#1e1e1e" text-anchor="start" style="white-space: pre;" direction="ltr" dominant-baseline="text-before-edge">25Gh / Math / 08:25-09:10 / xyz</text></g><g stroke-linecap="round" transform="translate(421.4445495605469 106.55555725097656) rotate(0 144.888916015625 16.666656494140625)"><path d="M8.33 0 M8.33 0 C68.29 -0.59, 125.78 -0.7, 281.44 0 M8.33 0 C95.74 0.49, 181.98 0.95, 281.44 0 M281.44 0 C286.24 1.75, 291.65 4.35, 289.78 8.33 M281.44 0 C285.93 -0.21, 291.44 2.58, 289.78 8.33 M289.78 8.33 C289.34 13.35, 288.77 15.87, 289.78 25 M289.78 8.33 C289.76 13.43, 289.6 19.42, 289.78 25 M289.78 25 C291.74 29.21, 288.94 33.42, 281.44 33.33 M289.78 25 C289.34 29.12, 286.16 33.33, 281.44 33.33 M281.44 33.33 C213.82 32.08, 144.35 33.16, 8.33 33.33 M281.44 33.33 C185.61 32.42, 89.84 31.36, 8.33 33.33 M8.33 33.33 C3.1 34.17, 0.88 28.72, 0 25 M8.33 33.33 C4.8 34.79, 2.21 32.25, 0 25 M0 25 C-0.62 21.68, 0.54 17.21, 0 8.33 M0 25 C-0.25 19.51, 0.51 14.98, 0 8.33 M0 8.33 C0.02 2.17, 1.77 0.72, 8.33 0 M0 8.33 C-2.26 2.15, 4.96 -1.4, 8.33 0" stroke="#1e1e1e" stroke-width="1" fill="none"></path></g><g transform="translate(424.5556945800781 115.27780151367188) rotate(0 140.70391845703125 10)"><text x="0" y="0" font-family="Virgil, Segoe UI Emoji" font-size="16px" fill="#1e1e1e" text-anchor="start" style="white-space: pre;" direction="ltr" dominant-baseline="text-before-edge">25mT / Franz / 08:25-09:10 / abc</text></g><g stroke-linecap="round" transform="translate(423.3334045410156 179.55557250976562) rotate(0 144.888916015625 16.666656494140625)"><path d="M8.33 0 M8.33 0 C107.22 -0.94, 204.8 -0.12, 281.44 0 M8.33 0 C71.34 0.88, 135.67 0.81, 281.44 0 M281.44 0 C286.07 -0.18, 291.23 2.61, 289.78 8.33 M281.44 0 C285.07 1.42, 288.94 2.04, 289.78 8.33 M289.78 8.33 C289.85 14.02, 288.9 21.27, 289.78 25 M289.78 8.33 C290.57 12.59, 290.56 18, 289.78 25 M289.78 25 C289.39 29.31, 286.27 33.33, 281.44 33.33 M289.78 25 C288.67 32.01, 285.32 35.08, 281.44 33.33 M281.44 33.33 C195.02 35.26, 106 35.39, 8.33 33.33 M281.44 33.33 C183.87 32, 86.4 30.96, 8.33 33.33 M8.33 33.33 C4.54 34.6, 1.92 32.02, 0 25 M8.33 33.33 C2.12 33.28, 1.12 29.69, 0 25 M0 25 C-0.34 18.08, -0.55 11.94, 0 8.33 M0 25 C-0.08 21.31, -0.51 18.42, 0 8.33 M0 8.33 C-1.97 2.23, 4.68 -1.21, 8.33 0 M0 8.33 C1.85 2.32, 0.49 2.22, 8.33 0" stroke="#1e1e1e" stroke-width="1" fill="none"></path></g><g transform="translate(434.0001525878906 188.72227478027344) rotate(0 130.01593017578125 10)"><text x="0" y="0" font-family="Virgil, Segoe UI Emoji" font-size="16px" fill="#1e1e1e" text-anchor="start" style="white-space: pre;" direction="ltr" dominant-baseline="text-before-edge">26Ge / Info / 08:25-09:10 / jkl</text></g><g stroke-linecap="round" transform="translate(423.5556335449219 220.33334350585938) rotate(0 144.888916015625 16.666656494140625)"><path d="M8.33 0 M8.33 0 C93 -1.66, 179.65 -2.01, 281.44 0 M8.33 0 C113.79 -1.75, 220.54 -1.74, 281.44 0 M281.44 0 C285.32 1.23, 289.05 2.13, 289.78 8.33 M281.44 0 C288.95 -1.53, 290.24 3.03, 289.78 8.33 M289.78 8.33 C289.52 12.4, 291.13 18.51, 289.78 25 M289.78 8.33 C289.78 11.69, 289.63 16.08, 289.78 25 M289.78 25 C288.82 31.82, 285.54 34.85, 281.44 33.33 M289.78 25 C290.22 31.33, 289.04 34.51, 281.44 33.33 M281.44 33.33 C199.83 34.03, 115.2 33.81, 8.33 33.33 M281.44 33.33 C188.8 31.87, 95.54 31.95, 8.33 33.33 M8.33 33.33 C2.21 33.29, 0.97 29.8, 0 25 M8.33 33.33 C4.44 34.08, 1.73 30.16, 0 25 M0 25 C-1.51 21.6, -1.15 16.45, 0 8.33 M0 25 C-0.74 20.28, 0.88 15.5, 0 8.33 M0 8.33 C1.61 2.38, 0.79 1.93, 8.33 0 M0 8.33 C-0.78 3.22, 3.63 1.84, 8.33 0" stroke="#1e1e1e" stroke-width="1" fill="none"></path></g><g transform="translate(432.4444885253906 227.2777862548828) rotate(0 137.15191650390625 10)"><text x="0" y="0" font-family="Virgil, Segoe UI Emoji" font-size="16px" fill="#1e1e1e" text-anchor="start" style="white-space: pre;" direction="ltr" dominant-baseline="text-before-edge">26mP / Musik / 08:25-09:10 / fgh</text></g><g stroke-linecap="round" transform="translate(424.6667785644531 261.66668701171875) rotate(0 144.888916015625 16.666656494140625)"><path d="M8.33 0 M8.33 0 C87.41 2.27, 165 0.09, 281.44 0 M8.33 0 C87.11 0.66, 166.9 -0.07, 281.44 0 M281.44 0 C288.7 -1.33, 290.18 3, 289.78 8.33 M281.44 0 C286 -1.05, 289.93 2.52, 289.78 8.33 M289.78 8.33 C288.8 14.74, 289.99 17.6, 289.78 25 M289.78 8.33 C289.32 12.82, 289.11 16.88, 289.78 25 M289.78 25 C290.17 31.23, 288.78 34.36, 281.44 33.33 M289.78 25 C289.83 29.08, 287.25 34.66, 281.44 33.33 M281.44 33.33 C191.93 34.36, 99.69 35.04, 8.33 33.33 M281.44 33.33 C181.93 34.88, 83.24 34.6, 8.33 33.33 M8.33 33.33 C4.22 33.98, 1.51 30.21, 0 25 M8.33 33.33 C1.79 32.65, -0.9 28.4, 0 25 M0 25 C-0.38 18.27, 0.72 11.59, 0 8.33 M0 25 C0.51 20.29, -0.99 16.71, 0 8.33 M0 8.33 C-0.68 3.16, 3.52 1.6, 8.33 0 M0 8.33 C2.24 2.39, 1.32 1.78, 8.33 0" stroke="#1e1e1e" stroke-width="1" fill="none"></path></g><g transform="translate(434.0000915527344 268.61119079589844) rotate(0 134.52792358398438 10)"><text x="0" y="0" font-family="Virgil, Segoe UI Emoji" font-size="16px" fill="#1e1e1e" text-anchor="start" style="white-space: pre;" direction="ltr" dominant-baseline="text-before-edge">26Wa / EWR / 08:25-09:10 / qrs</text></g><g stroke-linecap="round" transform="translate(427.5001525878906 339.7222595214844) rotate(0 144.888916015625 16.666656494140625)"><path d="M8.33 0 M8.33 0 C115.68 2.11, 223.19 -0.32, 281.44 0 M8.33 0 C107.74 0.17, 205.97 0.77, 281.44 0 M281.44 0 C286.13 -0.92, 289.91 2.56, 289.78 8.33 M281.44 0 C286.71 1.98, 292.03 1.23, 289.78 8.33 M289.78 8.33 C288.74 14.34, 289.78 20.76, 289.78 25 M289.78 8.33 C289.82 14.67, 290.4 20.87, 289.78 25 M289.78 25 C289.82 29.27, 287.22 34.49, 281.44 33.33 M289.78 25 C290.47 28.76, 287.37 34.29, 281.44 33.33 M281.44 33.33 C188.43 36.7, 94.59 34.76, 8.33 33.33 M281.44 33.33 C200.73 32.78, 119.47 32.4, 8.33 33.33 M8.33 33.33 C1.92 32.74, -0.78 28.68, 0 25 M8.33 33.33 C4 31.68, 0.02 29.86, 0 25 M0 25 C-0.51 22.43, -1.07 18.03, 0 8.33 M0 25 C-0.12 20.5, 0.47 16.34, 0 8.33 M0 8.33 C1.95 2.44, 1.51 1.55, 8.33 0 M0 8.33 C0.58 1.13, 4.92 -0.24, 8.33 0" stroke="#1e1e1e" stroke-width="1" fill="none"></path></g><g transform="translate(437.7223815917969 348.00010681152344) rotate(0 123.06392669677734 10)"><text x="0" y="0" font-family="Virgil, Segoe UI Emoji" font-size="16px" fill="#1e1e1e" text-anchor="start" style="white-space: pre;" direction="ltr" dominant-baseline="text-before-edge">25Gh / Info / 10:25-11:15 / xyz</text></g><g stroke-linecap="round" transform="translate(428.7223205566406 378.0555725097656) rotate(0 144.888916015625 16.666656494140625)"><path d="M8.33 0 M8.33 0 C111 1.22, 211.26 3.1, 281.44 0 M8.33 0 C71.74 -0.59, 135.88 -0.32, 281.44 0 M281.44 0 C286.75 1.72, 291.74 1.43, 289.78 8.33 M281.44 0 C289.23 0.1, 289.34 1.34, 289.78 8.33 M289.78 8.33 C290.83 11.5, 291.04 17.43, 289.78 25 M289.78 8.33 C289.94 13.36, 290.02 19.93, 289.78 25 M289.78 25 C290.38 29, 287.32 34.17, 281.44 33.33 M289.78 25 C290.79 28.44, 289.02 34.79, 281.44 33.33 M281.44 33.33 C173.23 33.48, 64.5 33.85, 8.33 33.33 M281.44 33.33 C190.34 32.73, 99.61 32.24, 8.33 33.33 M8.33 33.33 C3.84 31.89, 0.02 29.95, 0 25 M8.33 33.33 C1.61 34.16, -2.26 29.93, 0 25 M0 25 C-0.23 16.76, 1.71 11.27, 0 8.33 M0 25 C0.75 19.54, -0.59 15, 0 8.33 M0 8.33 C0.5 1.34, 4.64 -0.21, 8.33 0 M0 8.33 C0.23 2.2, 1.86 -1.59, 8.33 0" stroke="#1e1e1e" stroke-width="1" fill="none"></path></g><g transform="translate(439.3888854980469 386.33335876464844) rotate(0 126.6639175415039 10)"><text x="0" y="0" font-family="Virgil, Segoe UI Emoji" font-size="16px" fill="#1e1e1e" text-anchor="start" style="white-space: pre;" direction="ltr" dominant-baseline="text-before-edge">25mT / Physik / 10:25-11:15 / jkl</text></g><g transform="translate(423.7778015136719 16.722213745117188) rotate(0 53.14397430419922 17.5)"><text x="0" y="0" font-family="Virgil, Segoe UI Emoji" font-size="28px" fill="#1e1e1e" text-anchor="start" style="white-space: pre;" direction="ltr" dominant-baseline="text-before-edge">Lessons</text></g><g stroke-linecap="round" transform="translate(410.4445495605469 10) rotate(0 156.66668701171875 220.88888549804688)"><path d="M32 0 M32 0 C111.93 1.63, 197.4 1.19, 281.33 0 M32 0 C109.12 -5.3, 188.38 -5.29, 281.33 0 M281.33 0 C303.35 1, 310.59 11.97, 313.33 32 M281.33 0 C302.02 2.85, 310.5 8.58, 313.33 32 M313.33 32 C311.98 176.94, 308.73 318.7, 313.33 409.78 M313.33 32 C312.47 158.17, 312.61 281.59, 313.33 409.78 M313.33 409.78 C314.5 430.9, 306.02 441.03, 281.33 441.78 M313.33 409.78 C315.22 427.87, 305.64 437.93, 281.33 441.78 M281.33 441.78 C198.03 442.43, 112.52 444.61, 32 441.78 M281.33 441.78 C201.95 444.24, 124.65 443.87, 32 441.78 M32 441.78 C14.17 445.52, 3.15 429.25, 0 409.78 M32 441.78 C10.24 445.11, -0.4 427.25, 0 409.78 M0 409.78 C3.72 271.59, 2.15 136.88, 0 32 M0 409.78 C1.95 312.8, 3.12 217.3, 0 32 M0 32 C-2.7 14.54, 10.84 -0.77, 32 0 M0 32 C-2.88 8.98, 10.65 -2.21, 32 0" stroke="#1e1e1e" stroke-width="1" fill="none"></path></g><g stroke-linecap="round" transform="translate(757.5555725097656 10.88885498046875) rotate(0 81.26615535684721 224.88888549804688)"><path d="M32 0 M32 0 C55.34 2.89, 75.78 -1.45, 130.53 0 M32 0 C65.34 3.27, 97.88 0.24, 130.53 0 M130.53 0 C152.14 0, 163.04 10.66, 162.53 32 M130.53 0 C147.74 0.71, 160.14 7.71, 162.53 32 M162.53 32 C158.19 158.39, 159.45 285.48, 162.53 417.78 M162.53 32 C159.32 115.52, 159.37 198.89, 162.53 417.78 M162.53 417.78 C164.61 437.46, 153.27 452.42, 130.53 449.78 M162.53 417.78 C159.58 438.09, 151.09 451.79, 130.53 449.78 M130.53 449.78 C94.03 446.47, 59.37 444.82, 32 449.78 M130.53 449.78 C92.85 446.89, 53.26 446.91, 32 449.78 M32 449.78 C6.93 453.32, -0.62 435.66, 0 417.78 M32 449.78 C10.05 448.16, -3.65 439.37, 0 417.78 M0 417.78 C-5.67 328.06, -4.18 240.4, 0 32 M0 417.78 C2.64 277.4, 2.04 137.67, 0 32 M0 32 C-3.26 9.47, 7.92 0.2, 32 0 M0 32 C-3.59 6.29, 9.45 -4.59, 32 0" stroke="#1e1e1e" stroke-width="1" fill="none"></path></g><g transform="translate(772.9846309374414 22.812394759691742) rotate(0 63.09059143066406 17.3961440132727)"><text x="0" y="0" font-family="Virgil, Segoe UI Emoji" font-size="27.83383042123632px" fill="#1e1e1e" text-anchor="start" style="white-space: pre;" direction="ltr" dominant-baseline="text-before-edge">Teachers</text></g><g stroke-linecap="round" transform="translate(781.5556945800781 222.888916015625) rotate(0 58.00006103515625 14.22222900390625)"><path d="M7.11 0 M7.11 0 C48.39 -1.14, 87.17 -0.76, 108.89 0 M7.11 0 C29.6 1.09, 51.55 0.87, 108.89 0 M108.89 0 C112.89 -0.05, 116.53 1.43, 116 7.11 M108.89 0 C112 -1.81, 116.36 1.01, 116 7.11 M116 7.11 C114.9 9.62, 116.18 15.37, 116 21.33 M116 7.11 C115.56 12.37, 115.66 17.58, 116 21.33 M116 21.33 C117.18 27.14, 114.5 28.75, 108.89 28.44 M116 21.33 C114.57 27.11, 112.76 28.2, 108.89 28.44 M108.89 28.44 C78.95 27.16, 44.18 29.75, 7.11 28.44 M108.89 28.44 C85.35 28.07, 63.42 27.94, 7.11 28.44 M7.11 28.44 C0.46 29.16, 1.39 26.69, 0 21.33 M7.11 28.44 C0.48 28.6, 0 26.36, 0 21.33 M0 21.33 C-0.61 16.15, 0.55 11.65, 0 7.11 M0 21.33 C0.22 15.48, -0.56 9.68, 0 7.11 M0 7.11 C1.19 2.94, 3.06 0.66, 7.11 0 M0 7.11 C1.32 3.56, 1.42 0.81, 7.11 0" stroke="#2f9e44" stroke-width="4" fill="none"></path></g><g transform="translate(788.6667785644531 76.16668701171875) rotate(0 30.00798797607422 10)"><text x="0" y="0" font-family="Virgil, Segoe UI Emoji" font-size="16px" fill="#1e1e1e" text-anchor="start" style="white-space: pre;" direction="ltr" dominant-baseline="text-before-edge">abc / F</text></g><g transform="translate(791.1111755371094 116.05557250976562) rotate(0 34.519981384277344 10)"><text x="0" y="0" font-family="Virgil, Segoe UI Emoji" font-size="16px" fill="#1e1e1e" text-anchor="start" style="white-space: pre;" direction="ltr" dominant-baseline="text-before-edge">fgh / Mu</text></g><g transform="translate(791.6668395996094 155.05555725097656) rotate(0 43.95196533203125 10)"><text x="0" y="0" font-family="Virgil, Segoe UI Emoji" font-size="16px" fill="#1e1e1e" text-anchor="start" style="white-space: pre;" direction="ltr" dominant-baseline="text-before-edge">jkl / Inf, P</text></g><g transform="translate(793.4445495605469 192.61114501953125) rotate(0 40.93597412109375 10)"><text x="0" y="0" font-family="Virgil, Segoe UI Emoji" font-size="16px" fill="#1e1e1e" text-anchor="start" style="white-space: pre;" direction="ltr" dominant-baseline="text-before-edge">qrs / EWR</text></g><g transform="translate(795.3334655761719 228.8333740234375) rotate(0 48.991973876953125 10)"><text x="0" y="0" font-family="Virgil, Segoe UI Emoji" font-size="16px" fill="#1e1e1e" text-anchor="start" style="white-space: pre;" direction="ltr" dominant-baseline="text-before-edge">xyz / M, Inf</text></g><g stroke-linecap="round" transform="translate(954.2223205566406 12.22222900390625) rotate(0 129.5555419921875 226)"><path d="M32 0 M32 0 C91.44 1.44, 154.66 4.85, 227.11 0 M32 0 C94.6 -3.42, 156.59 -3.34, 227.11 0 M227.11 0 C246.93 3.19, 261.18 14.59, 259.11 32 M227.11 0 C247.94 -3.61, 256.6 8.6, 259.11 32 M259.11 32 C258.83 119.04, 260.01 202.58, 259.11 420 M259.11 32 C259.3 182.47, 258.82 332.58, 259.11 420 M259.11 420 C262.18 444.52, 250.89 451.59, 227.11 452 M259.11 420 C261.65 441.31, 245.9 455.81, 227.11 452 M227.11 452 C171.64 455.88, 108.99 454.25, 32 452 M227.11 452 C168.08 454.23, 108.69 454.07, 32 452 M32 452 C7.58 455.45, -2.37 444.46, 0 420 M32 452 C12.88 447.78, 4.46 437.49, 0 420 M0 420 C0.3 310.95, 3.83 196.34, 0 32 M0 420 C-0.7 314.43, 0.95 211.13, 0 32 M0 32 C1.43 14.19, 8.13 -1.49, 32 0 M0 32 C0.34 7.13, 11.61 -1.27, 32 0" stroke="#1e1e1e" stroke-width="1" fill="none"></path></g><g transform="translate(972.8890686035156 24.72222900390625) rotate(0 52.49998474121094 17.5)"><text x="0" y="0" font-family="Virgil, Segoe UI Emoji" font-size="28px" fill="#1e1e1e" text-anchor="start" style="white-space: pre;" direction="ltr" dominant-baseline="text-before-edge">Classes</text></g><g stroke-linecap="round" transform="translate(973.3334045410156 71.77777099609375) rotate(0 110.66668701171875 12.666671752929688)"><path d="M6.33 0 M6.33 0 C54.34 0.23, 104.57 -0.93, 215 0 M6.33 0 C69.11 -1.57, 133.7 -2.1, 215 0 M215 0 C217.43 1.54, 222.36 3.57, 221.33 6.33 M215 0 C217.15 -0.83, 219.05 4.36, 221.33 6.33 M221.33 6.33 C222.55 11.9, 220.91 16.38, 221.33 19 M221.33 6.33 C220.97 9.96, 221.41 13.06, 221.33 19 M221.33 19 C222.36 22.02, 218.6 24.94, 215 25.33 M221.33 19 C219.44 24.47, 218.33 27.48, 215 25.33 M215 25.33 C140.17 24.47, 67.2 25.44, 6.33 25.33 M215 25.33 C162.06 25.9, 109.85 25.43, 6.33 25.33 M6.33 25.33 C1.19 26.36, -1.01 22.47, 0 19 M6.33 25.33 C1.8 24.41, -1.64 24.55, 0 19 M0 19 C0.22 13.59, 0.44 9.85, 0 6.33 M0 19 C0.31 16.31, 0.26 14.02, 0 6.33 M0 6.33 C0.91 2.93, 1.93 -1.02, 6.33 0 M0 6.33 C1.53 3.91, 1.91 -1.81, 6.33 0" stroke="#2f9e44" stroke-width="4" fill="none"></path></g><g transform="translate(980.8889465332031 74.27781677246094) rotate(0 88.7999496459961 10)"><text x="0" y="0" font-family="Virgil, Segoe UI Emoji" font-size="16px" fill="#1e1e1e" text-anchor="start" style="white-space: pre;" direction="ltr" dominant-baseline="text-before-edge">25Gh / 25h / Englisch</text></g><g stroke-linecap="round" transform="translate(973.3334655761719 109.88887786865234) rotate(0 109.77783203125 12.222206115722656)"><path d="M6.11 0 M6.11 0 C67.09 0.35, 126.17 -1.45, 213.44 0 M6.11 0 C53.04 0.52, 98.89 0.82, 213.44 0 M213.44 0 C216.27 0.41, 220.83 1.1, 219.56 6.11 M213.44 0 C216.08 0.1, 218.9 0.78, 219.56 6.11 M219.56 6.11 C220.36 7.99, 219.65 10.62, 219.56 18.33 M219.56 6.11 C219.67 9.49, 219.47 13.86, 219.56 18.33 M219.56 18.33 C218.47 21.96, 219.31 25.01, 213.44 24.44 M219.56 18.33 C220.3 23.39, 215.87 25.45, 213.44 24.44 M213.44 24.44 C161.28 22.69, 105.84 21.87, 6.11 24.44 M213.44 24.44 C144.6 25.13, 77.72 25.46, 6.11 24.44 M6.11 24.44 C0.94 24.14, -0.43 21.8, 0 18.33 M6.11 24.44 C4.26 24.31, 2.12 22.05, 0 18.33 M0 18.33 C-0.53 15.56, 1.19 12.69, 0 6.11 M0 18.33 C0.12 14.4, -0.04 10.86, 0 6.11 M0 6.11 C0.13 2.44, 2.2 -1.92, 6.11 0 M0 6.11 C-0.44 2.41, 0.92 -1.36, 6.11 0" stroke="#1e1e1e" stroke-width="1" fill="none"></path></g><g transform="translate(982.2222595214844 113.8333511352539) rotate(0 82.34396362304688 10)"><text x="0" y="0" font-family="Virgil, Segoe UI Emoji" font-size="16px" fill="#1e1e1e" text-anchor="start" style="white-space: pre;" direction="ltr" dominant-baseline="text-before-edge">25mT / 25K / PAM </text></g><g stroke-linecap="round" transform="translate(974.5555114746094 146.00000762939453) rotate(0 109.33343505859375 12.222221374511719)"><path d="M6.11 0 M6.11 0 C84.91 1.55, 165.6 -0.3, 212.56 0 M6.11 0 C58.96 0.22, 112.42 -0.21, 212.56 0 M212.56 0 C217.89 -1.92, 219.57 2.69, 218.67 6.11 M212.56 0 C215.76 -1.04, 217.72 4.31, 218.67 6.11 M218.67 6.11 C217.63 9.09, 218.03 12.52, 218.67 18.33 M218.67 6.11 C218.33 9.97, 219.03 12.63, 218.67 18.33 M218.67 18.33 C218.81 24.27, 216.17 23.92, 212.56 24.44 M218.67 18.33 C217.37 21.16, 218.17 24.76, 212.56 24.44 M212.56 24.44 C157.51 26.81, 106.33 25.94, 6.11 24.44 M212.56 24.44 C166.11 25.39, 120.47 24.19, 6.11 24.44 M6.11 24.44 C0.97 24.7, 0.25 20.68, 0 18.33 M6.11 24.44 C1.95 24.63, -0.66 20.79, 0 18.33 M0 18.33 C0.62 13.15, 1.22 8.6, 0 6.11 M0 18.33 C0.09 15.41, -0.5 12.81, 0 6.11 M0 6.11 C-1.41 2.56, 3.68 1.73, 6.11 0 M0 6.11 C2.28 0.47, 1.19 -0.49, 6.11 0" stroke="#2f9e44" stroke-width="4" fill="none"></path></g><g transform="translate(982.1110534667969 146.83336639404297) rotate(0 106.48796081542969 10)"><text x="0" y="0" font-family="Virgil, Segoe UI Emoji" font-size="16px" fill="#1e1e1e" text-anchor="start" style="white-space: pre;" direction="ltr" dominant-baseline="text-before-edge">26Ge / 26e / PAM + BG </text></g><g stroke-linecap="round" transform="translate(974.6232147216797 179.58332061767578) rotate(0 109.33343505859375 12.222221374511719)"><path d="M6.11 0 M6.11 0 C51.58 0.48, 92.48 -0.93, 212.56 0 M6.11 0 C53.21 -1.04, 100.24 -1.55, 212.56 0 M212.56 0 C214.78 -1.35, 217.17 1.33, 218.67 6.11 M212.56 0 C217.61 -1.39, 220.69 1.01, 218.67 6.11 M218.67 6.11 C219.3 9.1, 218.62 12.5, 218.67 18.33 M218.67 6.11 C218.34 9.45, 218.93 12.75, 218.67 18.33 M218.67 18.33 C219.67 22.16, 215.72 25.42, 212.56 24.44 M218.67 18.33 C219.58 20.46, 215.04 23.99, 212.56 24.44 M212.56 24.44 C139.51 22.79, 70.26 23.32, 6.11 24.44 M212.56 24.44 C159.97 25.94, 108.02 25.91, 6.11 24.44 M6.11 24.44 C2.97 26.18, -1.45 22.22, 0 18.33 M6.11 24.44 C0.28 26.14, -1.06 24.18, 0 18.33 M0 18.33 C0.65 14.95, 0.86 13.9, 0 6.11 M0 18.33 C0.61 14.52, -0.56 12.06, 0 6.11 M0 6.11 C-0.04 3, 1.21 1.01, 6.11 0 M0 6.11 C-0.28 2.05, 4.24 -1.35, 6.11 0" stroke="#1e1e1e" stroke-width="1" fill="none"></path></g><g transform="translate(982.6232147216797 184.41667938232422) rotate(0 76.90396881103516 10)"><text x="0" y="0" font-family="Virgil, Segoe UI Emoji" font-size="16px" fill="#1e1e1e" text-anchor="start" style="white-space: pre;" direction="ltr" dominant-baseline="text-before-edge">26mP / 26P / ED </text></g><g stroke-linecap="round" transform="translate(975.1788787841797 212.47220611572266) rotate(0 109.33343505859375 12.222221374511719)"><path d="M6.11 0 M6.11 0 C72.17 0.01, 139.49 -0.87, 212.56 0 M6.11 0 C88.37 0.03, 170.32 1.08, 212.56 0 M212.56 0 C215.93 1.28, 218.3 3.58, 218.67 6.11 M212.56 0 C214.93 -1.5, 219.03 4.04, 218.67 6.11 M218.67 6.11 C219.15 8.55, 218.98 13.58, 218.67 18.33 M218.67 6.11 C218.49 8.8, 219.18 10.92, 218.67 18.33 M218.67 18.33 C217.57 22.37, 218.21 22.64, 212.56 24.44 M218.67 18.33 C216.51 20.59, 217.9 22.25, 212.56 24.44 M212.56 24.44 C164.1 24.25, 115.51 25.65, 6.11 24.44 M212.56 24.44 C160.11 25.87, 109.07 25.13, 6.11 24.44 M6.11 24.44 C3.4 24.89, -1.55 22.67, 0 18.33 M6.11 24.44 C0.14 26.46, 1.08 23.26, 0 18.33 M0 18.33 C1.31 14.31, 1.1 10.53, 0 6.11 M0 18.33 C-0.45 15.96, 0.32 12.86, 0 6.11 M0 6.11 C-0.43 1.39, 1.79 1.16, 6.11 0 M0 6.11 C1.21 -0.04, 1.66 0.67, 6.11 0" stroke="#1e1e1e" stroke-width="1" fill="none"></path></g><g transform="translate(982.7344207763672 217.3055648803711) rotate(0 49.80797576904297 10)"><text x="0" y="0" font-family="Virgil, Segoe UI Emoji" font-size="16px" fill="#1e1e1e" text-anchor="start" style="white-space: pre;" direction="ltr" dominant-baseline="text-before-edge">26Wa / 26w</text></g><g stroke-linecap="round" transform="translate(1240.3335266113281 12.555511474609375) rotate(0 129.5555419921875 226)"><path d="M32 0 M32 0 C91.64 1.44, 145.01 4.38, 227.11 0 M32 0 C84.75 -0.53, 138.91 -0.95, 227.11 0 M227.11 0 C249.95 -2.62, 256.65 11.91, 259.11 32 M227.11 0 C244.46 0.84, 258.31 9.27, 259.11 32 M259.11 32 C260.35 161.65, 256.47 294.59, 259.11 420 M259.11 32 C262.11 113.83, 264.15 196.81, 259.11 420 M259.11 420 C258.1 444.98, 250.2 449.31, 227.11 452 M259.11 420 C260.03 438.02, 247.69 448.45, 227.11 452 M227.11 452 C181.94 445.3, 135.14 448.17, 32 452 M227.11 452 C184.81 454.84, 144.4 454.36, 32 452 M32 452 C9.13 453.22, 3.64 438.7, 0 420 M32 452 C10.32 453.52, -1.81 443.27, 0 420 M0 420 C2.33 309.6, 2.07 201.85, 0 32 M0 420 C-2.69 326.55, -3.4 234.64, 0 32 M0 32 C2.89 11.83, 12.07 -3.97, 32 0 M0 32 C2.43 8.5, 14.65 -1.55, 32 0" stroke="#1e1e1e" stroke-width="1" fill="none"></path></g><g transform="translate(1259.0002746582031 25.055511474609375) rotate(0 87.31796264648438 17.5)"><text x="0" y="0" font-family="Virgil, Segoe UI Emoji" font-size="28px" fill="#1e1e1e" text-anchor="start" style="white-space: pre;" direction="ltr" dominant-baseline="text-before-edge">Departments</text></g><g stroke-linecap="round" transform="translate(1259.4446105957031 72.11105346679688) rotate(0 110.66668701171875 12.666671752929688)"><path d="M6.33 0 M6.33 0 C58.22 0.92, 110.63 -1.24, 215 0 M6.33 0 C55.29 1.04, 103.03 1.9, 215 0 M215 0 C217.49 0.37, 220.99 1.51, 221.33 6.33 M215 0 C220.05 -0.28, 221.58 3.86, 221.33 6.33 M221.33 6.33 C220.11 10.88, 221.45 12, 221.33 19 M221.33 6.33 C221.28 10.13, 221.72 12.34, 221.33 19 M221.33 19 C221.73 21.78, 218.89 23.79, 215 25.33 M221.33 19 C220.06 25.12, 217.38 26.81, 215 25.33 M215 25.33 C169.39 25.74, 128.62 23.46, 6.33 25.33 M215 25.33 C158.32 24.6, 103.12 23.75, 6.33 25.33 M6.33 25.33 C1.96 26, -0.78 24.06, 0 19 M6.33 25.33 C1.62 25.01, 2.2 24.87, 0 19 M0 19 C-0.84 17.25, 1.12 14.21, 0 6.33 M0 19 C0.49 15.67, 0.26 11.34, 0 6.33 M0 6.33 C1.06 1.17, 3.84 -0.67, 6.33 0 M0 6.33 C1.06 0.33, 3.61 -0.57, 6.33 0" stroke="#2f9e44" stroke-width="4" fill="none"></path></g><g transform="translate(1267.0001525878906 75.61109924316406) rotate(0 40.095985412597656 10)"><text x="0" y="0" font-family="Virgil, Segoe UI Emoji" font-size="16px" fill="#1e1e1e" text-anchor="start" style="white-space: pre;" direction="ltr" dominant-baseline="text-before-edge">G / GBSL</text></g><g stroke-linecap="round" transform="translate(1259.4446716308594 110.22216033935547) rotate(0 109.77783203125 12.222206115722656)"><path d="M6.11 0 M6.11 0 C83.19 0.5, 161.1 1.49, 213.44 0 M6.11 0 C53.94 -0.41, 103.15 -0.84, 213.44 0 M213.44 0 C218.24 -0.24, 219.77 3.56, 219.56 6.11 M213.44 0 C216.82 -2.05, 221.39 0.02, 219.56 6.11 M219.56 6.11 C219.01 11.87, 219.65 15.33, 219.56 18.33 M219.56 6.11 C219.73 10.45, 219.51 15.2, 219.56 18.33 M219.56 18.33 C218.45 24.06, 215.91 25.73, 213.44 24.44 M219.56 18.33 C217.5 24.42, 217.11 22.32, 213.44 24.44 M213.44 24.44 C142.19 21.4, 71.03 22.15, 6.11 24.44 M213.44 24.44 C144.86 23.53, 76.07 23.61, 6.11 24.44 M6.11 24.44 C1.61 24.16, 1.92 23.84, 0 18.33 M6.11 24.44 C-0.14 25.85, -1.76 21.03, 0 18.33 M0 18.33 C-0.39 13.5, 0.94 10.23, 0 6.11 M0 18.33 C0.28 14.02, 0.49 10.09, 0 6.11 M0 6.11 C0.92 0.49, 3.34 -0.49, 6.11 0 M0 6.11 C1.92 0.29, 0.22 -0.36, 6.11 0" stroke="#1e1e1e" stroke-width="1" fill="none"></path></g><g transform="translate(1268.3334655761719 114.16663360595703) rotate(0 40.079978942871094 10)"><text x="0" y="0" font-family="Virgil, Segoe UI Emoji" font-size="16px" fill="#1e1e1e" text-anchor="start" style="white-space: pre;" direction="ltr" dominant-baseline="text-before-edge">m / GBJB</text></g><g stroke-linecap="round" transform="translate(1260.6667175292969 262.33325958251953) rotate(0 109.33343505859375 12.222221374511719)"><path d="M6.11 0 M6.11 0 C63.15 -1.79, 123.08 -2.23, 212.56 0 M6.11 0 C72.13 0.45, 137.61 1.23, 212.56 0 M212.56 0 C216.02 -1.78, 220.26 0.28, 218.67 6.11 M212.56 0 C218.69 0.42, 216.55 0.98, 218.67 6.11 M218.67 6.11 C219.79 11.32, 217.85 15.69, 218.67 18.33 M218.67 6.11 C218.31 9.4, 218.16 12.08, 218.67 18.33 M218.67 18.33 C216.88 24.15, 216.28 22.6, 212.56 24.44 M218.67 18.33 C219.61 24.44, 214.62 23.75, 212.56 24.44 M212.56 24.44 C167.77 25.35, 120.72 23.6, 6.11 24.44 M212.56 24.44 C143.6 25.09, 75.88 25.85, 6.11 24.44 M6.11 24.44 C0.14 25.66, -1.53 21.21, 0 18.33 M6.11 24.44 C3.59 26.61, 0.75 21.89, 0 18.33 M0 18.33 C0.25 15.44, -1.32 12.34, 0 6.11 M0 18.33 C0.17 14.77, 0.29 12, 0 6.11 M0 6.11 C1.67 0.52, 0.46 -0.32, 6.11 0 M0 6.11 C1.36 3.4, 0.1 -1.99, 6.11 0" stroke="#1e1e1e" stroke-width="1" fill="none"></path></g><g transform="translate(1268.2222595214844 267.16661834716797) rotate(0 34.92798614501953 10)"><text x="0" y="0" font-family="Virgil, Segoe UI Emoji" font-size="16px" fill="#1e1e1e" text-anchor="start" style="white-space: pre;" direction="ltr" dominant-baseline="text-before-edge">W / WMS</text></g><g stroke-linecap="round" transform="translate(1259.4011688232422 168.80548858642578) rotate(0 109.33343505859375 12.222221374511719)"><path d="M6.11 0 M6.11 0 C55.68 1.28, 104.07 2.23, 212.56 0 M6.11 0 C65.28 -2.19, 125.7 -2.18, 212.56 0 M212.56 0 C218.42 0.36, 216.83 1.12, 218.67 6.11 M212.56 0 C218.52 0.13, 218.09 4.13, 218.67 6.11 M218.67 6.11 C217.7 10.12, 217.64 13.84, 218.67 18.33 M218.67 6.11 C218.02 11.32, 218.46 14.9, 218.67 18.33 M218.67 18.33 C219.49 24.17, 214.88 23.84, 212.56 24.44 M218.67 18.33 C216.82 21.16, 215.74 25.14, 212.56 24.44 M212.56 24.44 C132.45 23.61, 51.91 23.93, 6.11 24.44 M212.56 24.44 C152.69 26.3, 93.83 25.23, 6.11 24.44 M6.11 24.44 C3.38 26.33, 0.65 21.96, 0 18.33 M6.11 24.44 C1.38 26.43, 1.66 23.07, 0 18.33 M0 18.33 C-0.45 15.3, -0.29 10.7, 0 6.11 M0 18.33 C0.43 15.15, -0.56 12.8, 0 6.11 M0 6.11 C1.18 3.22, 0.35 -1.73, 6.11 0 M0 6.11 C0.61 3.02, 0.21 1.09, 6.11 0" stroke="#1e1e1e" stroke-width="1" fill="none"></path></g><g transform="translate(1267.4011688232422 173.63884735107422) rotate(0 36.175987243652344 10)"><text x="0" y="0" font-family="Virgil, Segoe UI Emoji" font-size="16px" fill="#1e1e1e" text-anchor="start" style="white-space: pre;" direction="ltr" dominant-baseline="text-before-edge">F / FMS </text></g><g stroke-linecap="round" transform="translate(1259.9568328857422 201.69437408447266) rotate(0 109.33343505859375 12.222221374511719)"><path d="M6.11 0 M6.11 0 C64.25 -0.47, 124.18 -1.2, 212.56 0 M6.11 0 C50.42 1.77, 92.31 1.2, 212.56 0 M212.56 0 C218.27 0.11, 218.16 3.86, 218.67 6.11 M212.56 0 C217.64 -1.55, 219.13 0.38, 218.67 6.11 M218.67 6.11 C219.58 8.6, 219.36 11.95, 218.67 18.33 M218.67 6.11 C218.9 11.38, 218.11 15.4, 218.67 18.33 M218.67 18.33 C217.06 21.32, 215.86 25.05, 212.56 24.44 M218.67 18.33 C220.76 20.89, 216.46 25.21, 212.56 24.44 M212.56 24.44 C158.47 25.76, 106.17 22.37, 6.11 24.44 M212.56 24.44 C138.64 24.18, 63.82 23.15, 6.11 24.44 M6.11 24.44 C1.47 26.17, 1.44 22.99, 0 18.33 M6.11 24.44 C2.85 22.16, 1.22 21.33, 0 18.33 M0 18.33 C-0.91 14.41, -0.26 9.9, 0 6.11 M0 18.33 C0.46 15.96, -0.42 12.32, 0 6.11 M0 6.11 C0.53 2.89, 0.45 0.94, 6.11 0 M0 6.11 C-2.28 -0.19, 0.18 -1.5, 6.11 0" stroke="#1e1e1e" stroke-width="1" fill="none"></path></g><g transform="translate(1267.5123748779297 206.5277328491211) rotate(0 33.199981689453125 10)"><text x="0" y="0" font-family="Virgil, Segoe UI Emoji" font-size="16px" fill="#1e1e1e" text-anchor="start" style="white-space: pre;" direction="ltr" dominant-baseline="text-before-edge">s / ECG</text></g><g stroke-linecap="round" transform="translate(1258.9998474121094 292.36109161376953) rotate(0 109.33343505859375 12.222221374511719)"><path d="M6.11 0 M6.11 0 C79.05 3.37, 155.46 3.04, 212.56 0 M6.11 0 C59.34 2.08, 110.92 1.55, 212.56 0 M212.56 0 C215.49 0, 217.47 1.16, 218.67 6.11 M212.56 0 C216.16 -0.56, 219.19 4.25, 218.67 6.11 M218.67 6.11 C218.51 8.52, 217.69 13.03, 218.67 18.33 M218.67 6.11 C218.84 9.02, 218.9 12.23, 218.67 18.33 M218.67 18.33 C217.39 23.86, 215.55 22.81, 212.56 24.44 M218.67 18.33 C218.54 24.6, 218.15 25.63, 212.56 24.44 M212.56 24.44 C159.14 25.36, 106.39 23.7, 6.11 24.44 M212.56 24.44 C135.38 25.96, 58.23 27.05, 6.11 24.44 M6.11 24.44 C3.62 24.11, -1.38 21.48, 0 18.33 M6.11 24.44 C2.91 22.48, -0.9 22.87, 0 18.33 M0 18.33 C0.82 14.67, 0.3 10.31, 0 6.11 M0 18.33 C0.19 14.08, -0.2 10.6, 0 6.11 M0 6.11 C1.49 1.98, 0.89 1.09, 6.11 0 M0 6.11 C2 0.13, 4.28 1, 6.11 0" stroke="#1e1e1e" stroke-width="1" fill="none"></path></g><g transform="translate(1266.5553894042969 297.19445037841797) rotate(0 31.423988342285156 10)"><text x="0" y="0" font-family="Virgil, Segoe UI Emoji" font-size="16px" fill="#1e1e1e" text-anchor="start" style="white-space: pre;" direction="ltr" dominant-baseline="text-before-edge">c / ESC</text></g><g stroke-linecap="round" transform="translate(781.6666946411133 187.33340454101562) rotate(0 58.00006103515625 14.22222900390625)"><path d="M7.11 0 M7.11 0 C35.1 -0.47, 67.81 0.94, 108.89 0 M7.11 0 C30.16 1.41, 52.9 -0.34, 108.89 0 M108.89 0 C112.58 0.67, 115.55 1.17, 116 7.11 M108.89 0 C114.09 0.33, 114.66 1.86, 116 7.11 M116 7.11 C114.8 10.5, 117.35 14.89, 116 21.33 M116 7.11 C116.28 11.16, 115.37 15.82, 116 21.33 M116 21.33 C114.24 26.68, 112.67 27.85, 108.89 28.44 M116 21.33 C114.52 27.78, 114.28 28.38, 108.89 28.44 M108.89 28.44 C73.27 29.25, 41.93 28.76, 7.11 28.44 M108.89 28.44 C83.17 28.04, 57.77 28.68, 7.11 28.44 M7.11 28.44 C2.47 30.09, 1.93 25.42, 0 21.33 M7.11 28.44 C0.26 27.93, 1.3 26.08, 0 21.33 M0 21.33 C1.39 18.57, -1.21 14.08, 0 7.11 M0 21.33 C0.36 16.15, -0.63 10.81, 0 7.11 M0 7.11 C0.69 0.66, 3.12 -1.86, 7.11 0 M0 7.11 C-0.75 0.48, 1.1 1.42, 7.11 0" stroke="#1e1e1e" stroke-width="1" fill="none"></path></g><g stroke-linecap="round" transform="translate(780.0000686645508 150.77786254882812) rotate(0 58.00006103515625 14.22222900390625)"><path d="M7.11 0 M7.11 0 C45.91 0.07, 84.96 -1.37, 108.89 0 M7.11 0 C36.85 -0.08, 67.25 -0.17, 108.89 0 M108.89 0 C113.56 -1.18, 117.22 2.47, 116 7.11 M108.89 0 C115.52 2.21, 115.25 0.26, 116 7.11 M116 7.11 C115.5 9.91, 116.23 16.28, 116 21.33 M116 7.11 C116.44 12.59, 115.9 17.9, 116 21.33 M116 21.33 C116.61 24.47, 114.43 29.13, 108.89 28.44 M116 21.33 C114.03 26.93, 111.5 27.69, 108.89 28.44 M108.89 28.44 C85.72 27.91, 62.61 29.54, 7.11 28.44 M108.89 28.44 C75.29 27.73, 40.4 28, 7.11 28.44 M7.11 28.44 C1.84 27.39, -0.79 27.26, 0 21.33 M7.11 28.44 C2.89 28.03, 1.35 24.97, 0 21.33 M0 21.33 C-0.42 17.79, 0.1 12.03, 0 7.11 M0 21.33 C-0.48 18.63, -0.32 14.3, 0 7.11 M0 7.11 C0.8 1.44, 2.36 -1.97, 7.11 0 M0 7.11 C-1.96 0.7, 0.62 0.44, 7.11 0" stroke="#2f9e44" stroke-width="4" fill="none"></path></g><g stroke-linecap="round" transform="translate(780.0000686645508 111.44451904296875) rotate(0 58.00006103515625 14.22222900390625)"><path d="M7.11 0 M7.11 0 C39.81 -0.77, 77.02 -0.66, 108.89 0 M7.11 0 C32.13 -1.22, 56.25 0.54, 108.89 0 M108.89 0 C112.52 0.55, 115.44 1.84, 116 7.11 M108.89 0 C112.42 -0.91, 117.37 2.89, 116 7.11 M116 7.11 C116.11 10.37, 117.41 14.64, 116 21.33 M116 7.11 C115.48 11.97, 116.46 16.62, 116 21.33 M116 21.33 C117.46 25.08, 111.98 29.25, 108.89 28.44 M116 21.33 C114.92 26.07, 111.36 26.48, 108.89 28.44 M108.89 28.44 C87.62 29.94, 62.32 29.31, 7.11 28.44 M108.89 28.44 C85.11 29.48, 62.63 29.29, 7.11 28.44 M7.11 28.44 C2.65 29.99, -1.32 27.15, 0 21.33 M7.11 28.44 C2.62 30, -1.09 27.24, 0 21.33 M0 21.33 C-0.82 16.87, 0.48 14.67, 0 7.11 M0 21.33 C0.35 15.7, -0.06 10.62, 0 7.11 M0 7.11 C-0.96 3.16, 2.03 1.76, 7.11 0 M0 7.11 C-1.25 1.09, 4.34 1.94, 7.11 0" stroke="#1e1e1e" stroke-width="1" fill="none"></path></g><g stroke-linecap="round" transform="translate(778.7777786254883 73.44451904296875) rotate(0 58.00006103515625 14.22222900390625)"><path d="M7.11 0 M7.11 0 C31.66 -0.41, 56.1 -2.11, 108.89 0 M7.11 0 C31.17 0.46, 53.21 0.15, 108.89 0 M108.89 0 C112.24 0.98, 116.12 1.78, 116 7.11 M108.89 0 C115.87 1.63, 117.8 2.69, 116 7.11 M116 7.11 C116.06 13.44, 115.23 18.57, 116 21.33 M116 7.11 C115.76 10.61, 116.41 15.24, 116 21.33 M116 21.33 C117.96 26.06, 115.47 29.43, 108.89 28.44 M116 21.33 C116.07 25.89, 115.58 27.34, 108.89 28.44 M108.89 28.44 C73.28 28.23, 41.54 31.03, 7.11 28.44 M108.89 28.44 C88.14 27.53, 65.32 27.91, 7.11 28.44 M7.11 28.44 C1.47 29, 0.21 25.9, 0 21.33 M7.11 28.44 C3.85 28.32, -1.17 25.51, 0 21.33 M0 21.33 C0.69 15.45, 0.95 11.82, 0 7.11 M0 21.33 C0.05 16.76, -0.7 13.93, 0 7.11 M0 7.11 C-1.5 3.17, 0.5 -0.31, 7.11 0 M0 7.11 C0.35 0.82, 1.43 2.05, 7.11 0" stroke="#2f9e44" stroke-width="4" fill="none"></path></g><g transform="translate(154.19683837890625 132.8889923095703) rotate(0 28.36998748779297 50)"><text x="56.73997497558594" y="0" font-family="Virgil, Segoe UI Emoji" font-size="20px" fill="#2f9e44" text-anchor="end" style="white-space: pre;" direction="ltr" dominant-baseline="text-before-edge">07:30</text><text x="56.73997497558594" y="25" font-family="Virgil, Segoe UI Emoji" font-size="20px" fill="#2f9e44" text-anchor="end" style="white-space: pre;" direction="ltr" dominant-baseline="text-before-edge"> 11:30</text><text x="56.73997497558594" y="50" font-family="Virgil, Segoe UI Emoji" font-size="20px" fill="#2f9e44" text-anchor="end" style="white-space: pre;" direction="ltr" dominant-baseline="text-before-edge"></text><text x="56.73997497558594" y="75" font-family="Virgil, Segoe UI Emoji" font-size="20px" fill="#2f9e44" text-anchor="end" style="white-space: pre;" direction="ltr" dominant-baseline="text-before-edge"> 25G</text></g><g stroke-linecap="round"><g transform="translate(709.111213684082 127.11119079589844) rotate(0 36.96525944620373 -21.22410494238138)"><path d="M-0.47 -1.02 C11.93 -8.02, 61.65 -34.83, 74.4 -41.43" stroke="#2f9e44" stroke-width="2.5" fill="none" stroke-dasharray="1.5 8"></path></g></g><mask></mask><g stroke-linecap="round"><g transform="translate(454.00012969970703 76.00011444091793) rotate(0 266.8556750401855 -30.078942137747866)"><path d="M0.99 0.29 C59.4 -9.65, 261.47 -59.4, 350.09 -60.43 C438.72 -61.47, 502.26 -14.83, 532.72 -5.93" stroke="#2f9e44" stroke-width="2.5" fill="none" stroke-dasharray="1.5 8"></path></g></g><mask></mask><g stroke-linecap="round" transform="translate(425.55567169189453 502.2222900390625) rotate(0 246.44442749023438 28.222198486328125)"><path d="M14.11 0 M14.11 0 C125.02 -0.13, 235.68 -1.01, 478.78 0 M14.11 0 C184.77 2.76, 355.1 2.03, 478.78 0 M478.78 0 C490.1 -2.51, 493.58 8.48, 492.89 14.11 M478.78 0 C487.2 -3.6, 496.36 7.59, 492.89 14.11 M492.89 14.11 C491.21 22.74, 494.16 32.14, 492.89 42.33 M492.89 14.11 C490.94 22.48, 492.5 27.87, 492.89 42.33 M492.89 42.33 C489.24 48.14, 487.53 55.04, 478.78 56.44 M492.89 42.33 C491.19 48.49, 488.71 59.44, 478.78 56.44 M478.78 56.44 C366.64 54.51, 257.6 54.23, 14.11 56.44 M478.78 56.44 C378.93 53.57, 279.8 52.35, 14.11 56.44 M14.11 56.44 C3.57 57.14, -1.99 49.4, 0 42.33 M14.11 56.44 C2.35 60.64, 3.11 55.48, 0 42.33 M0 42.33 C2.76 34.15, 2.6 17.25, 0 14.11 M0 42.33 C2.07 33.8, -0.95 24.09, 0 14.11 M0 14.11 C1.6 2.81, 5.04 2.21, 14.11 0 M0 14.11 C4.01 2.63, 1.38 2.46, 14.11 0" stroke="#2f9e44" stroke-width="4" fill="none"></path></g><g transform="translate(436.66675567626953 518.3889770507812) rotate(0 208.41986083984375 12.5)"><text x="0" y="0" font-family="Virgil, Segoe UI Emoji" font-size="20px" fill="#2f9e44" text-anchor="start" style="white-space: pre;" direction="ltr" dominant-baseline="text-before-edge">Betrifft: GBSL / 25h, 26e / abc, jkl, xyz</text></g><g stroke-linecap="round"><g transform="translate(708.757106886804 82.44634920507667) rotate(0 36.45341823548074 77.69430999308824)"><path d="M0.23 0.74 C12.18 26.32, 60.6 129.34, 72.68 154.65" stroke="#2f9e44" stroke-width="2.5" fill="none" stroke-dasharray="1.5 8"></path></g></g><mask></mask><g stroke-linecap="round"><g transform="translate(710.7133450701833 197.75014801472426) rotate(0 35.24420130588112 -16.40632393099368)"><path d="M-0.2 0.76 C11.62 -4.75, 58.87 -27.85, 70.69 -33.57" stroke="#2f9e44" stroke-width="2.5" fill="none" stroke-dasharray="1.5 8"></path></g></g><mask></mask><g stroke-linecap="round"><g transform="translate(715.6021390154958 355.08350677937267) rotate(0 32.50863404609265 -58.36968970037995)"><path d="M-0.67 0.1 C10.1 -19.44, 54.49 -97.57, 65.69 -116.84" stroke="#2f9e44" stroke-width="2.5" fill="none" stroke-dasharray="1.5 8"></path></g></g><mask></mask><g stroke-linecap="round"><g transform="translate(467.3110882654785 180.63449938872444) rotate(0 254.9418402526528 -18.637025167757997)"><path d="M-0.61 0.31 C55.58 -5.77, 252.65 -30.75, 337.84 -36 C423.02 -41.25, 481.56 -31.79, 510.5 -31.22" stroke="#2f9e44" stroke-width="2.5" fill="none" stroke-dasharray="1.5 8"></path></g></g><mask></mask></svg>