<svg xmlns="http://www.w3.org/2000/svg" version="1.1" xmlns:xlink="http://www.w3.org/1999/xlink" xmlns:svgjs="http://svgjs.dev/svgjs" width="1000" height="1000" viewBox="0 0 1000 1000"><rect width="1000" height="1000" fill="#010c80"></rect><g transform="matrix(0.7,0,0,0.7,149.5757687155368,383.62649088943317)"><svg viewBox="0 0 396 132" data-background-color="#010c80" preserveAspectRatio="xMidYMid meet" height="333" width="1000" xmlns="http://www.w3.org/2000/svg" xmlns:xlink="http://www.w3.org/1999/xlink"><g id="tight-bounds" transform="matrix(1,0,0,1,0.23999474642243968,-0.09994336081160782)"><svg viewBox="0 0 395.52 132.19988672162322" height="132.19988672162322" width="395.52"><g><svg viewBox="0 0 549.2182529544261 183.57248894119877" height="132.19988672162322" width="395.52"><g><rect width="7.941099400520596" height="183.57248894119877" x="124.96893522793545" y="0" fill="#77d4fc" opacity="1" stroke-width="0" stroke="transparent" fill-opacity="1" class="rect-o-0" data-fill-palette-color="primary" rx="1%" id="o-0" data-palette-color="#77d4fc"></rect></g><g transform="matrix(1,0,0,1,153.69825295442618,15.297707411766567)"><svg viewBox="0 0 395.52 152.97707411766564" height="152.97707411766564" width="395.52"><g><svg viewBox="0 0 395.52 152.97707411766564" height="152.97707411766564" width="395.52"><g><svg viewBox="0 0 395.52 88.0573134328358" height="88.0573134328358" width="395.52"><g transform="matrix(1,0,0,1,0,0)"><svg width="395.52" viewBox="4.550000190734863 -35.5 160.7899932861328 35.79999923706055" height="88.0573134328358" data-palette-color="#77d4fc"><path d="M23.4-3.25L23.4 0 4.55 0 4.55-35 23.4-35 23.4-31.75 8.3-31.75 8.3-20.65 22.15-20.65 22.15-17.3 8.3-17.3 8.3-3.25 23.4-3.25ZM49.65-35L53.75-35 42.95 0 37.7 0 27.75-35 31.95-35 40.5-4.25 49.65-35ZM77.8-3.25L77.8 0 58.95 0 58.95-35 77.8-35 77.8-31.75 62.7-31.75 62.7-20.65 76.55-20.65 76.55-17.3 62.7-17.3 62.7-3.25 77.8-3.25ZM110.89-35L110.89 0.05 106.79 0.05 89.94-28 89.94 0 86.04 0 86.04-35 89.94-35 107.14-5.9 107.14-35 110.89-35ZM129.94 0L126.24 0 126.24-31.65 116.44-31.65 116.44-35 139.64-35 139.64-31.65 129.94-31.65 129.94 0ZM162.79-33.75L162.79-33.75 161.99-30.4 159.09-31.25Q155.99-32 153.74-32L153.74-32Q147.84-32 147.84-26.75L147.84-26.75Q147.84-24.45 149.64-22.98 151.44-21.5 154.01-20.63 156.59-19.75 159.16-18.73 161.74-17.7 163.54-15.58 165.34-13.45 165.34-10.2L165.34-10.2Q165.34-5.25 162.29-2.48 159.24 0.3 153.64 0.3L153.64 0.3Q150.84 0.3 148.01-0.53 145.19-1.35 143.39-2.45L143.39-2.45 144.64-5.3Q149.19-3.2 153.26-3.2 157.34-3.2 159.46-4.85 161.59-6.5 161.59-9.65L161.59-9.65Q161.59-12.85 158.14-14.65L158.14-14.65Q156.59-15.45 154.71-16.15 152.84-16.85 150.96-17.68 149.09-18.5 147.56-19.55 146.04-20.6 145.06-22.4 144.09-24.2 144.09-26.6L144.09-26.6Q144.09-30.9 146.66-33.2 149.24-35.5 153.59-35.5 157.94-35.5 162.79-33.75Z" opacity="1" transform="matrix(1,0,0,1,0,0)" fill="#77d4fc" class="undefined-text-0" data-fill-palette-color="primary" id="text-0"></path></svg></g></svg></g><g transform="matrix(1,0,0,1,0,108.84553175880595)"><svg viewBox="0 0 232.209792 44.1315423588597" height="44.1315423588597" width="232.209792"><g transform="matrix(1,0,0,1,0,0)"><svg width="232.209792" viewBox="1.9500000476837158 -33.5 178.8800048828125 34" height="44.1315423588597" data-palette-color="#4b91f1"><path d="M19.85-31.7L19.85-31.7Q16.15-31.7 13.43-30.38 10.7-29.05 8.9-26.93 7.1-24.8 6.23-22.15 5.35-19.5 5.35-16.9L5.35-16.9Q5.35-13.95 6.5-11.13 7.65-8.3 9.68-6.13 11.7-3.95 14.4-2.63 17.1-1.3 20.25-1.3L20.25-1.3Q21.15-1.3 22.38-1.5 23.6-1.7 24.8-2.27 26-2.85 27.03-3.9 28.05-4.95 28.6-6.65L28.6-6.65 29.1-6.65 29.1-1.1Q28.35-1.1 27.53-0.9 26.7-0.7 25.7-0.45L25.7-0.45Q24.4-0.1 22.83 0.2 21.25 0.5 19.5 0.5L19.5 0.5Q15.15 0.5 11.85-1 8.55-2.5 6.35-4.9 4.15-7.3 3.05-10.33 1.95-13.35 1.95-16.45L1.95-16.45Q1.95-19.55 3.05-22.6 4.15-25.65 6.4-28.08 8.65-30.5 12.05-32 15.45-33.5 20.05-33.5L20.05-33.5Q21.7-33.5 23.03-33.2 24.35-32.9 25.4-32.6L25.4-32.6Q26.15-32.35 26.78-32.23 27.4-32.1 28-32.1L28-32.1 28-26.55 27.5-26.55Q27.2-28.1 26.4-29.13 25.6-30.15 24.53-30.7 23.45-31.25 22.23-31.48 21-31.7 19.85-31.7ZM51.45 0L46.6 0 46.6-2.55 46.35-2.3Q45.1-1.05 43.47-0.35 41.85 0.35 39.55 0.35L39.55 0.35Q37.8 0.35 36.55-0.05 35.3-0.45 34.5-1.18 33.7-1.9 33.32-2.85 32.95-3.8 32.95-4.85L32.95-4.85Q32.95-6.55 33.87-7.85 34.8-9.15 36.55-10.15 38.3-11.15 40.82-11.98 43.35-12.8 46.6-13.6L46.6-13.6Q46.5-15.55 45.8-16.75 45.1-17.95 44.15-18.63 43.2-19.3 42.15-19.53 41.1-19.75 40.35-19.75L40.35-19.75Q39.05-19.75 38.07-19.35 37.1-18.95 36.37-18.32 35.65-17.7 35.15-16.98 34.65-16.25 34.35-15.6L34.35-15.6 33.9-15.6 33.9-19.25Q34.3-19.3 34.65-19.5 35-19.7 35.5-19.9L35.5-19.9Q36.25-20.2 37.55-20.78 38.85-21.35 41.2-21.35L41.2-21.35Q43.95-21.35 45.65-20.65 47.35-19.95 48.27-18.8 49.2-17.65 49.5-16.18 49.8-14.7 49.8-13.15L49.8-13.15 49.8-3.25Q49.8-2.25 50.25-1.38 50.7-0.5 51.45-0.5L51.45-0.5 51.45 0ZM46.05-4.15L46.6-4.75 46.6-11.9 46.1-11.8Q44.9-11.5 43.17-11 41.45-10.5 39.9-9.7 38.35-8.9 37.25-7.8 36.15-6.7 36.15-5.25L36.15-5.25Q36.15-3.65 37.45-2.6 38.75-1.55 40.85-1.55L40.85-1.55Q42.5-1.55 43.75-2.27 45-3 46.05-4.15L46.05-4.15ZM63 0L56.45 0 56.45-0.5Q56.85-0.5 57.15-0.8 57.45-1.1 57.67-1.5 57.9-1.9 58-2.38 58.1-2.85 58.1-3.25L58.1-3.25 58.1-28.85Q58.1-29.7 57.85-30.45 57.6-31.2 56.35-31.25L56.35-31.25 56.35-31.75 61.4-33.3 61.4-3.25Q61.4-2.85 61.5-2.38 61.6-1.9 61.82-1.5 62.05-1.1 62.32-0.8 62.6-0.5 63-0.5L63-0.5 63 0ZM87.89-10.1L70.54-10.1Q70.74-8.35 71.39-6.78 72.04-5.2 73.12-4 74.19-2.8 75.74-2.08 77.29-1.35 79.34-1.35L79.34-1.35Q80.44-1.35 81.67-1.68 82.89-2 83.94-2.6 84.99-3.2 85.82-4.08 86.64-4.95 86.94-6.05L86.94-6.05 87.39-6.05 87.39-2.3Q87.09-2.3 86.72-2.1 86.34-1.9 85.84-1.6L85.84-1.6Q84.84-1 83.14-0.33 81.44 0.35 78.64 0.35L78.64 0.35Q76.39 0.35 74.37-0.3 72.34-0.95 70.79-2.3 69.24-3.65 68.32-5.75 67.39-7.85 67.39-10.75L67.39-10.75Q67.39-12.6 68.02-14.5 68.64-16.4 69.92-17.93 71.19-19.45 73.19-20.4 75.19-21.35 77.99-21.35L77.99-21.35Q80.49-21.35 82.37-20.5 84.24-19.65 85.47-18.15 86.69-16.65 87.29-14.6 87.89-12.55 87.89-10.1L87.89-10.1ZM77.79-19.7L77.79-19.7Q76.04-19.7 74.77-19 73.49-18.3 72.59-17.2 71.69-16.1 71.19-14.7 70.69-13.3 70.54-11.9L70.54-11.9 84.79-11.9Q84.74-13.35 84.27-14.75 83.79-16.15 82.94-17.25 82.09-18.35 80.79-19.03 79.49-19.7 77.79-19.7ZM112.14-12.9L112.14-3.25Q112.14-2.85 112.24-2.38 112.34-1.9 112.57-1.5 112.79-1.1 113.07-0.8 113.34-0.5 113.74-0.5L113.74-0.5 113.74 0 107.29 0 107.29-0.5Q107.64-0.5 107.94-0.8 108.24-1.1 108.47-1.5 108.69-1.9 108.79-2.38 108.89-2.85 108.89-3.25L108.89-3.25 108.89-12.55Q108.89-14.35 108.39-15.7 107.89-17.05 107.04-17.95 106.19-18.85 105.12-19.28 104.04-19.7 102.94-19.7L102.94-19.7Q101.84-19.7 100.77-19.25 99.69-18.8 98.87-18.07 98.04-17.35 97.52-16.38 96.99-15.4 96.99-14.35L96.99-14.35 96.99-3.25Q96.99-2.85 97.09-2.38 97.19-1.9 97.42-1.5 97.64-1.1 97.92-0.8 98.19-0.5 98.59-0.5L98.59-0.5 98.59 0 92.09 0 92.09-0.5Q92.44-0.5 92.74-0.8 93.04-1.1 93.27-1.5 93.49-1.9 93.59-2.38 93.69-2.85 93.69-3.25L93.69-3.25 93.69-17.05Q93.69-17.9 93.44-18.68 93.19-19.45 91.99-19.5L91.99-19.5 91.99-19.95 96.99-21.55 96.99-18.8Q97.34-19.2 97.89-19.68 98.44-20.15 99.22-20.58 99.99-21 101.02-21.28 102.04-21.55 103.44-21.55L103.44-21.55Q105.79-21.55 107.44-20.75 109.09-19.95 110.14-18.68 111.19-17.4 111.67-15.88 112.14-14.35 112.14-12.9L112.14-12.9ZM139.44 0L134.54 0 134.54-2.2Q133.69-1.25 132.26-0.45 130.84 0.35 128.69 0.35L128.69 0.35Q126.04 0.35 124.06-0.58 122.09-1.5 120.79-3 119.49-4.5 118.86-6.43 118.24-8.35 118.24-10.4L118.24-10.4Q118.24-12.4 118.89-14.38 119.54-16.35 120.84-17.9 122.14-19.45 124.09-20.4 126.04-21.35 128.59-21.35L128.59-21.35Q130.29-21.35 131.94-20.73 133.59-20.1 134.54-19.1L134.54-19.1 134.54-28.85Q134.54-29.7 134.29-30.45 134.04-31.2 132.84-31.25L132.84-31.25 132.84-31.75 137.84-33.3 137.84-3.25Q137.84-2.85 137.94-2.38 138.04-1.9 138.24-1.5 138.44-1.1 138.74-0.8 139.04-0.5 139.44-0.5L139.44-0.5 139.44 0ZM129.04-1.3L129.04-1.3Q130.09-1.3 131.09-1.73 132.09-2.15 132.84-2.88 133.59-3.6 134.06-4.58 134.54-5.55 134.54-6.7L134.54-6.7 134.54-13.55Q134.54-14.95 133.94-16.07 133.34-17.2 132.44-18 131.54-18.8 130.46-19.23 129.39-19.65 128.39-19.65L128.39-19.65Q126.74-19.65 125.44-18.88 124.14-18.1 123.24-16.88 122.34-15.65 121.89-14.13 121.44-12.6 121.44-11.1L121.44-11.1Q121.44-9.35 121.94-7.63 122.44-5.9 123.41-4.53 124.39-3.15 125.79-2.25 127.19-1.35 129.04-1.3ZM162.34 0L157.49 0 157.49-2.55 157.24-2.3Q155.99-1.05 154.36-0.35 152.74 0.35 150.44 0.35L150.44 0.35Q148.69 0.35 147.44-0.05 146.19-0.45 145.39-1.18 144.59-1.9 144.21-2.85 143.84-3.8 143.84-4.85L143.84-4.85Q143.84-6.55 144.76-7.85 145.69-9.15 147.44-10.15 149.19-11.15 151.71-11.98 154.24-12.8 157.49-13.6L157.49-13.6Q157.39-15.55 156.69-16.75 155.99-17.95 155.04-18.63 154.09-19.3 153.04-19.53 151.99-19.75 151.24-19.75L151.24-19.75Q149.94-19.75 148.96-19.35 147.99-18.95 147.26-18.32 146.54-17.7 146.04-16.98 145.54-16.25 145.24-15.6L145.24-15.6 144.79-15.6 144.79-19.25Q145.19-19.3 145.54-19.5 145.89-19.7 146.39-19.9L146.39-19.9Q147.14-20.2 148.44-20.78 149.74-21.35 152.09-21.35L152.09-21.35Q154.84-21.35 156.54-20.65 158.24-19.95 159.16-18.8 160.09-17.65 160.39-16.18 160.69-14.7 160.69-13.15L160.69-13.15 160.69-3.25Q160.69-2.25 161.14-1.38 161.59-0.5 162.34-0.5L162.34-0.5 162.34 0ZM156.94-4.15L157.49-4.75 157.49-11.9 156.99-11.8Q155.79-11.5 154.06-11 152.34-10.5 150.79-9.7 149.24-8.9 148.14-7.8 147.04-6.7 147.04-5.25L147.04-5.25Q147.04-3.65 148.34-2.6 149.64-1.55 151.74-1.55L151.74-1.55Q153.39-1.55 154.64-2.27 155.89-3 156.94-4.15L156.94-4.15ZM180.83-20.4L179.33-17.35Q178.73-18.35 178.08-18.6 177.43-18.85 176.58-18.85L176.58-18.85Q176.03-18.85 175.41-18.6 174.78-18.35 174.18-17.95 173.58-17.55 173.01-17.07 172.43-16.6 172.03-16.2L172.03-16.2 172.03-3.2Q172.03-2.8 172.13-2.35 172.23-1.9 172.46-1.48 172.68-1.05 172.96-0.78 173.23-0.5 173.63-0.5L173.63-0.5 173.63 0 167.13 0 167.13-0.5Q167.48-0.5 167.78-0.78 168.08-1.05 168.31-1.48 168.53-1.9 168.63-2.35 168.73-2.8 168.73-3.2L168.73-3.2 168.73-17.15Q168.73-17.85 168.28-18.55 167.83-19.25 166.98-19.45L166.98-19.45 166.98-19.85 172.03-21.35 172.03-18.35Q172.48-18.9 172.98-19.43 173.48-19.95 174.11-20.38 174.73-20.8 175.48-21.08 176.23-21.35 177.23-21.35L177.23-21.35Q177.93-21.35 179.03-21.05 180.13-20.75 180.83-20.4L180.83-20.4Z" opacity="1" transform="matrix(1,0,0,1,0,0)" fill="#4b91f1" class="undefined-text-1" data-fill-palette-color="secondary" id="text-1"></path></svg></g></svg></g></svg></g></svg></g><g transform="matrix(1,0,0,1,0,38.932665362945905)"><svg viewBox="0 0 104.1807169019653 105.70715821530696" height="105.70715821530696" width="104.1807169019653"><g><svg xmlns="http://www.w3.org/2000/svg" xmlns:xlink="http://www.w3.org/1999/xlink" version="1.1" x="0" y="0" viewBox="17.700000762939453 17.30000114440918 54.60000228881836 55.399993896484375" enable-background="new 0 0 90 90" xml:space="preserve" height="105.70715821530696" width="104.1807169019653" class="icon-icon-0" data-fill-palette-color="accent" id="icon-0"><path fill="#4b91f1" d="M72.3 32.2v7.1 25.7c0 4.3-3.5 7.7-7.7 7.7H25.4c-4.3 0-7.7-3.5-7.7-7.7V39.3v-7.1c0-4.3 3.5-7.7 7.7-7.7h2.6v3V32c0 3.1 2.5 5.6 5.6 5.6s5.6-2.5 5.6-5.6v-4.5-3h12.2v3V32c0 3.1 2.5 5.6 5.6 5.6 3.1 0 5.6-2.5 5.6-5.6v-4.5-3h2.1C68.8 24.5 72.3 27.9 72.3 32.2zM70 38.6H20v26.4c0 3 2.4 5.4 5.4 5.4h39.2c3 0 5.4-2.4 5.4-5.4V38.6zM33.6 35.4c1.9 0 3.4-1.5 3.4-3.4v-4.5-3-3.8c0-1.9-1.5-3.4-3.4-3.4-1.9 0-3.4 1.5-3.4 3.4v3.8 3V32C30.2 33.9 31.7 35.4 33.6 35.4zM57 35.4c1.9 0 3.4-1.5 3.4-3.4v-4.5-3-3.8c0-1.9-1.5-3.4-3.4-3.4-1.9 0-3.4 1.5-3.4 3.4v3.8 3V32C53.5 33.9 55.1 35.4 57 35.4zM57.5 45.8c-1-1-2.7-1-3.7 0L41.6 57.9l-5.4-5.4c-1-1-2.7-1-3.7 0-1 1-1 2.7 0 3.7l7.2 7.2c0.5 0.5 1.2 0.8 1.8 0.8s1.3-0.3 1.8-0.8l14-14C58.5 48.4 58.5 46.8 57.5 45.8z" data-fill-palette-color="accent"></path></svg></g></svg></g></svg></g><defs></defs></svg><rect width="395.52" height="132.19988672162322" fill="none" stroke="none" visibility="hidden"></rect></g></svg></g></svg>